<svg width="41" height="41" viewBox="0 0 41 41" fill="none" xmlns="http://www.w3.org/2000/svg">
<path d="M18.6334 28.453C18.6326 29.4896 19.466 30.3282 20.4976 30.3292C21.5299 30.3301 22.365 29.4935 22.3656 28.457C22.3664 27.4207 21.5333 26.5822 20.5017 26.5807C19.4702 26.5793 18.6342 27.417 18.6334 28.453ZM18.6353 18.3708H18.6316C18.6316 19.8185 18.6345 21.266 18.6298 22.7136C18.6286 23.0921 18.6891 23.4498 18.8829 23.7798C19.3042 24.4972 20.137 24.8503 20.9513 24.6549C21.7507 24.4633 22.3294 23.7497 22.3633 22.9129C22.3661 22.8424 22.3672 22.7717 22.3672 22.7012C22.3674 19.8236 22.363 16.9462 22.3706 14.0686C22.3723 13.351 22.1213 12.7704 21.5172 12.3785C20.924 11.9931 20.2822 11.9586 19.6543 12.2798C19.018 12.6055 18.648 13.1446 18.6401 13.8692C18.6239 15.3696 18.6353 16.8702 18.6353 18.3708ZM6.92993 29.2744V28.3732C7.05588 27.8236 7.21588 27.2925 7.50616 26.7963C10.7373 21.2753 13.9572 15.748 17.1834 10.2241C18.287 8.33463 20.7694 7.75856 22.6019 8.95262C23.235 9.36515 23.6546 9.94828 24.0289 10.5913C27.1939 16.0283 30.3709 21.4583 33.5428 26.8914C35.0254 29.4307 33.2061 32.6564 30.2668 32.6625C23.7572 32.676 17.2477 32.6699 10.7383 32.6644C9.09861 32.6631 7.64993 31.5958 7.13314 30.0344C7.0509 29.7859 6.99676 29.5279 6.92993 29.2744Z" fill="#00A9E5"/>
<path d="M18.6352 18.3706C18.6352 16.87 18.624 15.3693 18.6401 13.869C18.6479 13.1442 19.0179 12.6051 19.6544 12.2795C20.2822 11.9584 20.9239 11.9929 21.5172 12.3781C22.1212 12.7702 22.3724 13.3507 22.3705 14.0684C22.363 16.9458 22.3673 19.8234 22.3671 22.701C22.3671 22.7715 22.3662 22.8422 22.3633 22.9127C22.3294 23.7494 21.7507 24.4631 20.9512 24.6547C20.1371 24.8501 19.3042 24.4968 18.8828 23.7796C18.6891 23.4496 18.6285 23.0919 18.6298 22.7134C18.6344 21.2657 18.6317 19.8181 18.6317 18.3706H18.6352Z" fill="#004C97"/>
<path d="M18.6334 28.453C18.6342 27.417 19.4702 26.5792 20.5017 26.5807C21.5333 26.5821 22.3664 27.4207 22.3656 28.457C22.365 29.4934 21.53 30.3301 20.4977 30.3291C19.466 30.3281 18.6326 29.4896 18.6334 28.453Z" fill="#004C97"/>
</svg>
