<svg width="33" height="32" viewBox="0 0 33 32" fill="none" xmlns="http://www.w3.org/2000/svg">
<path d="M16.7917 26.6665H16.2083C16.1847 26.6543 16.1624 26.6352 16.1373 26.6308C15.622 26.5393 15.2096 26.2797 14.8841 25.8738C14.6147 25.5381 14.3378 25.2084 14.0735 24.8687C13.855 24.5881 13.5875 24.5041 13.2462 24.6007C12.7794 24.7329 12.3122 24.8667 11.8391 24.973C10.6966 25.2296 9.54206 24.41 9.41284 23.2444C9.35866 22.7553 9.34741 22.2611 9.32766 21.7688C9.31312 21.4094 9.15537 21.169 8.81121 21.0447C8.4071 20.8989 8.00752 20.74 7.60643 20.586C6.34144 20.1 5.86957 18.675 6.5974 17.5331C6.83594 17.1586 7.07942 16.7871 7.32482 16.4171C7.51069 16.1367 7.51014 15.8632 7.32441 15.5826C7.07147 15.2009 6.81825 14.8192 6.57587 14.4308C5.87931 13.3142 6.35804 11.8947 7.58737 11.4205C7.98832 11.2659 8.38708 11.1052 8.79255 10.9631C9.15578 10.8356 9.31943 10.5869 9.32862 10.2099C9.33863 9.8076 9.36003 9.40541 9.3828 9.00336C9.46332 7.58199 10.664 6.71205 12.0419 7.07569C12.4506 7.18351 12.8593 7.29256 13.2669 7.40504C13.59 7.49406 13.8505 7.41327 14.0602 7.14716C14.3439 6.7875 14.6322 6.43126 14.9251 6.07887C15.7507 5.08479 17.2492 5.08465 18.0745 6.07818C18.3627 6.42523 18.6479 6.77515 18.9253 7.13097C19.1441 7.4119 19.4121 7.49681 19.7525 7.39928C20.1656 7.2809 20.5822 7.17487 20.997 7.06225C22.2491 6.7222 23.4494 7.5252 23.594 8.81722C23.6456 9.27853 23.656 9.74518 23.6703 10.2098C23.6818 10.5873 23.8441 10.8342 24.2076 10.9615C24.6195 11.1056 25.0265 11.265 25.4316 11.4281C26.6689 11.9261 27.1199 13.3392 26.4028 14.4669C26.1609 14.8474 25.913 15.2244 25.6655 15.6013C25.4901 15.8681 25.4896 16.1309 25.6653 16.3981C25.9054 16.7633 26.1438 17.1298 26.3796 17.4978C27.1359 18.6786 26.6819 20.0776 25.374 20.5946C24.9873 20.7476 24.6009 20.9024 24.2083 21.039C23.8445 21.1655 23.6796 21.4122 23.6708 21.7901C23.6614 22.1924 23.6403 22.5947 23.6164 22.9966C23.5308 24.431 22.3222 25.2975 20.9374 24.9207C20.5362 24.8115 20.1337 24.7067 19.7331 24.5956C19.4098 24.5061 19.1497 24.5873 18.9398 24.8534C18.6519 25.2187 18.3577 25.5789 18.0619 25.9378C17.8224 26.2285 17.5216 26.4339 17.1637 26.5529C17.0407 26.5939 16.9157 26.6289 16.7917 26.6665Z" fill="#B7B7B7"/>
<path d="M12.2136 21.0306C11.8824 21.0221 11.6314 20.8734 11.4771 20.5799C11.3226 20.2859 11.3424 19.9932 11.5269 19.7173C11.5826 19.6341 11.6554 19.5611 11.7267 19.4898C14.2997 16.9158 16.8742 14.3435 19.4456 11.7683C19.7101 11.5034 20.0032 11.3598 20.3787 11.4749C20.9548 11.6515 21.1676 12.3323 20.7962 12.8058C20.7392 12.8785 20.6711 12.9431 20.6056 13.0087C18.0501 15.5642 15.4937 18.1189 12.9395 20.6756C12.7362 20.879 12.5223 21.0471 12.2136 21.0306Z" fill="white"/>
<path d="M11.3784 13.1255C11.3798 12.1925 12.1403 11.4353 13.0752 11.4363C14.0053 11.4371 14.7714 12.2036 14.7696 13.1316C14.7676 14.0566 13.9929 14.8288 13.0693 14.8262C12.1414 14.8236 11.377 14.0547 11.3784 13.1255Z" fill="white"/>
<path d="M19.2917 21.0312C18.3513 21.0333 17.5993 20.2864 17.5967 19.3475C17.5941 18.4091 18.3428 17.6559 19.2818 17.6523C20.2205 17.6487 20.9729 18.3973 20.9756 19.3375C20.9784 20.2779 20.2315 21.0292 19.2917 21.0312Z" fill="white"/>
</svg>
