<svg width="25" height="24" viewBox="0 0 25 24" fill="none" xmlns="http://www.w3.org/2000/svg">
<g clip-path="url(#clip0_3694_22370)">
<path d="M19.5731 12.9635L19.7278 13.192H19.8017C19.8169 13.211 19.8338 13.2309 19.8526 13.2513C19.9372 13.3741 19.9746 13.5389 19.9653 13.6944C19.9616 13.7567 19.9509 13.8049 19.9406 13.8365L19.8877 13.8886C19.8873 13.8888 19.8868 13.8891 19.8862 13.8895C19.8793 13.8938 19.8699 13.8988 19.836 13.9155C19.8335 13.9167 19.8308 13.918 19.828 13.9194C19.7751 13.9454 19.6814 13.9913 19.582 14.0732C19.425 14.16 19.271 14.2791 19.1464 14.4222C19.0295 14.5566 18.9064 14.7503 18.8726 14.9876C18.7922 15.2053 18.8034 15.4064 18.8212 15.5467C18.8278 15.5983 18.8383 15.6606 18.8458 15.7054C18.8486 15.7217 18.8509 15.7356 18.8526 15.7459C18.861 15.7991 18.8636 15.828 18.8636 15.8476V15.9126L18.8796 15.9755C18.8993 16.0531 18.8854 16.1849 18.8 16.3251C18.7148 16.4649 18.601 16.5429 18.5151 16.5641L18.4603 16.5776L18.4097 16.6025C18.2853 16.6637 18.1563 16.6711 17.8952 16.6711C17.3163 16.6711 16.735 17.0426 16.5344 17.6351L16.507 17.7162V17.8018C16.507 17.8281 16.5027 17.8482 16.4832 17.8962C16.4823 17.8983 16.4805 17.9027 16.478 17.9085C16.4677 17.9332 16.4457 17.9854 16.4328 18.0214C16.4171 18.0654 16.3956 18.1329 16.3869 18.2159C16.3488 18.3728 16.2738 18.461 16.1914 18.5172C16.094 18.5836 15.9541 18.6253 15.7866 18.6253C15.7552 18.6253 15.7271 18.6253 15.6975 18.6239C15.668 18.6226 15.643 18.6203 15.6228 18.6169C15.6212 18.6167 15.6197 18.6164 15.6183 18.6162L15.5798 18.5782L15.4811 18.5394C15.1011 18.3897 14.7094 18.333 14.329 18.4267C13.9436 18.5215 13.6314 18.7556 13.3885 19.0745L13.3797 19.0861L13.3716 19.0981C13.2801 19.2331 13.2032 19.3033 13.1292 19.3519C13.0609 19.3967 12.9773 19.4351 12.8484 19.4803H12.8482H12.8474H12.8467H12.846H12.8453H12.8445H12.8438H12.8431H12.8424H12.8416H12.8409H12.8402H12.8394H12.8387H12.838H12.8373H12.8365H12.8358H12.8351H12.8344H12.8336H12.8329H12.8322H12.8315H12.8307H12.83H12.8293H12.8285H12.8278H12.8271H12.8264H12.8256H12.8249H12.8242H12.8235H12.8227H12.822H12.8213H12.8206H12.8198H12.8191H12.8184H12.8176H12.8169H12.8162H12.8155H12.8147H12.814H12.8133H12.8126H12.8118H12.8111H12.8104H12.8097H12.8089H12.8082H12.8075H12.8067H12.806H12.8053H12.8046H12.8038H12.8031H12.8024H12.8017H12.8009H12.8002H12.7995H12.7987H12.798H12.7973H12.7966H12.7958H12.7951H12.7944H12.7937H12.7929H12.7922H12.7915H12.7908H12.79H12.7893H12.7886H12.7878H12.7871H12.7864H12.7857H12.7849H12.7842H12.7835H12.7828H12.782H12.7813H12.7806H12.7799H12.7791H12.7784H12.7777H12.7769H12.7762H12.7755H12.7748H12.774H12.7733H12.7726H12.7719H12.7711H12.7704H12.7697H12.769H12.7682H12.7675H12.7668H12.766H12.7653H12.7646H12.7639H12.7631H12.7624H12.7617H12.761H12.7602H12.7595H12.7588H12.7581H12.7573H12.7566H12.7559H12.7551H12.7544H12.7537H12.753H12.7522H12.7515H12.7508H12.7501H12.7493H12.7486H12.7479H12.7471H12.7464H12.7457H12.745H12.7442H12.7435H12.7428H12.7421H12.7413H12.7406H12.7399H12.7392H12.7384H12.7377H12.737H12.7362H12.7355H12.7348H12.7341H12.7333H12.7326H12.7319H12.7312H12.7304H12.7297H12.729H12.7283H12.7275H12.7268H12.7261H12.7253H12.7246H12.7239H12.7232H12.7224H12.7217H12.721H12.7203H12.7195H12.7188H12.7181H12.7174H12.7166H12.7159H12.7152H12.7144H12.7137H12.713H12.7123H12.7115H12.7108H12.7101H12.7094H12.7086H12.7079H12.7072H12.7065H12.7057H12.705H12.7043H12.7035H12.7028H12.7021H12.7014H12.7006H12.6999H12.6992H12.6985H12.6977H12.697H12.6963H12.6956H12.6948H12.6941H12.6934H12.6926H12.6919H12.6912H12.6905H12.6897H12.689H12.6883H12.6876H12.6868H12.6861H12.6854H12.6846H12.6839H12.6832H12.6825H12.6817H12.681H12.6803H12.6796H12.6788H12.6781H12.6774H12.6767H12.6759H12.6752H12.6745H12.6737H12.673H12.6723H12.6716H12.6708H12.6701H12.6694H12.6687H12.6679H12.6672H12.6665H12.6658H12.665H12.6643H12.6636H12.6628H12.6621H12.6614H12.6607H12.6599H12.6592H12.6585H12.6578H12.657H12.6563H12.6556H12.6549H12.6541H12.6534H12.6527H12.6519H12.6512H12.6505H12.6498H12.649H12.6483H12.6476H12.6469H12.6461H12.6454H12.6447H12.644H12.6432H12.6425H12.6418H12.641H12.6403H12.6396H12.6389H12.6381H12.6374H12.6367H12.636H12.6352H12.6345H12.6338H12.6331H12.6323H12.6316H12.6309H12.6301H12.6294H12.6287H12.628H12.6272H12.6265H12.6258H12.6251H12.6243H12.6236H12.6229H12.6221H12.6214H12.6207H12.62H12.6192H12.6185H12.6178H12.6171H12.6163H12.6156H12.6149H12.6142H12.6134H12.6127H12.612H12.6112H12.6105H12.6098H12.6091H12.6083H12.6076H12.6069H12.6062H12.6054H12.6047H12.604H12.6033H12.6025H12.6018H12.6011H12.6003H12.5996H12.5989H12.5982H12.5974H12.5967H12.596H12.5953H12.5945H12.5938H12.5931H12.5924H12.5916H12.5909H12.5902H12.5894H12.5887H12.588H12.5873H12.5865H12.5858H12.5851H12.5844H12.5836H12.5829H12.5822H12.5815H12.5807H12.58H12.5793H12.5785H12.5778H12.5771H12.5764H12.5756H12.5749H12.5742H12.5735H12.5727H12.572H12.5713H12.5706H12.5698H12.5691H12.5684H12.5676H12.5669H12.5662H12.5655H12.5647H12.564H12.5633H12.5626H12.5618C12.4356 19.4803 12.3351 19.4137 12.0584 19.1412L11.6936 19.5117L12.0584 19.1412L11.9344 19.0191C11.6796 18.7681 11.396 18.6189 11.0738 18.5701C10.7867 18.5266 10.5057 18.5691 10.2485 18.6299C10.1697 18.6388 10.1037 18.659 10.0561 18.6766C9.99897 18.6977 9.94642 18.7237 9.9186 18.7374L9.91354 18.7399C9.90759 18.7428 9.90252 18.7453 9.89808 18.7475H9.83611L9.7275 18.801C9.41375 18.9554 9.14168 18.8335 9.05646 18.6656C9.01235 18.5788 8.99112 18.517 8.96132 18.429L8.96014 18.4255C8.92948 18.3349 8.89082 18.2207 8.81832 18.0747C8.67088 17.7189 8.46845 17.4223 8.18856 17.2156C7.89756 17.0007 7.56678 16.9154 7.2285 16.9154H7.22704H7.2256H7.22415H7.22271H7.22126H7.21983H7.21839H7.21696H7.21553H7.2141H7.21268H7.21126H7.20984H7.20842H7.20701H7.2056H7.20419H7.20279H7.20139H7.19999H7.19859H7.1972H7.19581H7.19442H7.19303H7.19165H7.19027H7.18889H7.18752H7.18614H7.18478H7.18341H7.18204H7.18068H7.17932H7.17797H7.17661H7.17526H7.17391H7.17257H7.17123H7.16989H7.16855H7.16721H7.16588H7.16455H7.16322H7.1619H7.16058H7.15926H7.15794H7.15662H7.15531H7.154H7.15269H7.15139H7.15009H7.14879H7.14749H7.1462H7.14491H7.14362H7.14233H7.14105H7.13976H7.13848H7.13721H7.13593H7.13466H7.13339H7.13212H7.13086H7.1296H7.12834H7.12708H7.12582H7.12457H7.12332H7.12207H7.12083H7.11959H7.11835H7.11711H7.11587H7.11464H7.11341H7.11218H7.11095H7.10973H7.10851H7.10729H7.10607H7.10486H7.10364H7.10243H7.10123H7.10002H7.09882H7.09762H7.09642H7.09522H7.09403H7.09284H7.09165H7.09046H7.08927H7.08809H7.08691H7.08573H7.08456H7.08338H7.08221H7.08104H7.07988H7.07871H7.07755H7.07639H7.07523H7.07407H7.07292H7.07177H7.07062H7.06947H7.06833H7.06718H7.06604H7.0649H7.06377H7.06263H7.0615H7.06037H7.05924H7.05812H7.05699H7.05587H7.05475H7.05363H7.05252H7.0514H7.05029H7.04918H7.04808H7.04697H7.04587H7.04477H7.04367H7.04257H7.04148H7.04038H7.03929H7.0382H7.03712H7.03603H7.03495H7.03387H7.03279H7.03171H7.03064H7.02956H7.02849H7.02742H7.02635H7.02529H7.02423H7.02316H7.0221H7.02105H7.01999H7.01894H7.01788H7.01683H7.01579H7.01474H7.0137H7.01265H7.01161H7.01057H7.00954H7.0085H7.00747H7.00644H7.00541H7.00438H7.00335H7.00233H7.00131H7.00029H6.99927H6.99825H6.99724H6.99622H6.99521H6.9942H6.99319H6.99219H6.99118H6.99018H6.98918H6.98818H6.98718H6.98619H6.98519H6.9842H6.98321H6.98222H6.98123H6.98025H6.97926H6.97828H6.9773H6.97632H6.97535H6.97437H6.9734H6.97243H6.97145H6.97049H6.96952H6.96855H6.96759H6.96663H6.96567H6.96471H6.96375H6.96279H6.96184H6.96089H6.95994H6.95899H6.95804H6.95709H6.95615H6.9552H6.95426H6.95332H6.95238H6.95145H6.95051H6.94958H6.94864H6.94771H6.94678H6.94585H6.94493H6.944H6.94308H6.94216H6.94124H6.94032H6.9394H6.93848H6.93757H6.93665H6.93574H6.93483H6.93392H6.93302H6.93211H6.9312H6.9303H6.9294H6.9285H6.9276H6.9267H6.9258H6.92491H6.92401H6.92312H6.92223H6.92134H6.92045H6.91957H6.91868H6.9178H6.91691H6.91603H6.91515H6.91427H6.91339H6.91252H6.91164H6.91077H6.90989H6.90902H6.90815H6.90728H6.90642H6.90555H6.90468H6.90382H6.90296H6.9021H6.90124H6.90038H6.89952H6.89866H6.89781H6.89695H6.8961H6.89525H6.8944H6.89355H6.8927H6.89185H6.89101H6.89016H6.88932H6.88847H6.88763H6.88679H6.88595H6.88511H6.88428H6.88344H6.88261H6.88177H6.88094H6.88011H6.87928H6.87845H6.87762H6.87679H6.87597H6.87514H6.87432H6.87349H6.87267H6.87185H6.87103H6.87021H6.86939H6.86858H6.86776H6.86694H6.86613H6.86532H6.86451H6.86369H6.86288H6.86207H6.86127H6.86046H6.85965H6.85885H6.85804H6.85724H6.85644H6.85563H6.85483H6.85403H6.85324H6.85244H6.85164H6.85084H6.85005H6.84925H6.84846H6.84767H6.84687H6.84608H6.84529H6.8445H6.84371H6.84293H6.84214H6.84135H6.84057H6.83978H6.839H6.83822H6.83743H6.83665H6.83587H6.83509H6.83431H6.83353H6.83276H6.83198H6.8312H6.83043H6.82965H6.82888H6.82811H6.82733H6.82656H6.82579H6.82502H6.82425H6.82348H6.82271H6.82195H6.82118H6.82041H6.81965H6.81888H6.81812H6.81735H6.81659H6.81583H6.81507H6.81431H6.81354H6.81278H6.81203H6.81127H6.81051H6.80975H6.80899H6.80824H6.80748H6.80673H6.80597H6.80522H6.80446H6.80371H6.80296H6.80221H6.80145H6.8007H6.79995H6.7992H6.79845H6.7977H6.79696H6.79621H6.79546H6.79471H6.79397H6.79322H6.79247H6.79173H6.79099H6.79024H6.7895H6.78875H6.78801H6.78727H6.78653H6.78578H6.78504H6.7843H6.78356H6.78282H6.78208H6.78134H6.7806H6.77986H6.77913H6.77839H6.77765H6.77691H6.77618H6.77544H6.7747H6.77397H6.77323H6.7725H6.77176H6.77103H6.77029H6.76956H6.76883H6.76809H6.76736H6.76663H6.76589H6.76516H6.76443H6.7637H6.76296H6.76223H6.7615H6.76077H6.76004H6.75931H6.75858H6.75785H6.75712H6.75639H6.75566H6.75493H6.7542H6.75347H6.75274H6.75201H6.75128H6.75056H6.74983H6.7491H6.74837H6.74764H6.74691H6.74619H6.74546H6.74473H6.744H6.74328H6.74255H6.74182H6.7411H6.74037H6.73964H6.73891H6.73819H6.73746H6.73673H6.73601H6.73528H6.73455H6.73383H6.7331H6.73237C6.66499 16.9154 6.58482 16.8836 6.50913 16.7941C6.431 16.7018 6.38412 16.5757 6.38412 16.4583C6.38412 16.4303 6.3877 16.4112 6.41868 16.3196C6.41979 16.3164 6.42093 16.313 6.4221 16.3096C6.45381 16.2162 6.50815 16.0562 6.50815 15.8476C6.50815 15.5689 6.47434 15.2693 6.35175 15.0037C6.23439 14.7495 6.04011 14.5386 5.76193 14.4174C5.67311 14.3493 5.59168 14.3093 5.54372 14.2858C5.54093 14.2844 5.53825 14.2831 5.5357 14.2819C5.50187 14.2652 5.49247 14.2602 5.48553 14.2559C5.48488 14.2555 5.48439 14.2552 5.48403 14.255L5.43937 14.211L5.38447 14.1786C5.17286 14.0535 5.09367 13.9186 5.06904 13.8095C5.0434 13.6958 5.05859 13.5278 5.19191 13.309L5.26784 13.1844V13.1018C5.26953 13.0985 5.27141 13.0948 5.27351 13.0906C5.27431 13.0891 5.27517 13.0874 5.27608 13.0856C5.29 13.0582 5.31668 13.0058 5.33845 12.9487C5.34788 12.9239 5.35815 12.8939 5.36714 12.8596C5.64827 12.3668 5.64818 11.7553 5.36686 11.2625C5.33322 11.1359 5.27377 11.0404 5.24046 10.9912C5.21494 10.9535 5.18999 10.9219 5.16969 10.8979C5.05696 10.6975 5.0449 10.5423 5.06904 10.4353C5.09367 10.3262 5.17286 10.1913 5.38447 10.0662L5.43937 10.0338L5.48403 9.98982C5.48439 9.98959 5.48488 9.98928 5.48553 9.98888C5.49247 9.98461 5.50187 9.97959 5.5357 9.96293C5.53825 9.96167 5.54093 9.96036 5.54371 9.95899C5.60104 9.93087 5.70622 9.87929 5.81465 9.78407C6.02945 9.63769 6.21767 9.46015 6.34328 9.21277C6.47332 8.95666 6.50815 8.68037 6.50815 8.39721V8.17948L6.38417 8.0574C6.38412 8.04985 6.38412 8.04138 6.38412 8.0308V7.97853L6.37371 7.9273C6.32964 7.71028 6.36321 7.57317 6.40691 7.49787C6.4445 7.43309 6.52193 7.35639 6.70882 7.31958L6.77631 7.30629L6.83802 7.27591C6.96236 7.21469 7.09134 7.20725 7.35253 7.20725H7.43568L7.51469 7.18131C8.04134 7.00844 8.37164 6.65907 8.65131 6.24596L8.74071 6.11391V5.95446C8.74071 5.94387 8.74071 5.93541 8.74076 5.92785L8.82273 5.84713L8.85433 5.69154C8.88992 5.51633 8.96889 5.42075 9.05627 5.36118C9.15366 5.29479 9.29359 5.25305 9.46105 5.25305C9.49372 5.25305 9.51627 5.25775 9.60897 5.28818C9.61219 5.28924 9.6155 5.29033 9.61889 5.29145C9.69322 5.31592 9.80742 5.35351 9.95355 5.36859C10.2506 5.49531 10.5554 5.53906 10.8631 5.46913C11.1947 5.39377 11.4633 5.20104 11.6863 4.98143L12.0584 4.61502C12.2281 4.44791 12.5234 4.44791 12.6931 4.61502L12.7529 4.67393L12.8283 4.71102C12.8597 4.72651 12.8981 4.75671 12.9556 4.8247C12.9789 4.85216 12.9989 4.87787 13.0243 4.91039C13.0323 4.92063 13.0408 4.93154 13.0501 4.94339C13.0827 4.985 13.1319 5.04714 13.1892 5.10357L13.2258 5.13958L13.2687 5.16775C13.6949 5.44751 14.2392 5.66615 14.8325 5.47139L14.9483 5.43337L15.0352 5.34785C15.0373 5.34574 15.049 5.33517 15.0726 5.31935C15.095 5.3043 15.1213 5.28909 15.1481 5.27591C15.1701 5.26507 15.1884 5.2576 15.2012 5.25305H15.2295L15.2908 5.23797C15.6335 5.15361 15.8609 5.25135 15.9582 5.36725C15.9808 5.42024 15.9987 5.48517 16.0236 5.59564C16.0271 5.611 16.0307 5.62717 16.0344 5.6441C16.0619 5.76772 16.0984 5.93227 16.1623 6.12118L16.1673 6.13582L16.1731 6.15014C16.3212 6.51475 16.526 6.81864 16.8111 7.02921C17.1021 7.24413 17.4329 7.32938 17.7711 7.32938H17.7726H17.774H17.7755H17.7769H17.7784H17.7798H17.7812H17.7827H17.7841H17.7855H17.787H17.7884H17.7898H17.7912H17.7926H17.794H17.7954H17.7968H17.7982H17.7996H17.801H17.8024H17.8038H17.8052H17.8066H17.808H17.8094H17.8107H17.8121H17.8135H17.8149H17.8162H17.8176H17.8189H17.8203H17.8217H17.823H17.8244H17.8257H17.8271H17.8284H17.8297H17.8311H17.8324H17.8337H17.8351H17.8364H17.8377H17.8391H17.8404H17.8417H17.843H17.8443H17.8456H17.8469H17.8482H17.8495H17.8508H17.8521H17.8534H17.8547H17.856H17.8573H17.8586H17.8599H17.8611H17.8624H17.8637H17.865H17.8662H17.8675H17.8688H17.87H17.8713H17.8725H17.8738H17.8751H17.8763H17.8776H17.8788H17.88H17.8813H17.8825H17.8838H17.885H17.8862H17.8875H17.8887H17.8899H17.8911H17.8923H17.8936H17.8948H17.896H17.8972H17.8984H17.8996H17.9008H17.902H17.9032H17.9044H17.9056H17.9068H17.908H17.9092H17.9104H17.9115H17.9127H17.9139H17.9151H17.9162H17.9174H17.9186H17.9198H17.9209H17.9221H17.9232H17.9244H17.9256H17.9267H17.9279H17.929H17.9302H17.9313H17.9324H17.9336H17.9347H17.9359H17.937H17.9381H17.9393H17.9404H17.9415H17.9426H17.9438H17.9449H17.946H17.9471H17.9482H17.9493H17.9504H17.9516H17.9527H17.9538H17.9549H17.956H17.9571H17.9582H17.9592H17.9603H17.9614H17.9625H17.9636H17.9647H17.9658H17.9668H17.9679H17.969H17.9701H17.9711H17.9722H17.9733H17.9743H17.9754H17.9765H17.9775H17.9786H17.9796H17.9807H17.9817H17.9828H17.9838H17.9849H17.9859H17.987H17.988H17.9891H17.9901H17.9911H17.9922H17.9932H17.9942H17.9952H17.9963H17.9973H17.9983H17.9993H18.0004H18.0014H18.0024H18.0034H18.0044H18.0054H18.0064H18.0074H18.0084H18.0094H18.0104H18.0114H18.0124H18.0134H18.0144H18.0154H18.0164H18.0174H18.0184H18.0194H18.0204H18.0213H18.0223H18.0233H18.0243H18.0253H18.0262H18.0272H18.0282H18.0291H18.0301H18.0311H18.032H18.033H18.034H18.0349H18.0359H18.0368H18.0378H18.0387H18.0397H18.0406H18.0416H18.0425H18.0435H18.0444H18.0454H18.0463H18.0472H18.0482H18.0491H18.0501H18.051H18.0519H18.0528H18.0538H18.0547H18.0556H18.0566H18.0575H18.0584H18.0593H18.0602H18.0611H18.0621H18.063H18.0639H18.0648H18.0657H18.0666H18.0675H18.0684H18.0693H18.0702H18.0711H18.072H18.0729H18.0738H18.0747H18.0756H18.0765H18.0774H18.0783H18.0792H18.0801H18.0809H18.0818H18.0827H18.0836H18.0845H18.0854H18.0862H18.0871H18.088H18.0889H18.0897H18.0906H18.0915H18.0923H18.0932H18.0941H18.0949H18.0958H18.0967H18.0975H18.0984H18.0993H18.1001H18.101H18.1018H18.1027H18.1035H18.1044H18.1052H18.1061H18.1069H18.1078H18.1086H18.1095H18.1103H18.1112H18.112H18.1128H18.1137H18.1145H18.1154H18.1162H18.117H18.1179H18.1187H18.1195H18.1204H18.1212H18.122H18.1228H18.1237H18.1245H18.1253H18.1261H18.127H18.1278H18.1286H18.1294H18.1302H18.1311H18.1319H18.1327H18.1335H18.1343H18.1351H18.1359H18.1367H18.1376H18.1384H18.1392H18.14H18.1408H18.1416H18.1424H18.1432H18.144H18.1448H18.1456H18.1464H18.1472H18.148H18.1488H18.1496H18.1504H18.1512H18.152H18.1528H18.1535H18.1543H18.1551H18.1559H18.1567H18.1575H18.1583H18.1591H18.1598H18.1606H18.1614H18.1622H18.163H18.1638H18.1645H18.1653H18.1661H18.1669H18.1676H18.1684H18.1692H18.17H18.1707H18.1715H18.1723H18.1731H18.1738H18.1746H18.1754H18.1761H18.1769H18.1777H18.1785H18.1792H18.18H18.1807H18.1815H18.1823H18.183H18.1838H18.1846H18.1853H18.1861H18.1868H18.1876H18.1884H18.1891H18.1899H18.1906H18.1914H18.1921H18.1929H18.1937H18.1944H18.1952H18.1959H18.1967H18.1974H18.1982H18.1989H18.1997H18.2004H18.2012H18.2019H18.2027H18.2034H18.2042H18.2049H18.2057H18.2064H18.2072H18.2079H18.2086H18.2094H18.2101H18.2109H18.2116H18.2124H18.2131H18.2138H18.2146H18.2153H18.2161H18.2168H18.2175H18.2183H18.219H18.2198H18.2205H18.2212H18.222H18.2227H18.2235H18.2242H18.2249H18.2257H18.2264H18.2271H18.2279H18.2286H18.2293H18.2301H18.2308H18.2315H18.2323H18.233H18.2337H18.2345H18.2352H18.2359H18.2367H18.2374H18.2381H18.2389H18.2396H18.2403H18.2411H18.2418H18.2425H18.2432H18.244H18.2447H18.2454H18.2462H18.2469H18.2476H18.2483H18.2491H18.2498H18.2505H18.2513H18.252H18.2527H18.2534H18.2542H18.2549H18.2556H18.2564H18.2571H18.2578H18.2585H18.2593H18.26H18.2607H18.2614H18.2622H18.2629H18.2636H18.2643H18.2651H18.2658H18.2665H18.2673C18.3346 7.32938 18.4148 7.36121 18.4905 7.45065C18.5686 7.54298 18.6155 7.66911 18.6155 7.78652C18.6155 7.8145 18.6119 7.83363 18.5809 7.92515C18.5798 7.92841 18.5787 7.93177 18.5775 7.93522C18.5458 8.02859 18.4915 8.18861 18.4915 8.39721C18.4915 8.8753 18.6569 9.41719 19.1838 9.78304C19.2926 9.87891 19.3984 9.93077 19.4559 9.95899C19.4587 9.96036 19.4614 9.96167 19.4639 9.96293C19.4978 9.97959 19.5072 9.98461 19.5141 9.98888C19.5148 9.98928 19.5152 9.98959 19.5156 9.98982L19.5603 10.0338L19.6152 10.0662C19.8268 10.1913 19.906 10.3262 19.9306 10.4353C19.9508 10.5248 19.9457 10.648 19.8775 10.8031C19.7803 10.8716 19.7227 10.9534 19.6972 10.9912C19.645 11.0682 19.6455 11.0726 19.6437 11.0753C19.643 11.0762 19.6421 11.077 19.6389 11.0802L19.6021 11.1164L19.5731 11.1591C19.2059 11.7016 19.2059 12.421 19.5731 12.9635ZM19.6972 13.0399C19.697 13.0396 19.697 13.0396 19.6972 13.0398L19.6972 13.0399ZM19.9246 13.8739C19.9245 13.8737 19.9256 13.8716 19.928 13.868C19.9259 13.8723 19.9247 13.8741 19.9246 13.8739Z" stroke="#0D1E3F" stroke-width="1.03992"/>
<path d="M15.701 9.30101L9.71072 15.0999C9.50765 15.2999 9.20306 15.2999 9 15.0999C8.89847 14.9999 8.89847 14.7 9 14.5L14.9903 8.60114C15.1934 8.40118 15.498 8.40118 15.701 8.60114C15.9041 8.80111 15.9041 9.10105 15.701 9.30101Z" fill="#0D1E3F"/>
<path d="M10.4135 10.4555C10.9245 10.4555 11.3387 10.0413 11.3387 9.53047C11.3387 9.01961 10.9245 8.60547 10.4135 8.60547C9.90252 8.60547 9.48828 9.01961 9.48828 9.53047C9.48828 10.0413 9.90252 10.4555 10.4135 10.4555Z" fill="#0D1E3F"/>
<path d="M14.3574 14.7733C14.8683 14.7733 15.2826 14.3592 15.2826 13.8483C15.2826 13.3375 14.8683 12.9233 14.3574 12.9233C13.8464 12.9233 13.4321 13.3375 13.4321 13.8483C13.4321 14.3592 13.8464 14.7733 14.3574 14.7733Z" fill="#0D1E3F"/>
</g>
<defs>
<clipPath id="clip0_3694_22370">
<rect width="16" height="16" fill="white" transform="translate(4.5 4)"/>
</clipPath>
</defs>
</svg>
