<svg width="149" height="148" viewBox="0 0 149 148" fill="none" xmlns="http://www.w3.org/2000/svg">
<circle cx="74.5" cy="74" r="74" fill="url(#paint0_linear_3684_2420)"/>
<g clip-path="url(#clip0_3684_2420)">
<path fill-rule="evenodd" clip-rule="evenodd" d="M86.7842 62.6523L87.3074 67.1106L83.5831 64.4427L82.2416 66.6719L86.4889 68.4994L82.2416 70.3269L83.5831 72.556L87.3074 69.8881L86.7842 74.3464H89.3913L88.8716 69.8881L92.5941 72.556L93.9357 70.3269L89.69 68.4994L93.9357 66.6719L92.5941 64.4427L88.8716 67.1106L89.3913 62.6523H86.7842ZM71.1965 62.6523L71.7179 67.1106L67.9937 64.4427L66.6522 66.6719L70.8978 68.4994L66.6522 70.3269L67.9937 72.556L71.7179 69.8881L71.1965 74.3464H73.8019L73.2822 69.8881L77.0047 72.556L78.3462 70.3269L74.1006 68.4994L78.3462 66.6719L77.0047 64.4427L73.2822 67.1106L73.8019 62.6523H71.1965ZM55.6068 62.6529L56.1282 67.1112L52.404 64.4433L51.0625 66.6725L55.3081 68.5L51.0625 70.3275L52.404 72.5566L56.1282 69.8887L55.6068 74.347H58.2122L57.6925 69.8887L61.415 72.5566L62.7565 70.3275L58.5109 68.5L62.7565 66.6725L61.415 64.4433L57.6925 67.1112L58.2122 62.6529H55.6068Z" fill="#004C97"/>
</g>
<defs>
<linearGradient id="paint0_linear_3684_2420" x1="74.5" y1="0" x2="74.5" y2="110" gradientUnits="userSpaceOnUse">
<stop stop-color="#DAE7ED" stop-opacity="0.44"/>
<stop offset="1" stop-color="white" stop-opacity="0"/>
</linearGradient>
<clipPath id="clip0_3684_2420">
<rect width="65" height="65" fill="white" transform="translate(40 36)"/>
</clipPath>
</defs>
</svg>
