<svg width="24" height="24" viewBox="0 0 24 24" fill="none" xmlns="http://www.w3.org/2000/svg">
<path fill-rule="evenodd" clip-rule="evenodd" d="M4.32 11.9999C4.32 7.75483 7.75527 4.31995 12 4.31995C16.2451 4.31995 19.68 7.75522 19.68 11.9999C19.68 16.2451 16.2447 19.6799 12 19.6799C7.75488 19.6799 4.32 16.2446 4.32 11.9999ZM5.39163 11.9999C5.39163 15.6438 8.35614 18.6083 12 18.6083C15.6439 18.6083 18.6084 15.6438 18.6084 11.9999C18.6084 8.35606 15.6439 5.39158 12 5.39158C8.35614 5.39158 5.39163 8.35606 5.39163 11.9999Z" fill="#004C97"/>
<path d="M11.7727 14.0377C11.3482 14.0377 11.0044 14.3915 11.0044 14.816C11.0044 15.2306 11.338 15.5945 11.7727 15.5945C12.2074 15.5945 12.5511 15.2306 12.5511 14.816C12.5511 14.3915 12.1973 14.0377 11.7727 14.0377Z" fill="#004C97"/>
<path d="M11.9041 8.14402C10.5394 8.14402 9.91263 8.95279 9.91263 9.49867C9.91263 9.89293 10.2462 10.0749 10.5192 10.0749C11.0651 10.0749 10.8427 9.29647 11.8738 9.29647C12.3793 9.29647 12.7837 9.51889 12.7837 9.98392C12.7837 10.5298 12.2175 10.8432 11.8839 11.1262C11.5907 11.3789 11.2066 11.7934 11.2066 12.6628C11.2066 13.1885 11.3482 13.3401 11.7626 13.3401C12.2579 13.3401 12.359 13.1177 12.359 12.9256C12.359 12.4 12.3692 12.0967 12.9252 11.662C13.1981 11.4497 14.0574 10.7623 14.0574 9.81202C14.0574 8.86177 13.1981 8.14402 11.9041 8.14402Z" fill="#004C97"/>
</svg>
