<svg width="24" height="24" viewBox="0 0 24 24" fill="none" xmlns="http://www.w3.org/2000/svg">
<path d="M12.3572 3.85365C13.4144 3.8655 14.6176 4.14252 15.6813 4.90965C17.5746 6.27514 18.144 9.08922 16.0317 11.0247C15.3085 11.6874 14.5759 12.3396 13.8766 13.0286C13.5032 13.3966 13.2615 13.8252 13.1468 14.3319C13.0962 14.5553 13.0455 14.7789 12.9888 15.0008C12.8297 15.6239 12.3976 15.9481 11.7405 15.9416C11.0974 15.9351 10.5975 15.5681 10.4858 14.964C10.3281 14.1102 10.489 13.2995 10.8979 12.5349C11.1983 11.9732 11.6505 11.541 12.1069 11.114C12.5979 10.6546 13.1049 10.2123 13.595 9.75187C13.9497 9.41847 14.2564 9.04324 14.3696 8.55447C14.5969 7.57365 13.9613 6.53885 12.9712 6.24815C12.3441 6.06406 11.7188 6.08729 11.102 6.27148C10.4576 6.46387 10.1204 6.98589 9.82589 7.53876C9.62464 7.91649 9.49934 8.32613 9.34348 8.72305C8.98628 9.63215 8.05876 9.96671 7.2818 9.47235C6.73741 9.12584 6.52045 8.55244 6.66637 7.81008C6.91813 6.5297 7.63919 5.56767 8.69876 4.83755C9.73269 4.12497 10.8943 3.85654 12.3572 3.85365Z" fill="#00A3E0"/>
<path d="M10.2375 18.5619C10.224 17.6489 10.9226 16.941 11.8463 16.9317C12.7575 16.9227 13.4608 17.6113 13.4685 18.5202C13.4764 19.4411 12.8154 20.1196 11.8848 20.1455C10.9576 20.1714 10.2513 19.4923 10.2375 18.5619Z" fill="#004C97"/>
</svg>
