<svg width="40" height="40" viewBox="0 0 40 40" fill="none" xmlns="http://www.w3.org/2000/svg">
<circle cx="20" cy="20" r="20" fill="white"/>
<path d="M20.3572 11.8536C21.4144 11.8655 22.6176 12.1425 23.6813 12.9096C25.5746 14.2751 26.144 17.0892 24.0317 19.0247C23.3085 19.6874 22.5759 20.3396 21.8766 21.0286C21.5032 21.3966 21.2615 21.8252 21.1468 22.3319C21.0962 22.5553 21.0455 22.7789 20.9888 23.0008C20.8297 23.6239 20.3976 23.9481 19.7405 23.9416C19.0974 23.9351 18.5975 23.5681 18.4858 22.964C18.3281 22.1102 18.489 21.2995 18.8979 20.5349C19.1983 19.9732 19.6505 19.541 20.1069 19.114C20.5979 18.6546 21.1049 18.2123 21.595 17.7519C21.9497 17.4185 22.2564 17.0432 22.3696 16.5545C22.5969 15.5736 21.9613 14.5389 20.9712 14.2482C20.3441 14.0641 19.7188 14.0873 19.102 14.2715C18.4576 14.4639 18.1204 14.9859 17.8259 15.5388C17.6246 15.9165 17.4993 16.3261 17.3435 16.723C16.9863 17.6322 16.0588 17.9667 15.2818 17.4723C14.7374 17.1258 14.5204 16.5524 14.6664 15.8101C14.9181 14.5297 15.6392 13.5677 16.6988 12.8376C17.7327 12.125 18.8943 11.8565 20.3572 11.8536Z" fill="#00A3E0"/>
<path d="M18.2375 26.5619C18.224 25.6489 18.9226 24.941 19.8463 24.9317C20.7575 24.9227 21.4608 25.6113 21.4685 26.5202C21.4764 27.4411 20.8154 28.1196 19.8848 28.1455C18.9576 28.1714 18.2513 27.4923 18.2375 26.5619Z" fill="#004C97"/>
</svg>
