<svg width="60" height="60" viewBox="0 0 60 60" fill="none" xmlns="http://www.w3.org/2000/svg">
<g filter="url(#filter0_d_2780_12798)">
<rect x="10" y="4" width="40" height="40" rx="20" fill="white"/>
<path d="M29.8286 16.1279C26.9212 16.1279 25.5859 17.8509 25.5859 19.0138C25.5859 19.8537 26.2966 20.2414 26.8781 20.2414C28.0411 20.2414 27.5673 18.5831 29.764 18.5831C30.8407 18.5831 31.7022 19.0569 31.7022 20.0476C31.7022 21.2105 30.4962 21.8781 29.7855 22.4811C29.1609 23.0194 28.3426 23.9025 28.3426 25.7546C28.3426 26.8744 28.6441 27.1975 29.527 27.1975C30.5823 27.1975 30.7976 26.7237 30.7976 26.3144C30.7976 25.1946 30.8192 24.5485 32.0037 23.6225C32.5852 23.1702 34.4157 21.7057 34.4157 19.6814C34.4157 17.657 32.5852 16.1279 29.8286 16.1279Z" fill="#28B4F5"/>
<path d="M29.5478 28.6834C28.6433 28.6834 27.911 29.4372 27.911 30.3417C27.911 31.2247 28.6217 32 29.5478 32C30.4738 32 31.206 31.2247 31.206 30.3417C31.206 29.4372 30.4522 28.6834 29.5478 28.6834Z" fill="#28B4F5"/>
<path d="M29.8286 16.1279C26.9212 16.1279 25.5859 17.8509 25.5859 19.0138C25.5859 19.8537 26.2966 20.2414 26.8781 20.2414C28.0411 20.2414 27.5673 18.5831 29.764 18.5831C30.8407 18.5831 31.7022 19.0569 31.7022 20.0476C31.7022 21.2105 30.4962 21.8781 29.7855 22.4811C29.1609 23.0194 28.3426 23.9025 28.3426 25.7546C28.3426 26.8744 28.6441 27.1975 29.527 27.1975C30.5823 27.1975 30.7976 26.7237 30.7976 26.3144C30.7976 25.1946 30.8192 24.5485 32.0037 23.6225C32.5852 23.1702 34.4157 21.7057 34.4157 19.6814C34.4157 17.657 32.5852 16.1279 29.8286 16.1279Z" stroke="white" stroke-width="0.5"/>
<path d="M29.5478 28.6834C28.6433 28.6834 27.911 29.4372 27.911 30.3417C27.911 31.2247 28.6217 32 29.5478 32C30.4738 32 31.206 31.2247 31.206 30.3417C31.206 29.4372 30.4522 28.6834 29.5478 28.6834Z" stroke="white" stroke-width="0.5"/>
</g>
<defs>
<filter id="filter0_d_2780_12798" x="0" y="0" width="60" height="60" filterUnits="userSpaceOnUse" color-interpolation-filters="sRGB">
<feFlood flood-opacity="0" result="BackgroundImageFix"/>
<feColorMatrix in="SourceAlpha" type="matrix" values="0 0 0 0 0 0 0 0 0 0 0 0 0 0 0 0 0 0 127 0" result="hardAlpha"/>
<feOffset dy="6"/>
<feGaussianBlur stdDeviation="5"/>
<feColorMatrix type="matrix" values="0 0 0 0 0.901961 0 0 0 0 0.913725 0 0 0 0 0.937255 0 0 0 1 0"/>
<feBlend mode="normal" in2="BackgroundImageFix" result="effect1_dropShadow_2780_12798"/>
<feBlend mode="normal" in="SourceGraphic" in2="effect1_dropShadow_2780_12798" result="shape"/>
</filter>
</defs>
</svg>
