<svg width="33" height="32" viewBox="0 0 33 32" fill="none" xmlns="http://www.w3.org/2000/svg">
<path d="M21.4714 15.9888C21.4659 13.0725 19.0665 10.6863 16.1494 10.6956C13.2474 10.7048 10.8685 13.0869 10.8635 15.9885C10.8584 18.9016 13.2546 21.3029 16.167 21.3029C19.0795 21.3028 21.477 18.9009 21.4714 15.9888ZM16.1714 5.33905C16.4948 5.33905 16.819 5.32635 17.1415 5.34186C17.751 5.37107 18.1652 5.79689 18.1805 6.40503C18.1907 6.81216 18.1927 7.22003 18.1803 7.62691C18.1712 7.92237 18.2819 8.0927 18.5764 8.1753C19.0609 8.31129 19.5303 8.49824 19.9651 8.75252C20.2589 8.92456 20.4717 8.86713 20.6899 8.62923C20.9489 8.34685 21.2241 8.07877 21.5019 7.81472C21.9725 7.36714 22.5774 7.35578 23.0449 7.79957C23.4963 8.22857 23.9367 8.67016 24.3674 9.11994C24.8091 9.58132 24.7983 10.1979 24.3518 10.6642C24.0703 10.9584 23.7818 11.2465 23.4878 11.5283C23.298 11.71 23.2462 11.8961 23.3801 12.1356C23.6436 12.607 23.8475 13.1052 24 13.6231C24.0761 13.881 24.2357 13.9903 24.5022 13.9844C24.9095 13.9754 25.317 13.9771 25.7242 13.9835C26.3733 13.9938 26.8096 14.4138 26.8237 15.0603C26.837 15.6831 26.8365 16.3065 26.8239 16.9293C26.8105 17.5782 26.3762 18.0012 25.7302 18.0117C25.3229 18.0183 24.9156 18.02 24.5083 18.0109C24.2439 18.005 24.0782 18.1074 24.0017 18.3668C23.8491 18.8845 23.6468 19.3835 23.3832 19.855C23.2505 20.0925 23.2916 20.2799 23.4829 20.4635C23.7769 20.7452 24.065 21.0336 24.3471 21.3273C24.8053 21.8042 24.808 22.4219 24.3475 22.8981C23.9312 23.3287 23.5078 23.7529 23.0767 24.1686C22.5822 24.6454 21.9766 24.6397 21.4806 24.1616C21.1875 23.879 20.9008 23.5892 20.6167 23.2973C20.4419 23.1176 20.2572 23.085 20.0358 23.2084C19.5639 23.4715 19.0666 23.6776 18.5486 23.8291C18.2918 23.9043 18.1754 24.0575 18.1813 24.3261C18.19 24.7332 18.1883 25.1408 18.182 25.5481C18.1717 26.2009 17.7618 26.6359 17.1116 26.6537C16.4772 26.6709 15.8415 26.6714 15.2071 26.6526C14.5796 26.6339 14.1649 26.1948 14.1531 25.5675C14.1455 25.1603 14.1438 24.7526 14.1538 24.3455C14.1604 24.0823 14.0648 23.9102 13.8052 23.8334C13.2757 23.677 12.7679 23.4661 12.2842 23.2005C12.0568 23.0757 11.8791 23.1301 11.7079 23.3083C11.434 23.5932 11.1528 23.8714 10.8698 24.1476C10.3618 24.6438 9.75011 24.65 9.24815 24.1593C8.82831 23.7489 8.41348 23.3334 8.00305 22.9136C7.52358 22.4231 7.52187 21.808 7.99609 21.3185C8.27126 21.0346 8.54887 20.7528 8.83577 20.4809C9.03738 20.2897 9.0887 20.0976 8.94562 19.844C8.68645 19.3843 8.4857 18.8965 8.34005 18.3894C8.26063 18.1128 8.09457 18.0037 7.81439 18.0106C7.40726 18.0208 6.99964 18.0189 6.59238 18.0115C5.96653 18 5.52604 17.5778 5.51126 16.9539C5.4961 16.3193 5.49659 15.6838 5.51065 15.0491C5.52445 14.4217 5.95993 13.9975 6.58505 13.9842C6.99218 13.9756 7.39993 13.974 7.80706 13.9849C8.08577 13.9923 8.2572 13.8895 8.33748 13.6122C8.48448 13.1055 8.68401 12.6173 8.9428 12.1574C9.08454 11.9056 9.04349 11.7122 8.84004 11.5194C8.55315 11.2476 8.27529 10.9658 8.00012 10.6821C7.52456 10.192 7.52273 9.57375 7.9989 9.08634C8.41764 8.65782 8.84029 8.23309 9.27015 7.81594C9.74485 7.35529 10.3609 7.35847 10.8394 7.81936C11.1415 8.11017 11.4359 8.40892 11.7298 8.70804C11.8943 8.87532 12.0705 8.91087 12.2803 8.79687C12.7651 8.53331 13.2717 8.31997 13.801 8.16393C14.0598 8.08769 14.1606 7.91956 14.1538 7.65502C14.1438 7.25998 14.1477 6.86433 14.1524 6.46905C14.1605 5.7804 14.5789 5.35653 15.2729 5.33685C15.5723 5.32842 15.8719 5.33551 16.1714 5.33551V5.33905Z" fill="#00A9E5"/>
<path d="M19.6946 16.0156C19.7018 14.067 18.1428 12.4839 16.2033 12.4702C14.237 12.4564 12.6463 14.0226 12.6398 15.9791C12.6332 17.9278 14.1928 19.5118 16.1308 19.5249C18.0976 19.5382 19.6873 17.9727 19.6946 16.0156ZM21.4712 15.9884C21.4768 18.9005 19.0793 21.3025 16.1668 21.3025C13.2544 21.3025 10.8582 18.9012 10.8633 15.9881C10.8683 13.0865 13.2472 10.7044 16.1492 10.6952C19.0663 10.6859 21.4657 13.0722 21.4712 15.9884Z" fill="#FEFEFD"/>
<path d="M19.695 16.0167C19.6876 17.9738 18.098 19.5392 16.1312 19.5259C14.1932 19.5128 12.6336 17.9288 12.6402 15.9801C12.6466 14.0236 14.2374 12.4574 16.2037 12.4712C18.1432 12.4849 19.7022 14.068 19.695 16.0167Z" fill="#004C97"/>
</svg>
