<svg width="149" height="148" viewBox="0 0 149 148" fill="none" xmlns="http://www.w3.org/2000/svg">
<circle cx="74.5" cy="74" r="74" fill="url(#paint0_linear_6196_17872)"/>
<path d="M75.2621 51.0695C75.8581 51.189 76.4579 51.2917 77.0496 51.4303C81.1115 52.3822 84.5829 56.2601 85.1292 60.4051C85.4888 63.1349 85.0921 65.7149 83.5506 68.0229C81.5027 71.089 78.6696 72.8738 74.9218 73.1273C70.0006 73.46 65.9537 70.5644 64.1168 66.6367C62.3915 62.9472 63.0893 58.0314 65.7946 54.9729C67.4548 53.0957 69.4555 51.8021 71.9322 51.2981C72.3534 51.2122 72.7788 51.1453 73.2018 51.0695H75.2621Z" fill="#004C97"/>
<path d="M74.503 96.9297C70.8612 96.9297 67.2197 96.9297 63.5778 96.9297C61.7334 96.9297 59.9922 96.5591 58.4616 95.4683C56.7085 94.219 55.6719 92.5015 55.489 90.3775C55.1623 86.5847 55.6033 82.8639 57.0262 79.3138C57.88 77.1834 59.1609 75.3511 61.2669 74.234C62.5741 73.5405 63.9757 73.2103 65.4411 73.2422C65.8896 73.252 66.3632 73.4765 66.7712 73.7007C67.4624 74.0806 68.1044 74.5485 68.7777 74.9625C72.6012 77.3148 76.4268 77.3133 80.248 74.9553C80.7048 74.6735 81.1811 74.4113 81.596 74.0754C82.7666 73.1273 84.0755 73.1195 85.4539 73.4097C88.132 73.9739 90.0184 75.5577 91.3187 77.9146C92.6036 80.2434 93.1791 82.7779 93.4354 85.3897C93.5691 86.7531 93.6287 88.1303 93.6107 89.5C93.5595 93.4433 90.7345 96.4694 86.8112 96.8421C86.2481 96.8956 85.6802 96.9248 85.1145 96.926C81.5774 96.9335 78.0401 96.9297 74.503 96.9297Z" fill="#00A3E0"/>
<defs>
<linearGradient id="paint0_linear_6196_17872" x1="74.5" y1="0" x2="74.5" y2="110" gradientUnits="userSpaceOnUse">
<stop stop-color="#DAE7ED" stop-opacity="0.44"/>
<stop offset="1" stop-color="white" stop-opacity="0"/>
</linearGradient>
</defs>
</svg>
