<svg width="25" height="24" viewBox="0 0 25 24" fill="none" xmlns="http://www.w3.org/2000/svg">
<path d="M4.3737 10.9933C4.5032 10.912 5.51791 10.3041 5.92121 10.1197L6.42095 8.91322C6.27247 8.51429 5.9888 7.39519 5.94443 7.20117C5.90336 7.0213 5.95757 6.83295 6.08804 6.70247L6.8695 5.92105C6.99994 5.79058 7.18836 5.73634 7.3682 5.77744C7.51532 5.8111 8.66369 6.09891 9.08024 6.25396L10.2867 5.75422C10.4632 5.36833 11.053 4.37762 11.1604 4.20671C11.2584 4.05044 11.43 3.95557 11.6145 3.95557H12.7197C12.9042 3.95557 13.0758 4.05044 13.1739 4.20671C13.2552 4.33621 13.8631 5.35092 14.0476 5.75422L15.254 6.25396C15.6529 6.10548 16.772 5.82181 16.9661 5.77744C17.1459 5.73637 17.3343 5.79061 17.4648 5.92105L18.2462 6.7025C18.3767 6.83298 18.4309 7.02133 18.3898 7.20121C18.3562 7.34833 18.0683 8.4967 17.9133 8.91325L18.413 10.1197C18.7989 10.2962 19.7896 10.886 19.9606 10.9933C20.1168 11.0914 20.2117 11.263 20.2117 11.4475V12.5527C20.2117 12.7372 20.1168 12.9088 19.9606 13.0069C19.8311 13.0882 18.8163 13.6961 18.413 13.8806L17.9133 15.087C18.0618 15.4859 18.3454 16.605 18.3898 16.799C18.4309 16.9789 18.3767 17.1673 18.2462 17.2977L17.4648 18.0792C17.3343 18.2097 17.1459 18.2639 16.9661 18.2228C16.8189 18.1891 15.6706 17.9013 15.254 17.7463L14.0476 18.246C13.871 18.6319 13.2813 19.6226 13.1739 19.7935C13.0758 19.9498 12.9042 20.0447 12.7197 20.0447H11.6145C11.43 20.0447 11.2584 19.9498 11.1603 19.7935C11.079 19.664 10.4712 18.6493 10.2867 18.246L9.08024 17.7463C8.68131 17.8948 7.56221 18.1784 7.3682 18.2228C7.18826 18.264 6.99994 18.2097 6.8695 18.0792L6.08804 17.2977C5.95757 17.1673 5.90333 16.9789 5.94443 16.799C5.97809 16.6519 6.2659 15.5035 6.42095 15.087L5.92121 13.8806C5.53532 13.704 4.54462 13.1142 4.3737 13.0069C4.21743 12.9088 4.12256 12.7372 4.12256 12.5527V11.4475C4.12256 11.263 4.21743 11.0914 4.3737 10.9933ZM5.1951 12.2504C5.57715 12.4774 6.21311 12.8432 6.4125 12.9259C6.59089 12.9553 6.7482 13.0742 6.82101 13.25L7.50307 14.8966C7.57588 15.0724 7.5487 15.2677 7.44333 15.4146C7.36075 15.6144 7.16978 16.3225 7.06021 16.753L7.41423 17.1071C7.84477 16.9975 8.55292 16.8065 8.75265 16.7239C8.89956 16.6185 9.09489 16.5914 9.27064 16.6642L10.9173 17.3463C11.0931 17.4191 11.2119 17.5764 11.2413 17.7548C11.3241 17.9542 11.6898 18.5901 11.9168 18.9721H12.4175C12.6445 18.5901 13.0102 17.9542 13.093 17.7548C13.1224 17.5763 13.2412 17.4191 13.417 17.3463L15.0637 16.6642C15.2395 16.5914 15.4348 16.6186 15.5817 16.7239C15.7813 16.8065 16.4895 16.9975 16.9201 17.1071L17.2741 16.753C17.1646 16.3225 16.9736 15.6144 16.891 15.4146C16.7857 15.2677 16.7585 15.0724 16.8313 14.8966L17.5133 13.25C17.5862 13.0742 17.7435 12.9553 17.9219 12.9259C18.1211 12.8432 18.757 12.4774 19.1391 12.2504V11.7498C18.757 11.5228 18.1211 11.1571 17.9218 11.0743C17.7433 11.0449 17.5861 10.9261 17.5132 10.7502L16.8312 9.10359C16.7584 8.9278 16.7856 8.73253 16.8909 8.58559C16.9735 8.38586 17.1645 7.67775 17.274 7.24718L16.92 6.89316C16.4895 7.00273 15.7813 7.1937 15.5816 7.27628C15.4347 7.38164 15.2394 7.40882 15.0636 7.33601L13.417 6.65395C13.2412 6.58111 13.1223 6.42384 13.0929 6.24544C13.0102 6.04612 12.6445 5.41025 12.4174 5.02817H11.9168C11.6898 5.41022 11.3241 6.04612 11.2413 6.2455C11.2119 6.42393 11.0931 6.58121 10.9173 6.65402L9.27061 7.33608C9.09482 7.40886 8.89956 7.38174 8.75265 7.27634C8.55301 7.19376 7.84484 7.00283 7.4142 6.89322L7.06018 7.24724C7.16975 7.67778 7.36075 8.38593 7.4433 8.58566C7.54866 8.7326 7.57585 8.92787 7.50304 9.10365L6.82098 10.7503C6.74814 10.9261 6.59086 11.0449 6.41246 11.0744C6.21308 11.1571 5.57718 11.5228 5.19513 11.7498L5.1951 12.2504Z" fill="white"/>
<path d="M12.1671 8.49254C14.101 8.49254 15.6742 10.0658 15.6742 11.9996C15.6742 13.9334 14.101 15.5067 12.1671 15.5067C10.2333 15.5067 8.66007 13.9334 8.66007 11.9996C8.66007 10.0658 10.2333 8.49254 12.1671 8.49254ZM12.1671 14.4341C13.5095 14.4341 14.6016 13.342 14.6016 11.9996C14.6016 10.6572 13.5095 9.56517 12.1671 9.56517C10.8248 9.56517 9.7327 10.6572 9.7327 11.9996C9.7327 13.342 10.8248 14.4341 12.1671 14.4341Z" fill="white"/>
</svg>
