<svg width="149" height="148" viewBox="0 0 149 148" fill="none" xmlns="http://www.w3.org/2000/svg">
<circle cx="74.5" cy="74" r="74" fill="url(#paint0_linear_3638_6186)"/>
<path fill-rule="evenodd" clip-rule="evenodd" d="M98 78.4589C98 85.3955 92.3783 91.0172 85.4418 91.0172C78.5064 91.0172 72.8835 85.3955 72.8835 78.4589C72.8835 71.5235 78.5064 65.9007 85.4418 65.9007C92.3783 65.9007 98 71.5235 98 78.4589Z" stroke="#004C97" stroke-width="1.549"/>
<mask id="mask0_3638_6186" style="mask-type:luminance" maskUnits="userSpaceOnUse" x="80" y="73" width="11" height="12">
<path fill-rule="evenodd" clip-rule="evenodd" d="M89.3914 73.7846L85.6742 77.6023L81.9263 73.7846C81.7658 73.6251 81.5562 73.5454 81.3465 73.5454C81.1368 73.5454 80.9271 73.6251 80.7666 73.7846C80.4477 74.1045 80.4477 74.6232 80.7666 74.9432L84.5155 78.7609L80.7666 82.6365C80.4477 82.9554 80.4477 83.4741 80.7666 83.794C80.9271 83.9556 81.1368 84.0343 81.3465 84.0343C81.5562 84.0343 81.7658 83.9556 81.9263 83.794L85.6742 79.9184L89.3914 83.794C89.5508 83.9556 89.7605 84.0343 89.9702 84.0343C90.1798 84.0343 90.3884 83.9556 90.549 83.794C90.87 83.4741 90.87 82.9554 90.549 82.6365L86.8317 78.7609L90.549 74.9432C90.87 74.6232 90.87 74.1045 90.549 73.7846C90.3895 73.6251 90.1798 73.5443 89.9702 73.5443C89.7605 73.5443 89.5508 73.6251 89.3914 73.7846Z" fill="white"/>
</mask>
<g mask="url(#mask0_3638_6186)">
<path fill-rule="evenodd" clip-rule="evenodd" d="M75.0675 89.4933H96.2495V68.0842H75.0675V89.4933Z" fill="#004C97"/>
</g>
<mask id="mask1_3638_6186" style="mask-type:luminance" maskUnits="userSpaceOnUse" x="46" y="45" width="31" height="32">
<path fill-rule="evenodd" clip-rule="evenodd" d="M46 45.9828H76.3992V76.7107H46V45.9828Z" fill="white"/>
</mask>
<g mask="url(#mask1_3638_6186)">
<path fill-rule="evenodd" clip-rule="evenodd" d="M48.5406 74.7921L63.7121 48.7506L74.9719 67.9669C75.4174 67.5214 75.9001 67.1163 76.3992 66.7308L64.5103 46.4421C64.3432 46.1571 64.0386 45.9824 63.7099 45.9824H63.7088C63.3779 45.9835 63.0732 46.1582 62.9072 46.4443L46.1261 75.2485C45.9591 75.5347 45.958 75.8885 46.1229 76.1768C46.2878 76.4651 46.5935 76.6431 46.9255 76.6441L70.7294 76.7108C70.8047 76.0785 70.9259 75.4615 71.0777 74.8565L48.5406 74.7921Z" fill="#004C97"/>
</g>
<path fill-rule="evenodd" clip-rule="evenodd" d="M63.8418 67.992C63.3296 67.992 62.9136 67.5759 62.9136 67.0637V57.9738C62.9136 57.4605 63.3296 57.0455 63.8418 57.0455C64.354 57.0455 64.77 57.4605 64.77 57.9738V67.0637C64.77 67.5759 64.354 67.992 63.8418 67.992Z" fill="#004C97"/>
<path fill-rule="evenodd" clip-rule="evenodd" d="M63.8418 71.9485C63.3296 71.9485 62.9136 71.5324 62.9136 71.0202V69.8081C62.9136 69.2959 63.3296 68.8799 63.8418 68.8799C64.354 68.8799 64.77 69.2959 64.77 69.8081V71.0202C64.77 71.5324 64.354 71.9485 63.8418 71.9485Z" fill="#004C97"/>
<defs>
<linearGradient id="paint0_linear_3638_6186" x1="74.5" y1="0" x2="74.5" y2="110" gradientUnits="userSpaceOnUse">
<stop stop-color="#DAE7ED" stop-opacity="0.44"/>
<stop offset="1" stop-color="white" stop-opacity="0"/>
</linearGradient>
</defs>
</svg>
