<svg width="149" height="148" viewBox="0 0 149 148" fill="none" xmlns="http://www.w3.org/2000/svg">
<circle cx="74.5" cy="74" r="74" fill="url(#paint0_linear_3643_25280)"/>
<mask id="mask0_3643_25280" style="mask-type:luminance" maskUnits="userSpaceOnUse" x="79" y="68" width="16" height="13">
<path fill-rule="evenodd" clip-rule="evenodd" d="M92.438 68.805L83.7949 77.8437C82.4225 76.8457 81.6099 76.2138 81.3548 75.9481C80.9721 75.5477 80.3521 75.5477 79.9706 75.9481C79.5879 76.3473 79.5879 76.9957 79.9706 77.3949L83.1016 80.0157C83.2929 80.2153 83.5445 80.3157 83.7937 80.3157C84.0453 80.3157 84.2957 80.2153 84.4858 80.0157L93.8222 70.2529C94.2048 69.8526 94.2048 69.2042 93.8222 68.8038C93.632 68.6042 93.3816 68.5038 93.1313 68.5038C92.8809 68.5038 92.6293 68.6042 92.438 68.805Z" fill="white"/>
</mask>
<g mask="url(#mask0_3643_25280)">
<path fill-rule="evenodd" clip-rule="evenodd" d="M73.7773 86.221H100.012V62.5996H73.7773V86.221Z" fill="#004C97"/>
</g>
<mask id="mask1_3643_25280" style="mask-type:luminance" maskUnits="userSpaceOnUse" x="72" y="60" width="30" height="30">
<path fill-rule="evenodd" clip-rule="evenodd" d="M72.8633 60.5034H101.856V89.4973H72.8633V60.5034Z" fill="white"/>
</mask>
<g mask="url(#mask1_3643_25280)">
<path fill-rule="evenodd" clip-rule="evenodd" d="M87.3594 62.3329C80.3746 62.3329 74.6912 68.0162 74.6912 75.001C74.6912 81.9859 80.3746 87.668 87.3594 87.668C94.3442 87.668 100.028 81.9859 100.028 75.001C100.028 68.0162 94.3442 62.3329 87.3594 62.3329ZM87.3597 89.4975C79.3663 89.4975 72.8633 82.9945 72.8633 75.001C72.8633 67.0076 79.3663 60.5034 87.3597 60.5034C95.3532 60.5034 101.856 67.0076 101.856 75.001C101.856 82.9945 95.3532 89.4975 87.3597 89.4975Z" fill="#004C97"/>
</g>
<mask id="mask2_3643_25280" style="mask-type:luminance" maskUnits="userSpaceOnUse" x="43" y="48" width="38" height="27">
<path fill-rule="evenodd" clip-rule="evenodd" d="M43.1406 48.5028H80.8706V74.3269H43.1406V48.5028Z" fill="white"/>
</mask>
<g mask="url(#mask2_3643_25280)">
<path fill-rule="evenodd" clip-rule="evenodd" d="M47.6795 72.5553C46.1535 72.5553 44.9122 71.314 44.9122 69.788V53.0417C44.9122 51.5157 46.1535 50.2744 47.6795 50.2744H76.3322C77.8582 50.2744 79.0995 51.5157 79.0995 53.0417V62.1347C79.6664 61.7674 80.2593 61.4426 80.8711 61.1485V53.0417C80.8711 50.5378 78.8349 48.5028 76.3322 48.5028H47.6795C45.1768 48.5028 43.1406 50.5378 43.1406 53.0417V69.788C43.1406 72.2907 45.1768 74.3269 47.6795 74.3269H71.8288C71.8749 73.7269 71.9493 73.1352 72.0603 72.5553H47.6795Z" fill="#004C97"/>
</g>
<path fill-rule="evenodd" clip-rule="evenodd" d="M68.0619 55.8475H48.7491C48.2601 55.8475 47.8633 55.4507 47.8633 54.9617C47.8633 54.4728 48.2601 54.0759 48.7491 54.0759H68.0619C68.5509 54.0759 68.9477 54.4728 68.9477 54.9617C68.9477 55.4507 68.5509 55.8475 68.0619 55.8475Z" fill="#004C97"/>
<path fill-rule="evenodd" clip-rule="evenodd" d="M56.9563 61.3262H48.7491C48.2601 61.3262 47.8633 60.9293 47.8633 60.4404C47.8633 59.9514 48.2601 59.5546 48.7491 59.5546H56.9563C57.4453 59.5546 57.8421 59.9514 57.8421 60.4404C57.8421 60.9293 57.4453 61.3262 56.9563 61.3262Z" fill="#004C97"/>
<defs>
<linearGradient id="paint0_linear_3643_25280" x1="74.5" y1="0" x2="74.5" y2="110" gradientUnits="userSpaceOnUse">
<stop stop-color="#DAE7ED" stop-opacity="0.44"/>
<stop offset="1" stop-color="white" stop-opacity="0"/>
</linearGradient>
</defs>
</svg>
