<svg width="149" height="148" viewBox="0 0 149 148" fill="none" xmlns="http://www.w3.org/2000/svg">
<circle cx="74.5" cy="74" r="74" fill="url(#paint0_linear_5418_3128)"/>
<path d="M59.67 77.0046C58.0127 76.8772 57.4818 77.4918 57.4865 79.1627C57.4905 80.6751 58.0001 81.2728 59.6185 81.2715C61.2449 81.2702 61.7814 80.7353 61.7814 79.1052C61.7811 77.5034 61.2011 76.875 59.67 77.0046ZM95.6549 68.0877V83.9796C95.6309 84.0316 95.5947 84.0812 95.5845 84.1358C95.1124 86.6451 93.1706 88.3008 90.6386 88.3024C78.9115 88.309 67.1843 88.3103 55.4572 88.3016C52.6167 88.2995 50.4617 86.1335 50.4554 83.2908C50.444 78.3618 50.4517 73.4323 50.4525 68.5033C50.4527 67.9452 50.571 67.8238 51.118 67.8238C65.744 67.823 80.3697 67.8219 94.9954 67.8341C95.2153 67.8344 95.4351 67.9995 95.6549 68.0877Z" fill="#00A3E0"/>
<path d="M95.6538 64.7329C95.434 64.821 95.2139 64.9862 94.994 64.9865C80.3681 64.9986 65.7423 64.9975 51.1166 64.9968C50.5711 64.9968 50.4347 64.8727 50.455 64.3164C50.4959 63.1883 50.421 62.0325 50.6458 60.9397C51.0855 58.8024 53.0525 57.2987 55.236 57.2336C55.383 57.2291 55.5305 57.2288 55.6775 57.2288C67.2576 57.2285 78.8375 57.2283 90.4174 57.2288C93.1716 57.2288 95.0365 58.7496 95.5912 61.4413C95.5994 61.4817 95.6324 61.5168 95.6538 61.5545V64.7329Z" fill="#004C97"/>
<path d="M102.552 82.9586C102.552 76.4344 97.2626 71.1457 90.7387 71.1457C84.2145 71.1457 78.9258 76.4344 78.9258 82.9586C78.9258 89.4828 84.2145 94.7715 90.7387 94.7715C97.2626 94.7715 102.552 89.4828 102.552 82.9586Z" fill="white"/>
<path d="M89.2918 84.4429C88.8685 84.0186 88.4779 83.6243 88.0845 83.2335C87.7472 82.8986 87.425 82.5463 87.063 82.241C86.6442 81.8876 86.1512 81.8412 85.6593 82.0826C84.799 82.5057 84.642 83.5702 85.3345 84.2703C86.3153 85.2615 87.3012 86.2477 88.2953 87.2256C88.4447 87.3726 88.6363 87.5006 88.8324 87.5711C89.3873 87.7714 89.8716 87.6175 90.2832 87.2053C92.2242 85.2631 94.1659 83.3219 96.1066 81.3799C96.1717 81.3144 96.2332 81.2445 96.2905 81.1722C96.7776 80.5573 96.5942 79.6026 95.9152 79.2128C95.3439 78.8848 94.7148 78.9827 94.2134 79.4838C92.6203 81.0754 91.0282 82.6682 89.4367 84.2616C89.3892 84.3094 89.3517 84.3674 89.2918 84.4429ZM91.291 92.3932H90.1801C89.8629 92.3536 89.5438 92.3248 89.2287 92.2721C87.2485 91.9411 85.5229 91.0893 84.1029 89.6698C81.973 87.541 81.0354 84.9535 81.3077 81.9576C81.4906 79.9462 82.2775 78.1688 83.6223 76.6583C85.4081 74.6525 87.6554 73.5718 90.3371 73.4412C92.2073 73.3502 93.9656 73.7864 95.5661 74.7628C98.0269 76.2638 99.5372 78.4385 100.068 81.2791C100.135 81.6345 100.168 81.9963 100.216 82.3555V83.4665C100.201 83.6 100.186 83.733 100.171 83.8663C99.9438 85.9067 99.1648 87.7067 97.7897 89.2328C96.3295 90.8534 94.5206 91.8649 92.3685 92.2459C92.0117 92.309 91.6502 92.3449 91.291 92.3932Z" fill="#004C97"/>
<defs>
<linearGradient id="paint0_linear_5418_3128" x1="74.5" y1="0" x2="74.5" y2="110" gradientUnits="userSpaceOnUse">
<stop stop-color="#DAE7ED" stop-opacity="0.44"/>
<stop offset="1" stop-color="white" stop-opacity="0"/>
</linearGradient>
</defs>
</svg>
