<svg width="149" height="148" viewBox="0 0 149 148" fill="none" xmlns="http://www.w3.org/2000/svg">
<circle cx="74.5" cy="74" r="74" fill="url(#paint0_linear_5441_18449)"/>
<path d="M51.0378 68.2359C50.4644 68.2359 50.3406 68.3631 50.3406 68.9478C50.3395 74.1116 50.3315 79.276 50.3433 84.4398C50.348 86.5517 51.4879 88.3023 53.2097 89.1455L73.3696 68.2362C65.9257 68.2351 58.4816 68.2356 51.0378 68.2359Z" fill="#00A3E0"/>
<path d="M92.4411 89.6903C95.0938 89.6889 97.128 87.9543 97.6229 85.3254C97.6337 85.2682 97.6713 85.216 97.6964 85.1615V68.5128C97.4661 68.4202 97.2361 68.2471 97.0058 68.2468C93.6056 68.2441 90.2056 68.2441 86.8054 68.2424L66.1233 89.6933C74.8958 89.6958 83.6686 89.6955 92.4411 89.6903Z" fill="#00A3E0"/>
<path d="M55.8155 57.1365C55.6613 57.1365 55.5073 57.1367 55.3533 57.1414C53.0655 57.2097 51.0048 58.785 50.5442 61.0241C50.3086 62.169 50.3871 63.3799 50.3443 64.5618C50.323 65.1446 50.4659 65.2748 51.0374 65.2748C59.4336 65.275 67.8301 65.275 76.2267 65.2734L84.0719 57.1365C74.653 57.1365 65.2341 57.1365 55.8155 57.1365Z" fill="#004C97"/>
<path d="M97.0051 65.2643C97.2354 65.264 97.466 65.0909 97.6963 64.9986V61.6688C97.6739 61.6293 97.6396 61.5925 97.6308 61.5502C97.3767 60.3166 96.86 59.3178 96.1174 58.5846L89.6738 65.2676C92.1175 65.2662 94.5615 65.2662 97.0051 65.2643Z" fill="#004C97"/>
<path d="M97.8595 49.8061C96.8151 48.7993 95.1527 48.8294 94.1458 49.8739L87.1443 57.1358L79.3005 65.2713L76.441 68.237L55.7578 89.689L51.1392 94.4793C50.1326 95.5235 50.1627 97.1862 51.2069 98.193C51.7167 98.6846 52.3736 98.9287 53.0297 98.9287C53.7178 98.9287 54.4053 98.6597 54.9207 98.1253L63.0521 89.6917L83.7344 68.2403L86.6002 65.268L94.1657 57.4214L97.9273 53.5199C98.9342 52.4757 98.9038 50.813 97.8595 49.8061Z" fill="#004C97"/>
<defs>
<linearGradient id="paint0_linear_5441_18449" x1="74.5" y1="0" x2="74.5" y2="110" gradientUnits="userSpaceOnUse">
<stop stop-color="#DAE7ED" stop-opacity="0.44"/>
<stop offset="1" stop-color="white" stop-opacity="0"/>
</linearGradient>
</defs>
</svg>
