<svg width="237" height="360" viewBox="0 0 237 360" fill="none" xmlns="http://www.w3.org/2000/svg">
<path d="M193.981 4.32939C182.154 9.87676 20.4792 98.1554 20.4792 98.1554L12.1183 102.808C5.33367 108.441 3.56786 111.964 2.70312 118.554V159.624C5.4892 172.57 13.938 176.461 25.3692 179.364C29.422 179.858 34.3009 179.622 38.9026 178.373L91.161 159.318C96.6954 158.708 102.288 158.859 105.806 160.133C117.77 164.467 123.252 169.612 124.348 180.832V538.739C125.665 548.183 131.605 553.909 135.786 555.963C146.92 561.432 152.983 561.721 165.032 557.439L225.464 527.282C232.59 521.88 235.115 518.563 236.282 509.805C236.282 509.805 236.369 27.6111 236.126 22.3913C235.883 17.1716 234.15 13.5536 232.002 10.9443C230.627 9.27568 228.445 7.07173 225.612 5.39125C218.572 1.21567 210.391 -0.678818 201.06 1.56403C198.658 2.19733 196.471 3.16196 193.981 4.32939Z" fill="#00428D"/>
</svg>
