<svg width="40" height="40" viewBox="0 0 40 40" fill="none" xmlns="http://www.w3.org/2000/svg">
<path d="M20.6688 6.04271C21.3604 6.20479 22.0801 6.29732 22.7307 6.56062C25.3646 7.62648 26.9549 9.58295 27.4606 12.3887C27.5432 12.8469 27.5663 13.3137 27.5716 13.7793C27.5821 14.6968 27.5821 16.0257 27.5805 16.9046C27.5797 17.4083 27.1713 17.8149 26.6674 17.8149H24.7061C24.2005 17.8149 23.7912 17.4072 23.793 16.9017C23.7959 15.9674 23.7975 14.5195 23.7834 13.5531C23.752 11.4024 21.9797 9.73909 19.8367 9.81861C17.8818 9.89122 16.2627 11.4997 16.2206 13.4641C16.1988 14.4782 16.2009 16.0204 16.2049 16.9731C16.207 17.4432 15.8266 17.8252 15.3565 17.8252H13.2643C12.7973 17.8252 12.4181 17.4506 12.416 16.9834C12.4123 16.0951 12.4095 14.697 12.4248 13.7646C12.4783 10.4727 13.9898 8.08415 16.9686 6.68287C17.633 6.37026 18.3999 6.27532 19.1202 6.08222C19.2232 6.05443 19.3302 6.04078 19.4346 6.01877C19.852 6.0268 20.2515 6.03467 20.6688 6.04271Z" fill="#004C97"/>
<path d="M27.456 16.928C22.4833 16.9253 17.5107 16.925 12.5381 16.9282C10.28 16.9296 8.63516 18.5741 8.63242 20.8308C8.62857 23.9092 8.62873 26.9875 8.63548 30.0659C8.63612 30.379 8.66006 30.6998 8.72913 31.0042C9.13363 32.7847 10.6242 33.9711 12.4691 33.977C14.9751 33.9855 17.4811 33.9791 19.9873 33.9791C22.4835 33.9793 24.9796 33.983 27.476 33.9782C29.715 33.974 31.3629 32.3282 31.3664 30.0903C31.3712 27.0021 31.3707 23.9139 31.3666 20.8257C31.3635 18.5712 29.7158 16.9292 27.456 16.928Z" fill="#00A9E5"/>
<path d="M15.7378 24.4466V23.4325C15.7378 23.2265 15.8639 23.0345 16.0734 22.9211L20.9426 20.2859C21.4424 20.0156 22.1076 20.3129 22.1012 20.8039L22.1007 29.0514C22.0981 29.2559 21.9709 29.4461 21.7619 29.5578L20.2098 30.3301C19.7129 30.596 19.0546 30.3035 19.0546 29.817V25.1062C19.0546 24.6591 18.4894 24.3626 17.9945 24.55L16.798 25.0027C16.3029 25.19 15.7378 24.8937 15.7378 24.4466Z" fill="white"/>
</svg>
