<svg width="40" height="40" viewBox="0 0 40 40" fill="none" xmlns="http://www.w3.org/2000/svg">
<path fill-rule="evenodd" clip-rule="evenodd" d="M17.0943 16.0355C14.3426 13.2837 9.86536 13.2837 7.11362 16.0355C4.36187 18.7872 4.36187 23.2645 7.11362 26.0162C9.86536 28.768 14.3426 28.768 17.0943 26.0162C18.4831 24.6274 19.1686 22.7995 19.1557 20.9754L30.3546 20.9754L30.3546 24.842C30.3546 25.3005 30.7263 25.6722 31.1848 25.6722C31.4144 25.6722 31.6216 25.5794 31.7719 25.4291C31.9222 25.2788 32.015 25.0716 32.015 24.842V20.9754L34.1203 20.9754C34.3499 20.9754 34.5571 20.8826 34.7074 20.7323C34.8577 20.582 34.9505 20.3748 34.9505 20.1452C34.9505 19.6867 34.5788 19.315 34.1203 19.315L18.9408 19.315C18.6422 18.113 18.0322 16.9734 17.0943 16.0355ZM15.9199 17.2097C18.0241 19.3139 18.0241 22.7378 15.9199 24.842C13.8157 26.9462 10.3917 26.9462 8.28756 24.842C6.18339 22.7378 6.18339 19.3139 8.28756 17.2097C10.3917 15.1055 13.8157 15.1055 15.9199 17.2097Z" fill="#919394"/>
</svg>
