<svg width="40" height="40" viewBox="0 0 40 40" fill="none" xmlns="http://www.w3.org/2000/svg">
<path fill-rule="evenodd" clip-rule="evenodd" d="M17.0942 16.0355C14.3425 13.2837 9.86524 13.2837 7.11349 16.0355C4.36175 18.7872 4.36175 23.2645 7.11349 26.0162C9.86524 28.768 14.3425 28.768 17.0942 26.0162C18.483 24.6274 19.1685 22.7995 19.1555 20.9754L30.3545 20.9754L30.3545 24.842C30.3545 25.3005 30.7261 25.6722 31.1847 25.6722C31.4142 25.6722 31.6215 25.5794 31.7718 25.4291C31.9221 25.2788 32.0148 25.0716 32.0148 24.842V20.9754L34.1202 20.9754C34.3497 20.9754 34.557 20.8826 34.7073 20.7323C34.8576 20.582 34.9503 20.3748 34.9503 20.1452C34.9503 19.6867 34.5787 19.315 34.1202 19.315L18.9407 19.315C18.6421 18.113 18.0321 16.9734 17.0942 16.0355ZM15.9198 17.2097C18.0239 19.3139 18.0239 22.7378 15.9198 24.842C13.8156 26.9462 10.3916 26.9462 8.28744 24.842C6.18326 22.7378 6.18326 19.3139 8.28744 17.2097C10.3916 15.1055 13.8156 15.1055 15.9198 17.2097Z" fill="#004C97"/>
</svg>
