<svg width="33" height="32" viewBox="0 0 33 32" fill="none" xmlns="http://www.w3.org/2000/svg">
<path d="M21.4714 15.9887C21.4659 13.0724 19.0665 10.6862 16.1494 10.6954C13.2474 10.7047 10.8685 13.0868 10.8635 15.9884C10.8584 18.9015 13.2546 21.3028 16.167 21.3028C19.0795 21.3026 21.477 18.9008 21.4714 15.9887ZM16.1714 5.33893C16.4948 5.33893 16.819 5.32622 17.1415 5.34174C17.751 5.37094 18.1652 5.79677 18.1805 6.40491C18.1907 6.81204 18.1927 7.2199 18.1803 7.62679C18.1712 7.92225 18.2819 8.09258 18.5764 8.17517C19.0609 8.31117 19.5303 8.49812 19.9651 8.7524C20.2589 8.92444 20.4717 8.86701 20.6899 8.62911C20.9489 8.34673 21.2241 8.07865 21.5019 7.8146C21.9725 7.36702 22.5774 7.35566 23.0449 7.79945C23.4963 8.22845 23.9367 8.67004 24.3674 9.11982C24.8091 9.5812 24.7983 10.1978 24.3518 10.664C24.0703 10.9583 23.7818 11.2464 23.4878 11.5282C23.298 11.7099 23.2462 11.8959 23.3801 12.1354C23.6436 12.6068 23.8475 13.1051 24 13.623C24.0761 13.8809 24.2357 13.9901 24.5022 13.9843C24.9095 13.9752 25.317 13.9769 25.7242 13.9834C26.3733 13.9937 26.8096 14.4136 26.8237 15.0601C26.837 15.6829 26.8365 16.3063 26.8239 16.9291C26.8105 17.5781 26.3762 18.0011 25.7302 18.0116C25.3229 18.0182 24.9156 18.0199 24.5083 18.0108C24.2439 18.0049 24.0782 18.1073 24.0017 18.3667C23.8491 18.8844 23.6468 19.3834 23.3832 19.8548C23.2505 20.0924 23.2916 20.2798 23.4829 20.4633C23.7769 20.7451 24.065 21.0335 24.3471 21.3272C24.8053 21.8041 24.808 22.4218 24.3475 22.8979C23.9312 23.3285 23.5078 23.7528 23.0767 24.1685C22.5822 24.6452 21.9766 24.6396 21.4806 24.1615C21.1875 23.8789 20.9008 23.589 20.6167 23.2971C20.4419 23.1175 20.2572 23.0849 20.0358 23.2083C19.5639 23.4714 19.0666 23.6775 18.5486 23.829C18.2918 23.9042 18.1754 24.0574 18.1813 24.326C18.19 24.7331 18.1883 25.1407 18.182 25.548C18.1717 26.2008 17.7618 26.6358 17.1116 26.6535C16.4772 26.6708 15.8415 26.6713 15.2071 26.6524C14.5796 26.6337 14.1649 26.1947 14.1531 25.5674C14.1455 25.1601 14.1438 24.7525 14.1538 24.3454C14.1604 24.0822 14.0648 23.91 13.8052 23.8333C13.2757 23.6769 12.7679 23.466 12.2842 23.2004C12.0568 23.0756 11.8791 23.13 11.7079 23.3081C11.434 23.5931 11.1528 23.8713 10.8698 24.1474C10.3618 24.6437 9.75011 24.6499 9.24815 24.1592C8.82831 23.7487 8.41348 23.3333 8.00305 22.9135C7.52358 22.423 7.52187 21.8079 7.99609 21.3184C8.27126 21.0344 8.54887 20.7527 8.83577 20.4808C9.03738 20.2896 9.0887 20.0975 8.94562 19.8438C8.68645 19.3842 8.4857 18.8964 8.34005 18.3893C8.26063 18.1127 8.09457 18.0035 7.81439 18.0105C7.40726 18.0207 6.99964 18.0188 6.59238 18.0114C5.96653 17.9999 5.52604 17.5777 5.51126 16.9538C5.4961 16.3192 5.49659 15.6837 5.51065 15.049C5.52445 14.4216 5.95993 13.9973 6.58505 13.984C6.99218 13.9755 7.39993 13.9739 7.80706 13.9848C8.08577 13.9922 8.2572 13.8893 8.33748 13.6121C8.48448 13.1054 8.68401 12.6172 8.9428 12.1573C9.08454 11.9055 9.04349 11.7121 8.84004 11.5192C8.55315 11.2475 8.27529 10.9657 8.00012 10.682C7.52456 10.1919 7.52273 9.57363 7.9989 9.08622C8.41764 8.6577 8.84029 8.23297 9.27015 7.81582C9.74485 7.35517 10.3609 7.35835 10.8394 7.81924C11.1415 8.11005 11.4359 8.4088 11.7298 8.70792C11.8943 8.87519 12.0705 8.91075 12.2803 8.79675C12.7651 8.53319 13.2717 8.31985 13.801 8.16381C14.0598 8.08757 14.1606 7.91944 14.1538 7.6549C14.1438 7.25986 14.1477 6.86421 14.1524 6.46893C14.1605 5.78028 14.5789 5.3564 15.2729 5.33673C15.5723 5.3283 15.8719 5.33539 16.1714 5.33539V5.33893Z" fill="#B7B7B7"/>
<path d="M19.6946 16.0159C19.7018 14.0672 18.1428 12.4841 16.2033 12.4704C14.237 12.4566 12.6463 14.0229 12.6398 15.9793C12.6332 17.928 14.1928 19.5121 16.1308 19.5251C18.0976 19.5385 19.6873 17.973 19.6946 16.0159ZM21.4712 15.9886C21.4768 18.9007 19.0793 21.3027 16.1668 21.3027C13.2544 21.3027 10.8582 18.9015 10.8633 15.9884C10.8683 13.0868 13.2472 10.7047 16.1492 10.6954C19.0663 10.6861 21.4657 13.0725 21.4712 15.9886Z" fill="#FEFEFD"/>
<path d="M19.695 16.0165C19.6876 17.9736 18.098 19.5391 16.1312 19.5258C14.1932 19.5127 12.6336 17.9287 12.6402 15.98C12.6466 14.0235 14.2374 12.4573 16.2037 12.4711C18.1432 12.4848 19.7022 14.0679 19.695 16.0165Z" fill="#B7B7B7"/>
</svg>
