<svg width="40" height="40" viewBox="0 0 40 40" fill="none" xmlns="http://www.w3.org/2000/svg">
<rect x="4.63266" y="10.3768" width="28.1813" height="17.9693" rx="1.76747" stroke="#004C97" stroke-width="1.17831"/>
<path fill-rule="evenodd" clip-rule="evenodd" d="M18.537 16.8428C18.5371 17.2077 18.2273 17.5174 17.8624 17.5174L9.82434 17.5173C9.6179 17.5174 9.48815 17.4406 9.35857 17.311C9.22883 17.1813 9.17858 17.0252 9.15213 16.8451C9.15213 16.4801 9.46186 16.1704 9.82679 16.1704H17.8647C18.2273 16.1681 18.5394 16.4802 18.537 16.8428Z" fill="#004C97"/>
<path fill-rule="evenodd" clip-rule="evenodd" d="M20.8183 22.6231L9.82235 22.6233C9.61607 22.6233 9.48633 22.5464 9.35659 22.4167C9.227 22.2871 9.17675 22.131 9.15015 21.9511C9.15035 21.586 9.45992 21.2764 9.82483 21.2764H20.8206C21.1855 21.2764 21.4952 21.5862 21.4953 21.9511C21.4953 22.3111 21.2096 22.5967 20.8183 22.6231Z" fill="#004C97"/>
<path d="M5.95864 34.6795L35.3182 5.31989" stroke="#004C97" stroke-width="1.17831" stroke-linecap="round"/>
</svg>
