<svg width="40" height="40" viewBox="0 0 40 40" fill="none" xmlns="http://www.w3.org/2000/svg">
<path d="M5.33602 16.3973C4.97765 16.3973 4.90024 16.4768 4.90024 16.8423C4.89955 20.0696 4.89454 23.2974 4.90197 26.5248C4.90491 27.8447 5.61732 28.9388 6.69346 29.4658L19.2934 16.3975C14.641 16.3968 9.98841 16.3972 5.33602 16.3973Z" fill="#00A3E0"/>
<path d="M31.2133 29.8067C32.8712 29.8059 34.1426 28.7218 34.4519 27.0787C34.4586 27.0429 34.4821 27.0103 34.4979 26.9762V16.5708C34.3539 16.5129 34.2102 16.4047 34.0662 16.4046C31.9411 16.4028 29.8161 16.4028 27.6909 16.4018L14.7646 29.8086C20.2475 29.8102 25.7305 29.81 31.2133 29.8067Z" fill="#00A3E0"/>
<path d="M8.32214 9.46035C8.22573 9.46035 8.12948 9.46053 8.03324 9.46346C6.6034 9.50614 5.31542 10.4907 5.02755 11.8901C4.88033 12.6057 4.9294 13.3625 4.90262 14.1012C4.88931 14.4654 4.97865 14.5468 5.3358 14.5468C10.5835 14.547 15.8313 14.547 21.0791 14.5459L25.9824 9.46035C20.0956 9.46035 14.2088 9.46035 8.32214 9.46035Z" fill="#004C97"/>
<path d="M34.0655 14.5399C34.2094 14.5397 34.3535 14.4316 34.4974 14.3739V12.2928C34.4834 12.2681 34.462 12.2451 34.4565 12.2187C34.2977 11.4477 33.9747 10.8234 33.5106 10.3651L29.4834 14.542C31.0107 14.5411 32.5382 14.5411 34.0655 14.5399Z" fill="#004C97"/>
<path d="M34.5994 4.87897C33.9466 4.24966 32.9076 4.2685 32.2783 4.9213L27.9024 9.45999L23 14.5447L21.2128 16.3982L8.28586 29.8057L5.39922 32.7997C4.77009 33.4523 4.78892 34.4915 5.44155 35.1208C5.76018 35.428 6.17073 35.5806 6.58076 35.5806C7.01084 35.5806 7.44057 35.4124 7.76265 35.0784L12.8448 29.8075L25.7712 16.4003L27.5624 14.5426L32.2908 9.63848L34.6418 7.20006C35.2711 6.54743 35.2521 5.50827 34.5994 4.87897Z" fill="#004C97"/>
</svg>
