<svg width="40" height="40" viewBox="0 0 40 40" fill="none" xmlns="http://www.w3.org/2000/svg">
<rect x="4.63261" y="10.3768" width="28.1813" height="17.9693" rx="1.76747" stroke="#919394" stroke-width="1.17831"/>
<path fill-rule="evenodd" clip-rule="evenodd" d="M18.5368 16.8428C18.5368 17.2077 18.2271 17.5174 17.8621 17.5174L9.82406 17.5173C9.61763 17.5174 9.48788 17.4406 9.35829 17.311C9.22855 17.1813 9.17831 17.0252 9.15186 16.8451C9.15186 16.4801 9.46159 16.1704 9.82651 16.1704H17.8644C18.227 16.1681 18.5391 16.4802 18.5368 16.8428Z" fill="#919394"/>
<path fill-rule="evenodd" clip-rule="evenodd" d="M20.818 22.6231L9.82211 22.6233C9.61583 22.6233 9.48609 22.5464 9.35635 22.4167C9.22675 22.2871 9.1765 22.131 9.1499 21.9511C9.15011 21.586 9.45968 21.2764 9.82459 21.2764H20.8203C21.1852 21.2764 21.495 21.5862 21.495 21.9511C21.495 22.3111 21.2094 22.5967 20.818 22.6231Z" fill="#919394"/>
<path d="M5.95856 34.6795L35.3182 5.31989" stroke="#919394" stroke-width="1.17831" stroke-linecap="round"/>
</svg>
