<svg width="32" height="32" viewBox="0 0 32 32" fill="none" xmlns="http://www.w3.org/2000/svg">
<path d="M4.35254 15.8646C4.45768 15.4419 4.73734 15.1402 5.03568 14.8425C7.85375 12.0314 10.6664 9.21479 13.4826 6.40165C14.6644 5.2211 16.4057 4.99428 17.8222 5.8474C18.0787 6.00191 18.3128 6.20485 18.5276 6.41553C19.3505 7.22235 20.1613 8.04145 20.9768 8.85561C20.9873 8.86615 21.0012 8.87322 21.0339 8.89617C21.0414 8.82972 21.0526 8.77502 21.0529 8.72018C21.0547 8.32591 21.0442 7.93124 21.057 7.5375C21.0786 6.87744 21.5098 6.35068 22.1129 6.22606C22.712 6.10224 23.3344 6.39311 23.5825 6.9571C23.6796 7.17805 23.7208 7.43956 23.7235 7.68347C23.7372 8.92672 23.7263 10.1702 23.7358 11.4136C23.7367 11.5256 23.7935 11.665 23.8721 11.7445C24.9701 12.8553 26.0781 13.9562 27.18 15.0631C27.7603 15.6459 27.803 16.4098 27.2961 16.9779C26.8402 17.4888 26.0463 17.5624 25.5066 17.1403C25.4056 17.061 25.3125 16.9708 25.2215 16.8798C22.3794 14.0389 19.5381 11.1975 16.6967 8.35606C16.1939 7.85318 15.8051 7.85465 15.2985 8.36127C12.4408 11.2186 9.58335 14.0761 6.72498 16.9329C6.19648 17.4611 5.56804 17.5645 4.99391 17.2215C4.64821 17.0151 4.47542 16.6849 4.35254 16.3196V15.8646Z" fill="#B7B7B7"/>
<path d="M24.4226 18.1016C24.4238 17.8142 24.326 17.5968 24.1256 17.3969C21.6029 14.8807 19.0845 12.3605 16.5645 9.84167C16.1665 9.44393 15.8325 9.44513 15.4323 9.84514C12.9123 12.3639 10.3939 14.8842 7.87105 17.4001C7.66958 17.601 7.57658 17.82 7.57765 18.1063C7.58498 19.9105 7.58085 22.3483 7.58232 24.1526C7.58245 24.2962 7.58125 24.4421 7.60433 24.583C7.8078 25.8339 8.7718 26.6549 10.056 26.6626C11.1023 26.669 12.1488 26.6657 13.1951 26.6643V22.5244C13.1951 21.396 14.1099 20.4813 15.2384 20.4813H16.762C17.8904 20.4813 18.8051 21.396 18.8051 22.5244V26.6645C19.8529 26.6659 20.9007 26.6698 21.9484 26.6625C23.3895 26.6522 24.4162 25.6131 24.4182 24.1706C24.4209 22.3588 24.4151 19.9134 24.4226 18.1016Z" fill="#B7B7B7"/>
</svg>
