<svg width="25" height="24" viewBox="0 0 25 24" fill="none" xmlns="http://www.w3.org/2000/svg">
<path d="M12.7829 4.00203C12.674 4.01368 12.5712 4.05836 12.4884 4.13003L5.02267 10.5286C4.92497 10.633 4.8622 10.7652 4.84309 10.9069C4.82398 11.0486 4.84947 11.1927 4.91603 11.3192C4.96559 11.3751 5.02616 11.4201 5.09395 11.4515C5.16173 11.4829 5.23527 11.4999 5.30995 11.5015C5.38463 11.5031 5.45883 11.4893 5.52791 11.4609C5.59699 11.4324 5.65946 11.3901 5.71138 11.3364L12.8331 5.23152L19.9549 11.3364C20.0031 11.3876 20.0617 11.4281 20.1268 11.455C20.1918 11.4819 20.2618 11.4947 20.3322 11.4926C20.4026 11.4904 20.4717 11.4734 20.535 11.4426C20.5982 11.4117 20.6543 11.3678 20.6993 11.3137C20.747 11.2587 20.7834 11.1948 20.8064 11.1257C20.8294 11.0566 20.8386 10.9836 20.8335 10.911C20.8283 10.8384 20.8088 10.7674 20.7763 10.7023C20.7437 10.6372 20.6986 10.5791 20.6436 10.5314L13.1778 4.13276C13.1239 4.08595 13.0612 4.0503 12.9935 4.02786C12.9257 4.00542 12.8541 3.99663 12.7829 4.00203ZM7.49474 10.7447C7.35413 10.7515 7.22137 10.8115 7.12337 10.9126C7.02538 11.0136 6.96948 11.1481 6.96703 11.2889V19.4654C6.97231 19.6051 7.03018 19.7377 7.12906 19.8366C7.22793 19.9355 7.36051 19.9933 7.50025 19.9986H18.1646C18.3044 19.9933 18.4369 19.9355 18.5358 19.8366C18.6347 19.7377 18.6926 19.6051 18.6978 19.4654V11.2903C18.6978 11.1489 18.6417 11.0132 18.5417 10.9132C18.4417 10.8132 18.306 10.757 18.1646 10.757C18.0232 10.757 17.8876 10.8132 17.7876 10.9132C17.6876 11.0132 17.6314 11.1489 17.6314 11.2903V18.9335H8.03347V11.2903C8.03087 11.1477 7.97345 11.0116 7.87312 10.9102C7.7728 10.8089 7.63729 10.7501 7.49474 10.746V10.7447Z" fill="#0D1E3F"/>
</svg>
