<svg width="40" height="40" viewBox="0 0 40 40" fill="none" xmlns="http://www.w3.org/2000/svg">
<path d="M10.7186 20.5925C9.70972 20.5149 9.38658 20.8891 9.38932 21.9064C9.39191 22.8269 9.7021 23.1907 10.6872 23.1899C11.6774 23.189 12.004 22.8634 12.0038 21.8712C12.0038 20.8961 11.6507 20.5135 10.7186 20.5925ZM32.6241 15.1644V24.8384C32.6096 24.8701 32.5875 24.9004 32.5813 24.9336C32.2938 26.4611 31.1117 27.4689 29.5705 27.4698C22.4317 27.4739 15.2928 27.4747 8.15404 27.4694C6.42499 27.468 5.11323 26.1497 5.10927 24.4191C5.10226 21.4185 5.10698 18.4179 5.10759 15.4173C5.10759 15.0777 5.17965 15.0037 5.51285 15.0037C14.4161 15.0032 23.3194 15.0026 32.2226 15.0099C32.3565 15.0101 32.4903 15.1108 32.6241 15.1644Z" fill="#00A3E0"/>
<path d="M32.6239 13.1222C32.4901 13.176 32.3562 13.2766 32.2223 13.2766C23.3189 13.284 14.4156 13.2834 5.51235 13.283C5.18022 13.283 5.09734 13.2074 5.10953 12.8687C5.13452 12.1821 5.08897 11.4782 5.22578 10.8132C5.49331 9.51207 6.6908 8.59673 8.02008 8.55697C8.10951 8.55438 8.1991 8.55423 8.28868 8.55423C15.3379 8.55408 22.3871 8.55392 29.4363 8.55423C31.113 8.55423 32.2482 9.47992 32.5858 11.1186C32.591 11.1432 32.6109 11.1645 32.6239 11.1873V13.1222Z" fill="#004C97"/>
<path d="M36.8224 24.2171C36.8224 20.2456 33.6029 17.0261 29.6313 17.0261C25.6598 17.0261 22.4404 20.2456 22.4404 24.2171C22.4404 28.1887 25.6598 31.4082 29.6313 31.4082C33.6029 31.4082 36.8224 28.1887 36.8224 24.2171Z" fill="white"/>
<path d="M29.9675 29.9604H29.2912C29.098 29.9362 28.9039 29.9187 28.7121 29.8867C27.5067 29.6851 26.4562 29.1665 25.5918 28.3025C24.2953 27.0066 23.7245 25.4316 23.8903 23.6078C24.0017 22.3835 24.4807 21.3013 25.2993 20.3819C26.3865 19.1609 27.7543 18.503 29.3869 18.4235C30.5253 18.3682 31.5957 18.6336 32.57 19.2281C34.0679 20.1418 34.9872 21.4656 35.3107 23.1948C35.3512 23.4113 35.3712 23.6314 35.4007 23.85V24.5265C35.3914 24.6075 35.3821 24.6886 35.373 24.7698C35.2348 26.0119 34.7605 27.1076 33.9235 28.0367C33.0347 29.023 31.9336 29.6387 30.6234 29.8707C30.4063 29.9091 30.1863 29.931 29.9675 29.9604Z" fill="#004C97"/>
<path d="M30.9624 24.1685C30.9418 23.4695 30.3778 22.918 29.6982 22.9324C28.998 22.9471 28.4379 23.5233 28.4579 24.208C28.4783 24.9113 29.0539 25.4667 29.7378 25.4433C30.4337 25.4195 30.9824 24.8482 30.9624 24.1685ZM32.6566 22.1669C32.6627 22.2676 32.6305 22.3638 32.5693 22.4506C32.5397 22.4927 32.5079 22.5333 32.4763 22.574C32.2342 22.8877 32.237 22.8863 32.3957 23.257C32.4221 23.3184 32.4602 23.33 32.5112 23.3367C32.6439 23.3541 32.7769 23.3691 32.9095 23.3867C33.1986 23.4246 33.3595 23.6045 33.3626 23.8961C33.3647 24.0921 33.3649 24.288 33.3626 24.4838C33.3594 24.7562 33.2157 24.9276 32.9491 24.9806C32.9137 24.9874 32.8776 24.9899 32.8417 24.9935C32.4273 25.0357 32.4296 25.0367 32.2675 25.4191C32.2403 25.4832 32.2513 25.5239 32.2905 25.5717C32.3752 25.6755 32.4591 25.78 32.54 25.8868C32.711 26.1126 32.702 26.3566 32.5098 26.559C32.368 26.7084 32.2219 26.8545 32.0706 26.9945C31.8733 27.1775 31.6382 27.1857 31.4246 27.025C31.3177 26.9444 31.2094 26.8646 31.1093 26.7759C31.0439 26.7179 30.9913 26.738 30.9159 26.7544C30.6039 26.8227 30.525 27.0293 30.5113 27.3186C30.4936 27.6926 30.3157 27.8409 29.9467 27.8415C29.7663 27.8418 29.5857 27.8435 29.4053 27.8409C29.1456 27.8375 28.9679 27.6888 28.9175 27.4345C28.9085 27.3893 28.9075 27.3425 28.9023 27.2965C28.8558 26.8865 28.8549 26.8887 28.4704 26.7404C28.4094 26.717 28.3732 26.7352 28.3316 26.7678C28.2222 26.8538 28.1146 26.9421 28.0028 27.0249C27.7858 27.1856 27.5501 27.1793 27.3556 26.9976C27.1938 26.8466 27.0384 26.6877 26.8886 26.5244C26.727 26.3481 26.7194 26.127 26.8557 25.9294C26.879 25.8956 26.9007 25.8581 26.9313 25.8319C27.1662 25.6296 27.2063 25.4057 27.0355 25.1377C26.995 25.0741 26.9651 25.0348 26.8905 25.0277C26.7471 25.0138 26.6025 25.0028 26.4614 24.9756C26.2008 24.9251 26.0614 24.7521 26.0582 24.4873C26.0556 24.2862 26.0554 24.0852 26.0582 23.8841C26.0618 23.6129 26.2262 23.4278 26.4934 23.3888C26.5087 23.3867 26.5242 23.3845 26.5396 23.3853C26.8516 23.4025 27.0791 23.3074 27.1487 22.9637C27.1638 22.8897 27.1697 22.8435 27.1205 22.7859C27.0335 22.6842 26.9512 22.5781 26.8717 22.4704C26.7107 22.2522 26.7215 22.0237 26.9077 21.8251C27.0486 21.6747 27.1946 21.5284 27.3451 21.3876C27.5486 21.1972 27.7819 21.1881 28.0039 21.352C28.0287 21.3704 28.0575 21.3861 28.0764 21.4096C28.2773 21.6605 28.5066 21.6654 28.7691 21.5069C28.8298 21.4704 28.8648 21.4411 28.8707 21.3726C28.8813 21.2495 28.8951 21.1265 28.9087 21.0037C28.9411 20.7072 29.1249 20.5381 29.4201 20.5358C29.6264 20.5342 29.8327 20.5326 30.0388 20.5368C30.2698 20.5413 30.4426 20.6783 30.4898 20.9054C30.521 21.056 30.5334 21.2109 30.5485 21.3645C30.5559 21.4394 30.5942 21.4689 30.6577 21.5097C30.9316 21.6853 31.1408 21.6148 31.3681 21.4053C31.643 21.1517 31.8662 21.1795 32.137 21.4443C32.2586 21.5633 32.3793 21.6832 32.4999 21.8031C32.599 21.9015 32.6593 22.0173 32.6566 22.1669Z" fill="#FEFEFD"/>
</svg>
