<svg width="40" height="40" viewBox="0 0 40 40" fill="none" xmlns="http://www.w3.org/2000/svg">
<path d="M18.159 23.0676C18.2395 23.0171 18.8702 22.6392 19.1209 22.5246L19.4315 21.7747C19.3392 21.5268 19.1629 20.8312 19.1353 20.7106C19.1098 20.5988 19.1435 20.4818 19.2246 20.4007L19.7103 19.915C19.7913 19.8339 19.9084 19.8002 20.0202 19.8257C20.1117 19.8466 20.8254 20.0255 21.0843 20.1219L21.8342 19.8113C21.9439 19.5714 22.3105 18.9557 22.3772 18.8495C22.4381 18.7523 22.5448 18.6934 22.6595 18.6934H23.3464C23.4611 18.6934 23.5677 18.7523 23.6287 18.8495C23.6792 18.9299 24.057 19.5606 24.1717 19.8113L24.9215 20.1219C25.1695 20.0296 25.8651 19.8533 25.9856 19.8257C26.0974 19.8002 26.2145 19.8339 26.2956 19.915L26.7813 20.4007C26.8624 20.4818 26.8961 20.5989 26.8706 20.7106C26.8496 20.8021 26.6708 21.5158 26.5744 21.7748L26.885 22.5246C27.1248 22.6343 27.7406 23.0009 27.8468 23.0676C27.944 23.1286 28.0029 23.2352 28.0029 23.3499V24.0368C28.0029 24.1515 27.944 24.2581 27.8468 24.3191C27.7663 24.3696 27.1357 24.7475 26.885 24.8621L26.5744 25.612C26.6667 25.8599 26.843 26.5555 26.8706 26.6761C26.8961 26.7879 26.8624 26.9049 26.7813 26.986L26.2956 27.4717C26.2145 27.5528 26.0974 27.5866 25.9856 27.561C25.8942 27.5401 25.1804 27.3612 24.9215 27.2648L24.1717 27.5754C24.062 27.8153 23.6954 28.431 23.6287 28.5373C23.5677 28.6344 23.4611 28.6934 23.3464 28.6934H22.6595C22.5448 28.6934 22.4381 28.6344 22.3772 28.5373C22.3266 28.4568 21.9488 27.8261 21.8342 27.5754L21.0843 27.2648C20.8364 27.3571 20.1408 27.5334 20.0202 27.561C19.9084 27.5866 19.7913 27.5528 19.7103 27.4717L19.2246 26.986C19.1435 26.9049 19.1097 26.7879 19.1353 26.6761C19.1562 26.5846 19.3351 25.8709 19.4315 25.612L19.1209 24.8621C18.881 24.7524 18.2653 24.3858 18.159 24.3191C18.0619 24.2581 18.0029 24.1515 18.0029 24.0368V23.3499C18.0029 23.2352 18.0619 23.1286 18.159 23.0676ZM18.6696 23.8489C18.907 23.99 19.3023 24.2173 19.4262 24.2688C19.5371 24.287 19.6349 24.3609 19.6801 24.4702L20.104 25.4936C20.1493 25.6029 20.1324 25.7243 20.0669 25.8156C20.0156 25.9397 19.8969 26.3799 19.8288 26.6475L20.0488 26.8675C20.3164 26.7994 20.7566 26.6807 20.8807 26.6294C20.972 26.5639 21.0934 26.547 21.2027 26.5923L22.2261 27.0162C22.3354 27.0615 22.4092 27.1592 22.4275 27.2701C22.4789 27.394 22.7063 27.7893 22.8474 28.0267H23.1585C23.2996 27.7893 23.5269 27.394 23.5784 27.2701C23.5966 27.1592 23.6705 27.0614 23.7798 27.0162L24.8033 26.5923C24.9125 26.547 25.0339 26.5639 25.1252 26.6294C25.2493 26.6807 25.6894 26.7994 25.9571 26.8675L26.1771 26.6475C26.109 26.3799 25.9903 25.9397 25.939 25.8156C25.8735 25.7243 25.8566 25.6029 25.9019 25.4936L26.3258 24.4702C26.3711 24.3609 26.4688 24.2871 26.5797 24.2688C26.7036 24.2174 27.0988 23.99 27.3363 23.8489V23.5378C27.0988 23.3967 26.7036 23.1694 26.5796 23.1179C26.4688 23.0997 26.371 23.0258 26.3257 22.9165L25.9018 21.8931C25.8566 21.7838 25.8735 21.6624 25.9389 21.5711C25.9903 21.447 26.109 21.0068 26.1771 20.7392L25.957 20.5192C25.6894 20.5873 25.2493 20.706 25.1252 20.7573C25.0338 20.8228 24.9125 20.8397 24.8032 20.7944L23.7797 20.3705C23.6705 20.3252 23.5966 20.2275 23.5783 20.1166C23.5269 19.9927 23.2996 19.5975 23.1585 19.36H22.8473C22.7063 19.5975 22.4789 19.9927 22.4275 20.1166C22.4092 20.2275 22.3354 20.3253 22.2261 20.3706L21.2026 20.7945C21.0934 20.8397 20.972 20.8229 20.8807 20.7573C20.7566 20.706 20.3165 20.5873 20.0488 20.5192L19.8288 20.7393C19.8969 21.0069 20.0156 21.447 20.0669 21.5711C20.1324 21.6625 20.1493 21.7838 20.104 21.8931L19.6801 22.9166C19.6348 23.0258 19.5371 23.0997 19.4262 23.118C19.3023 23.1694 18.907 23.3967 18.6696 23.5378L18.6696 23.8489Z" fill="#919394"/>
<path d="M23.0029 21.5133C24.2049 21.5133 25.1827 22.4911 25.1827 23.693C25.1827 24.895 24.2049 25.8728 23.0029 25.8728C21.801 25.8728 20.8232 24.895 20.8232 23.693C20.8232 22.4911 21.801 21.5133 23.0029 21.5133ZM23.0029 25.2062C23.8373 25.2062 24.516 24.5274 24.516 23.693C24.516 22.8587 23.8373 22.1799 23.0029 22.1799C22.1686 22.1799 21.4898 22.8587 21.4898 23.693C21.4898 24.5274 22.1686 25.2062 23.0029 25.2062Z" fill="#919394"/>
<path d="M18.159 23.0676C18.2395 23.0171 18.8702 22.6392 19.1209 22.5246L19.4315 21.7747C19.3392 21.5268 19.1629 20.8312 19.1353 20.7106C19.1098 20.5988 19.1435 20.4818 19.2246 20.4007L19.7103 19.915C19.7913 19.8339 19.9084 19.8002 20.0202 19.8257C20.1117 19.8466 20.8254 20.0255 21.0843 20.1219L21.8342 19.8113C21.9439 19.5714 22.3105 18.9557 22.3772 18.8495C22.4381 18.7523 22.5448 18.6934 22.6595 18.6934H23.3464C23.4611 18.6934 23.5677 18.7523 23.6287 18.8495C23.6792 18.9299 24.057 19.5606 24.1717 19.8113L24.9215 20.1219C25.1695 20.0296 25.8651 19.8533 25.9856 19.8257C26.0974 19.8002 26.2145 19.8339 26.2956 19.915L26.7813 20.4007C26.8624 20.4818 26.8961 20.5989 26.8706 20.7106C26.8496 20.8021 26.6708 21.5158 26.5744 21.7748L26.885 22.5246C27.1248 22.6343 27.7406 23.0009 27.8468 23.0676C27.944 23.1286 28.0029 23.2352 28.0029 23.3499V24.0368C28.0029 24.1515 27.944 24.2581 27.8468 24.3191C27.7663 24.3696 27.1357 24.7475 26.885 24.8621L26.5744 25.612C26.6667 25.8599 26.843 26.5555 26.8706 26.6761C26.8961 26.7879 26.8624 26.9049 26.7813 26.986L26.2956 27.4717C26.2145 27.5528 26.0974 27.5866 25.9856 27.561C25.8942 27.5401 25.1804 27.3612 24.9215 27.2648L24.1717 27.5754C24.062 27.8153 23.6954 28.431 23.6287 28.5373C23.5677 28.6344 23.4611 28.6934 23.3464 28.6934H22.6595C22.5448 28.6934 22.4381 28.6344 22.3772 28.5373C22.3266 28.4568 21.9488 27.8261 21.8342 27.5754L21.0843 27.2648C20.8364 27.3571 20.1408 27.5334 20.0202 27.561C19.9084 27.5866 19.7913 27.5528 19.7103 27.4717L19.2246 26.986C19.1435 26.9049 19.1097 26.7879 19.1353 26.6761C19.1562 26.5846 19.3351 25.8709 19.4315 25.612L19.1209 24.8621C18.881 24.7524 18.2653 24.3858 18.159 24.3191C18.0619 24.2581 18.0029 24.1515 18.0029 24.0368V23.3499C18.0029 23.2352 18.0619 23.1286 18.159 23.0676ZM18.6696 23.8489C18.907 23.99 19.3023 24.2173 19.4262 24.2688C19.5371 24.287 19.6349 24.3609 19.6801 24.4702L20.104 25.4936C20.1493 25.6029 20.1324 25.7243 20.0669 25.8156C20.0156 25.9397 19.8969 26.3799 19.8288 26.6475L20.0488 26.8675C20.3164 26.7994 20.7566 26.6807 20.8807 26.6294C20.972 26.5639 21.0934 26.547 21.2027 26.5923L22.2261 27.0162C22.3354 27.0615 22.4092 27.1592 22.4275 27.2701C22.4789 27.394 22.7063 27.7893 22.8474 28.0267H23.1585C23.2996 27.7893 23.5269 27.394 23.5784 27.2701C23.5966 27.1592 23.6705 27.0614 23.7798 27.0162L24.8033 26.5923C24.9125 26.547 25.0339 26.5639 25.1252 26.6294C25.2493 26.6807 25.6894 26.7994 25.9571 26.8675L26.1771 26.6475C26.109 26.3799 25.9903 25.9397 25.939 25.8156C25.8735 25.7243 25.8566 25.6029 25.9019 25.4936L26.3258 24.4702C26.3711 24.3609 26.4688 24.2871 26.5797 24.2688C26.7036 24.2174 27.0988 23.99 27.3363 23.8489V23.5378C27.0988 23.3967 26.7036 23.1694 26.5796 23.1179C26.4688 23.0997 26.371 23.0258 26.3257 22.9165L25.9018 21.8931C25.8566 21.7838 25.8735 21.6624 25.9389 21.5711C25.9903 21.447 26.109 21.0068 26.1771 20.7392L25.957 20.5192C25.6894 20.5873 25.2493 20.706 25.1252 20.7573C25.0338 20.8228 24.9125 20.8397 24.8032 20.7944L23.7797 20.3705C23.6705 20.3252 23.5966 20.2275 23.5783 20.1166C23.5269 19.9927 23.2996 19.5975 23.1585 19.36H22.8473C22.7063 19.5975 22.4789 19.9927 22.4275 20.1166C22.4092 20.2275 22.3354 20.3253 22.2261 20.3706L21.2026 20.7945C21.0934 20.8397 20.972 20.8229 20.8807 20.7573C20.7566 20.706 20.3165 20.5873 20.0488 20.5192L19.8288 20.7393C19.8969 21.0069 20.0156 21.447 20.0669 21.5711C20.1324 21.6625 20.1493 21.7838 20.104 21.8931L19.6801 22.9166C19.6348 23.0258 19.5371 23.0997 19.4262 23.118C19.3023 23.1694 18.907 23.3967 18.6696 23.5378L18.6696 23.8489Z" stroke="#919394" stroke-width="0.25"/>
<path d="M23.0029 21.5133C24.2049 21.5133 25.1827 22.4911 25.1827 23.693C25.1827 24.895 24.2049 25.8728 23.0029 25.8728C21.801 25.8728 20.8232 24.895 20.8232 23.693C20.8232 22.4911 21.801 21.5133 23.0029 21.5133ZM23.0029 25.2062C23.8373 25.2062 24.516 24.5274 24.516 23.693C24.516 22.8587 23.8373 22.1799 23.0029 22.1799C22.1686 22.1799 21.4898 22.8587 21.4898 23.693C21.4898 24.5274 22.1686 25.2062 23.0029 25.2062Z" stroke="#919394" stroke-width="0.25"/>
<path fill-rule="evenodd" clip-rule="evenodd" d="M33.3285 15.1648H30.0723V10.6336C30.0723 9.18145 28.8738 8 27.4007 8H6.6715C5.19844 8 4 9.18151 4 10.6337V22.4504C4 23.9025 5.19844 25.084 6.6715 25.084H9.92787V29.6154C9.92787 31.0676 11.1263 32.2491 12.5994 32.2491H33.3285C34.8016 32.2491 36 31.0676 36 29.6154V17.7985C36 16.3463 34.8016 15.1648 33.3285 15.1648ZM5.52686 10.6337C5.52686 10.0113 6.04048 9.505 6.67179 9.505H27.401C28.0324 9.505 28.546 10.0113 28.546 10.6337V11.6843H5.52686V10.6337ZM9.92817 17.7985V23.579H6.67179C6.04048 23.579 5.52686 23.0727 5.52686 22.4503V16.6744H10.1844C10.0203 17.0155 9.92817 17.3966 9.92817 17.7985ZM5.52686 15.1696V13.1893H28.546V15.1649H12.5997C12.548 15.1649 12.4969 15.1667 12.446 15.1696H5.52686ZM33.3286 30.7442H12.5995C11.9682 30.7442 11.4546 30.2379 11.4546 29.6155V17.7985C11.4546 17.2072 11.9185 16.7216 12.5061 16.6745H29.3089C29.3371 16.6745 29.3648 16.6728 29.3921 16.6698H33.3286C33.9599 16.6698 34.4736 17.1761 34.4736 17.7985V29.6155C34.4736 30.2379 33.96 30.7442 33.3286 30.7442Z" fill="#919394" stroke="white" stroke-width="0.6"/>
</svg>
