<svg width="40" height="40" viewBox="0 0 40 40" fill="none" xmlns="http://www.w3.org/2000/svg">
<path d="M18.1589 23.0676C18.2394 23.0171 18.87 22.6392 19.1207 22.5246L19.4313 21.7747C19.339 21.5268 19.1627 20.8312 19.1351 20.7106C19.1096 20.5988 19.1433 20.4818 19.2244 20.4007L19.7101 19.915C19.7912 19.8339 19.9083 19.8002 20.0201 19.8257C20.1115 19.8466 20.8253 20.0255 21.0842 20.1219L21.834 19.8113C21.9437 19.5714 22.3103 18.9557 22.377 18.8495C22.438 18.7523 22.5446 18.6934 22.6593 18.6934H23.3462C23.4609 18.6934 23.5676 18.7523 23.6285 18.8495C23.6791 18.9299 24.0569 19.5606 24.1715 19.8113L24.9214 20.1219C25.1693 20.0296 25.8649 19.8533 25.9855 19.8257C26.0973 19.8002 26.2144 19.8339 26.2954 19.915L26.7811 20.4007C26.8622 20.4818 26.896 20.5989 26.8704 20.7106C26.8495 20.8021 26.6706 21.5158 26.5742 21.7748L26.8848 22.5246C27.1247 22.6343 27.7404 23.0009 27.8467 23.0676C27.9438 23.1286 28.0028 23.2352 28.0028 23.3499V24.0368C28.0028 24.1515 27.9438 24.2581 27.8467 24.3191C27.7662 24.3696 27.1355 24.7475 26.8848 24.8621L26.5742 25.612C26.6665 25.8599 26.8428 26.5555 26.8704 26.6761C26.8959 26.7879 26.8622 26.9049 26.7811 26.986L26.2954 27.4717C26.2144 27.5528 26.0972 27.5866 25.9855 27.561C25.894 27.5401 25.1803 27.3612 24.9214 27.2648L24.1715 27.5754C24.0618 27.8153 23.6953 28.431 23.6285 28.5373C23.5676 28.6344 23.4609 28.6934 23.3462 28.6934H22.6593C22.5446 28.6934 22.438 28.6344 22.377 28.5373C22.3265 28.4568 21.9487 27.8261 21.834 27.5754L21.0842 27.2648C20.8362 27.3571 20.1406 27.5334 20.0201 27.561C19.9082 27.5866 19.7912 27.5528 19.7101 27.4717L19.2244 26.986C19.1433 26.9049 19.1096 26.7879 19.1351 26.6761C19.1561 26.5846 19.3349 25.8709 19.4313 25.612L19.1207 24.8621C18.8809 24.7524 18.2651 24.3858 18.1589 24.3191C18.0617 24.2581 18.0028 24.1515 18.0028 24.0368V23.3499C18.0028 23.2352 18.0617 23.1286 18.1589 23.0676ZM18.6694 23.8489C18.9069 23.99 19.3021 24.2173 19.4261 24.2688C19.5369 24.287 19.6347 24.3609 19.68 24.4702L20.1039 25.4936C20.1491 25.6029 20.1322 25.7243 20.0668 25.8156C20.0154 25.9397 19.8967 26.3799 19.8286 26.6475L20.0487 26.8675C20.3163 26.7994 20.7564 26.6807 20.8805 26.6294C20.9719 26.5639 21.0933 26.547 21.2025 26.5923L22.226 27.0162C22.3352 27.0615 22.4091 27.1592 22.4274 27.2701C22.4788 27.394 22.7061 27.7893 22.8472 28.0267H23.1584C23.2995 27.7893 23.5268 27.394 23.5782 27.2701C23.5965 27.1592 23.6703 27.0614 23.7796 27.0162L24.8031 26.5923C24.9124 26.547 25.0337 26.5639 25.125 26.6294C25.2491 26.6807 25.6893 26.7994 25.9569 26.8675L26.177 26.6475C26.1089 26.3799 25.9902 25.9397 25.9388 25.8156C25.8734 25.7243 25.8565 25.6029 25.9017 25.4936L26.3256 24.4702C26.3709 24.3609 26.4687 24.2871 26.5795 24.2688C26.7034 24.2174 27.0986 23.99 27.3361 23.8489V23.5378C27.0986 23.3967 26.7034 23.1694 26.5795 23.1179C26.4686 23.0997 26.3708 23.0258 26.3256 22.9165L25.9017 21.8931C25.8564 21.7838 25.8733 21.6624 25.9388 21.5711C25.9901 21.447 26.1088 21.0068 26.1769 20.7392L25.9569 20.5192C25.6893 20.5873 25.2491 20.706 25.125 20.7573C25.0337 20.8228 24.9123 20.8397 24.803 20.7944L23.7796 20.3705C23.6703 20.3252 23.5965 20.2275 23.5782 20.1166C23.5268 19.9927 23.2994 19.5975 23.1584 19.36H22.8472C22.7061 19.5975 22.4788 19.9927 22.4273 20.1166C22.4091 20.2275 22.3352 20.3253 22.2259 20.3706L21.2025 20.7945C21.0932 20.8397 20.9719 20.8229 20.8805 20.7573C20.7565 20.706 20.3163 20.5873 20.0486 20.5192L19.8286 20.7393C19.8967 21.0069 20.0154 21.447 20.0667 21.5711C20.1322 21.6625 20.1491 21.7838 20.1039 21.8931L19.6799 22.9166C19.6347 23.0258 19.5369 23.0997 19.426 23.118C19.3021 23.1694 18.9069 23.3967 18.6694 23.5378L18.6694 23.8489Z" fill="#004C97"/>
<path d="M23.0028 21.5133C24.2047 21.5133 25.1826 22.4911 25.1826 23.693C25.1826 24.895 24.2047 25.8728 23.0028 25.8728C21.8009 25.8728 20.823 24.895 20.823 23.693C20.823 22.4911 21.8009 21.5133 23.0028 21.5133ZM23.0028 25.2062C23.8371 25.2062 24.5159 24.5274 24.5159 23.693C24.5159 22.8587 23.8371 22.1799 23.0028 22.1799C22.1684 22.1799 21.4897 22.8587 21.4897 23.693C21.4897 24.5274 22.1684 25.2062 23.0028 25.2062Z" fill="#004C97"/>
<path d="M18.1589 23.0676C18.2394 23.0171 18.87 22.6392 19.1207 22.5246L19.4313 21.7747C19.339 21.5268 19.1627 20.8312 19.1351 20.7106C19.1096 20.5988 19.1433 20.4818 19.2244 20.4007L19.7101 19.915C19.7912 19.8339 19.9083 19.8002 20.0201 19.8257C20.1115 19.8466 20.8253 20.0255 21.0842 20.1219L21.834 19.8113C21.9437 19.5714 22.3103 18.9557 22.377 18.8495C22.438 18.7523 22.5446 18.6934 22.6593 18.6934H23.3462C23.4609 18.6934 23.5676 18.7523 23.6285 18.8495C23.6791 18.9299 24.0569 19.5606 24.1715 19.8113L24.9214 20.1219C25.1693 20.0296 25.8649 19.8533 25.9855 19.8257C26.0973 19.8002 26.2144 19.8339 26.2954 19.915L26.7811 20.4007C26.8622 20.4818 26.896 20.5989 26.8704 20.7106C26.8495 20.8021 26.6706 21.5158 26.5742 21.7748L26.8848 22.5246C27.1247 22.6343 27.7404 23.0009 27.8467 23.0676C27.9438 23.1286 28.0028 23.2352 28.0028 23.3499V24.0368C28.0028 24.1515 27.9438 24.2581 27.8467 24.3191C27.7662 24.3696 27.1355 24.7475 26.8848 24.8621L26.5742 25.612C26.6665 25.8599 26.8428 26.5555 26.8704 26.6761C26.8959 26.7879 26.8622 26.9049 26.7811 26.986L26.2954 27.4717C26.2144 27.5528 26.0972 27.5866 25.9855 27.561C25.894 27.5401 25.1803 27.3612 24.9214 27.2648L24.1715 27.5754C24.0618 27.8153 23.6953 28.431 23.6285 28.5373C23.5676 28.6344 23.4609 28.6934 23.3462 28.6934H22.6593C22.5446 28.6934 22.438 28.6344 22.377 28.5373C22.3265 28.4568 21.9487 27.8261 21.834 27.5754L21.0842 27.2648C20.8362 27.3571 20.1406 27.5334 20.0201 27.561C19.9082 27.5866 19.7912 27.5528 19.7101 27.4717L19.2244 26.986C19.1433 26.9049 19.1096 26.7879 19.1351 26.6761C19.1561 26.5846 19.3349 25.8709 19.4313 25.612L19.1207 24.8621C18.8809 24.7524 18.2651 24.3858 18.1589 24.3191C18.0617 24.2581 18.0028 24.1515 18.0028 24.0368V23.3499C18.0028 23.2352 18.0617 23.1286 18.1589 23.0676ZM18.6694 23.8489C18.9069 23.99 19.3021 24.2173 19.4261 24.2688C19.5369 24.287 19.6347 24.3609 19.68 24.4702L20.1039 25.4936C20.1491 25.6029 20.1322 25.7243 20.0668 25.8156C20.0154 25.9397 19.8967 26.3799 19.8286 26.6475L20.0487 26.8675C20.3163 26.7994 20.7564 26.6807 20.8805 26.6294C20.9719 26.5639 21.0933 26.547 21.2025 26.5923L22.226 27.0162C22.3352 27.0615 22.4091 27.1592 22.4274 27.2701C22.4788 27.394 22.7061 27.7893 22.8472 28.0267H23.1584C23.2995 27.7893 23.5268 27.394 23.5782 27.2701C23.5965 27.1592 23.6703 27.0614 23.7796 27.0162L24.8031 26.5923C24.9124 26.547 25.0337 26.5639 25.125 26.6294C25.2491 26.6807 25.6893 26.7994 25.9569 26.8675L26.177 26.6475C26.1089 26.3799 25.9902 25.9397 25.9388 25.8156C25.8734 25.7243 25.8565 25.6029 25.9017 25.4936L26.3256 24.4702C26.3709 24.3609 26.4687 24.2871 26.5795 24.2688C26.7034 24.2174 27.0986 23.99 27.3361 23.8489V23.5378C27.0986 23.3967 26.7034 23.1694 26.5795 23.1179C26.4686 23.0997 26.3708 23.0258 26.3256 22.9165L25.9017 21.8931C25.8564 21.7838 25.8733 21.6624 25.9388 21.5711C25.9901 21.447 26.1088 21.0068 26.1769 20.7392L25.9569 20.5192C25.6893 20.5873 25.2491 20.706 25.125 20.7573C25.0337 20.8228 24.9123 20.8397 24.803 20.7944L23.7796 20.3705C23.6703 20.3252 23.5965 20.2275 23.5782 20.1166C23.5268 19.9927 23.2994 19.5975 23.1584 19.36H22.8472C22.7061 19.5975 22.4788 19.9927 22.4273 20.1166C22.4091 20.2275 22.3352 20.3253 22.2259 20.3706L21.2025 20.7945C21.0932 20.8397 20.9719 20.8229 20.8805 20.7573C20.7565 20.706 20.3163 20.5873 20.0486 20.5192L19.8286 20.7393C19.8967 21.0069 20.0154 21.447 20.0667 21.5711C20.1322 21.6625 20.1491 21.7838 20.1039 21.8931L19.6799 22.9166C19.6347 23.0258 19.5369 23.0997 19.426 23.118C19.3021 23.1694 18.9069 23.3967 18.6694 23.5378L18.6694 23.8489Z" stroke="#004C97" stroke-width="0.25"/>
<path d="M23.0028 21.5133C24.2047 21.5133 25.1826 22.4911 25.1826 23.693C25.1826 24.895 24.2047 25.8728 23.0028 25.8728C21.8009 25.8728 20.823 24.895 20.823 23.693C20.823 22.4911 21.8009 21.5133 23.0028 21.5133ZM23.0028 25.2062C23.8371 25.2062 24.5159 24.5274 24.5159 23.693C24.5159 22.8587 23.8371 22.1799 23.0028 22.1799C22.1684 22.1799 21.4897 22.8587 21.4897 23.693C21.4897 24.5274 22.1684 25.2062 23.0028 25.2062Z" stroke="#004C97" stroke-width="0.25"/>
<path fill-rule="evenodd" clip-rule="evenodd" d="M33.3285 15.1648H30.0723V10.6336C30.0723 9.18145 28.8738 8 27.4007 8H6.6715C5.19844 8 4 9.18151 4 10.6337V22.4504C4 23.9025 5.19844 25.084 6.6715 25.084H9.92787V29.6154C9.92787 31.0676 11.1263 32.2491 12.5994 32.2491H33.3285C34.8016 32.2491 36 31.0676 36 29.6154V17.7985C36 16.3463 34.8016 15.1648 33.3285 15.1648ZM5.52686 10.6337C5.52686 10.0113 6.04048 9.505 6.67179 9.505H27.401C28.0324 9.505 28.546 10.0113 28.546 10.6337V11.6843H5.52686V10.6337ZM9.92817 17.7985V23.579H6.67179C6.04048 23.579 5.52686 23.0727 5.52686 22.4503V16.6744H10.1844C10.0203 17.0155 9.92817 17.3966 9.92817 17.7985ZM5.52686 15.1696V13.1893H28.546V15.1649H12.5997C12.548 15.1649 12.4969 15.1667 12.446 15.1696H5.52686ZM33.3286 30.7442H12.5995C11.9682 30.7442 11.4546 30.2379 11.4546 29.6155V17.7985C11.4546 17.2072 11.9185 16.7216 12.5061 16.6745H29.3089C29.3371 16.6745 29.3648 16.6728 29.3921 16.6698H33.3286C33.9599 16.6698 34.4736 17.1761 34.4736 17.7985V29.6155C34.4736 30.2379 33.96 30.7442 33.3286 30.7442Z" fill="#004C97" stroke="white" stroke-width="0.6"/>
</svg>
