<svg width="24" height="24" viewBox="0 0 24 24" fill="none" xmlns="http://www.w3.org/2000/svg">
<path fill-rule="evenodd" clip-rule="evenodd" d="M5.3793 5.71887C5.3793 4.55349 6.31945 3.65295 7.40917 3.65295H14.1528C15.3139 3.65295 16.1826 4.62652 16.1826 5.71887V7.4976C16.1826 7.7176 16.0043 7.89596 15.7843 7.89596C15.5643 7.89596 15.3859 7.7176 15.3859 7.4976V5.71887C15.3859 5.03249 14.8406 4.44968 14.1528 4.44968H7.40917C6.75862 4.44968 6.17602 4.99436 6.17602 5.71887V18.2811C6.17602 18.9675 6.72131 19.5503 7.40917 19.5503H14.1528C14.8033 19.5503 15.3859 19.0056 15.3859 18.2811V17.0582C15.3859 16.8382 15.5643 16.6599 15.7843 16.6599C16.0043 16.6599 16.1826 16.8382 16.1826 17.0582V18.2811C16.1826 19.4465 15.2425 20.347 14.1528 20.347H7.40917C6.248 20.347 5.3793 19.3735 5.3793 18.2811V5.71887Z" fill="#919394"/>
<path fill-rule="evenodd" clip-rule="evenodd" d="M11.3742 12.5095C11.3742 12.2895 11.5526 12.1111 11.7726 12.1111L17.8429 12.1111C18.0629 12.1111 18.2412 12.2895 18.2412 12.5095C18.2412 12.7295 18.0629 12.9079 17.8429 12.9079L11.7726 12.9079C11.5526 12.9079 11.3742 12.7295 11.3742 12.5095Z" fill="#919394"/>
<path fill-rule="evenodd" clip-rule="evenodd" d="M16.0707 9.92195C16.2399 9.7813 16.491 9.80441 16.6317 9.97358L18.5287 12.2551C18.6514 12.4027 18.6514 12.6169 18.5287 12.7645L16.6317 15.046C16.491 15.2152 16.2399 15.2383 16.0707 15.0976C15.9015 14.957 15.8784 14.7058 16.0191 14.5366L17.7043 12.5098L16.0191 10.4829C15.8784 10.3138 15.9015 10.0626 16.0707 9.92195Z" fill="#919394"/>
</svg>
