<?xml version="1.0" encoding="UTF-8"?>
<svg id="Capa_2" data-name="Capa 2" xmlns="http://www.w3.org/2000/svg" viewBox="0 0 146.36 142.87">
  <defs>
    <style>
      .cls-1 {
        fill: #00a3e0;
      }

      .cls-1, .cls-2 {
        fill-rule: evenodd;
      }

      .cls-2 {
        fill: #004c97;
      }
    </style>
  </defs>
  <g id="Capa_1-2" data-name="Capa 1">
    <path class="cls-2" d="M0,17.69C0,7.71,8.07,0,17.39,0h57.71c9.95,0,17.39,8.33,17.39,17.69v15.24c0,1.87-1.56,3.39-3.43,3.39s-3.39-1.52-3.39-3.39v-15.24c0-5.89-4.68-10.87-10.56-10.87H17.39c-5.57,0-10.56,4.68-10.56,10.87V125.19c0,5.88,4.68,10.87,10.56,10.87h57.71c5.58,0,10.56-4.68,10.56-10.87v-10.47c0-1.87,1.52-3.39,3.39-3.39s3.43,1.52,3.43,3.39v10.47c0,9.98-8.07,17.68-17.39,17.68H17.39c-9.94,0-17.39-8.33-17.39-17.68V17.69Z"/>
    <path class="cls-1" d="M81.03,74.76c0-1.88,1.56-3.43,3.43-3.43h51.92c1.92,0,3.43,1.55,3.43,3.43s-1.52,3.38-3.43,3.38h-51.92c-1.87,0-3.43-1.51-3.43-3.38Z"/>
    <path class="cls-1" d="M124.53,53.01c1.47-1.2,3.61-1.03,4.81,.44l16.22,19.52c1.06,1.25,1.06,3.08,0,4.37l-16.22,19.52c-1.21,1.43-3.34,1.64-4.81,.44-1.43-1.21-1.65-3.34-.44-4.81l14.43-17.33-14.43-17.34c-1.21-1.47-.98-3.61,.44-4.81Z"/>
  </g>
</svg>