<svg width="33" height="32" viewBox="0 0 33 32" fill="none" xmlns="http://www.w3.org/2000/svg">
<path d="M16.7917 26.6664H16.2083C16.1847 26.6542 16.1624 26.6352 16.1373 26.6308C15.622 26.5393 15.2096 26.2796 14.8841 25.8737C14.6147 25.5381 14.3378 25.2083 14.0735 24.8687C13.855 24.588 13.5875 24.5041 13.2462 24.6006C12.7794 24.7329 12.3122 24.8666 11.8391 24.9729C10.6966 25.2296 9.54206 24.41 9.41284 23.2443C9.35866 22.7553 9.34741 22.261 9.32766 21.7687C9.31312 21.4094 9.15537 21.1689 8.81121 21.0446C8.4071 20.8988 8.00752 20.74 7.60643 20.5859C6.34144 20.0999 5.86957 18.675 6.5974 17.533C6.83594 17.1585 7.07942 16.7871 7.32482 16.417C7.51069 16.1366 7.51014 15.8631 7.32441 15.5826C7.07147 15.2008 6.81825 14.8191 6.57587 14.4308C5.87931 13.3142 6.35804 11.8946 7.58737 11.4204C7.98832 11.2658 8.38708 11.1052 8.79255 10.9631C9.15578 10.8355 9.31943 10.5868 9.32862 10.2099C9.33863 9.80754 9.36003 9.40535 9.3828 9.0033C9.46332 7.58193 10.664 6.71199 12.0419 7.07563C12.4506 7.18345 12.8593 7.2925 13.2669 7.40498C13.59 7.494 13.8505 7.41321 14.0602 7.1471C14.3439 6.78744 14.6322 6.4312 14.9251 6.07881C15.7507 5.08473 17.2492 5.08459 18.0745 6.07812C18.3627 6.42517 18.6479 6.77509 18.9253 7.13091C19.1441 7.41184 19.4121 7.49675 19.7525 7.39922C20.1656 7.28084 20.5822 7.17481 20.997 7.06219C22.2491 6.72214 23.4494 7.52514 23.594 8.81716C23.6456 9.27847 23.656 9.74512 23.6703 10.2097C23.6818 10.5872 23.8441 10.8341 24.2076 10.9614C24.6195 11.1056 25.0265 11.265 25.4316 11.4281C26.6689 11.926 27.1199 13.3392 26.4028 14.4668C26.1609 14.8473 25.913 15.2243 25.6655 15.6012C25.4901 15.868 25.4896 16.1309 25.6653 16.3981C25.9054 16.7632 26.1438 17.1297 26.3796 17.4978C27.1359 18.6785 26.6819 20.0776 25.374 20.5946C24.9873 20.7475 24.6009 20.9024 24.2083 21.039C23.8445 21.1655 23.6796 21.4121 23.6708 21.79C23.6614 22.1923 23.6403 22.5946 23.6164 22.9966C23.5308 24.431 22.3222 25.2975 20.9374 24.9207C20.5362 24.8115 20.1337 24.7067 19.7331 24.5956C19.4098 24.506 19.1497 24.5872 18.9398 24.8533C18.6519 25.2186 18.3577 25.5788 18.0619 25.9378C17.8224 26.2285 17.5216 26.4338 17.1637 26.5529C17.0407 26.5939 16.9157 26.6289 16.7917 26.6664Z" fill="#00A9E5"/>
<path d="M12.2136 21.0304C11.8824 21.0219 11.6314 20.8732 11.4771 20.5796C11.3226 20.2857 11.3424 19.993 11.5269 19.7171C11.5826 19.6338 11.6554 19.5609 11.7267 19.4895C14.2997 16.9155 16.8742 14.3433 19.4456 11.768C19.7101 11.5031 20.0032 11.3595 20.3787 11.4746C20.9548 11.6513 21.1676 12.3321 20.7962 12.8056C20.7392 12.8783 20.6711 12.9429 20.6056 13.0085C18.0501 15.564 15.4937 18.1186 12.9395 20.6754C12.7362 20.8788 12.5223 21.0468 12.2136 21.0304Z" fill="#004C97"/>
<path d="M11.3784 13.1252C11.3798 12.1922 12.1403 11.435 13.0752 11.4359C14.0053 11.4368 14.7714 12.2033 14.7696 13.1312C14.7676 14.0563 13.9929 14.8285 13.0693 14.8259C12.1414 14.8233 11.377 14.0544 11.3784 13.1252Z" fill="#004C97"/>
<path d="M19.2917 21.0312C18.3513 21.0332 17.5993 20.2863 17.5967 19.3474C17.5941 18.409 18.3428 17.6558 19.2818 17.6522C20.2205 17.6487 20.9729 18.3972 20.9756 19.3374C20.9784 20.2778 20.2315 21.0291 19.2917 21.0312Z" fill="#004C97"/>
</svg>
