<svg width="148" height="149" viewBox="0 0 148 149" fill="none" xmlns="http://www.w3.org/2000/svg">
<circle cx="74" cy="74.5" r="74" fill="url(#paint0_linear_3638_9004)"/>
<path fill-rule="evenodd" clip-rule="evenodd" d="M97.5 78.9591C97.5 85.8957 91.8783 91.5174 84.9418 91.5174C78.0064 91.5174 72.3835 85.8957 72.3835 78.9591C72.3835 72.0237 78.0064 66.4009 84.9418 66.4009C91.8783 66.4009 97.5 72.0237 97.5 78.9591Z" stroke="#EDEDED" stroke-width="1.549"/>
<mask id="mask0_3638_9004" style="mask-type:luminance" maskUnits="userSpaceOnUse" x="80" y="74" width="11" height="11">
<path fill-rule="evenodd" clip-rule="evenodd" d="M88.8914 74.2847L85.1742 78.1024L81.4263 74.2847C81.2658 74.1252 81.0562 74.0455 80.8465 74.0455C80.6368 74.0455 80.4271 74.1252 80.2666 74.2847C79.9477 74.6046 79.9477 75.1234 80.2666 75.4433L84.0155 79.261L80.2666 83.1366C79.9477 83.4555 79.9477 83.9742 80.2666 84.2941C80.4271 84.4558 80.6368 84.5344 80.8465 84.5344C81.0562 84.5344 81.2658 84.4558 81.4263 84.2941L85.1742 80.4186L88.8914 84.2941C89.0508 84.4558 89.2605 84.5344 89.4702 84.5344C89.6798 84.5344 89.8884 84.4558 90.049 84.2941C90.37 83.9742 90.37 83.4555 90.049 83.1366L86.3317 79.261L90.049 75.4433C90.37 75.1234 90.37 74.6046 90.049 74.2847C89.8895 74.1252 89.6798 74.0444 89.4702 74.0444C89.2605 74.0444 89.0508 74.1252 88.8914 74.2847Z" fill="white"/>
</mask>
<g mask="url(#mask0_3638_9004)">
<path fill-rule="evenodd" clip-rule="evenodd" d="M74.5675 89.9933H95.7495V68.5842H74.5675V89.9933Z" fill="#EDEDED"/>
</g>
<mask id="mask1_3638_9004" style="mask-type:luminance" maskUnits="userSpaceOnUse" x="45" y="46" width="31" height="32">
<path fill-rule="evenodd" clip-rule="evenodd" d="M45.5 46.4829H75.8992V77.2109H45.5V46.4829Z" fill="white"/>
</mask>
<g mask="url(#mask1_3638_9004)">
<path fill-rule="evenodd" clip-rule="evenodd" d="M48.0406 75.2921L63.2121 49.2507L74.4719 68.467C74.9174 68.0215 75.4001 67.6163 75.8992 67.2308L64.0103 46.9422C63.8432 46.6571 63.5386 46.4824 63.2099 46.4824H63.2088C62.8779 46.4835 62.5732 46.6582 62.4072 46.9443L45.6261 75.7486C45.4591 76.0347 45.458 76.3885 45.6229 76.6768C45.7878 76.9651 46.0935 77.1431 46.4255 77.1442L70.2294 77.2108C70.3047 76.5785 70.4259 75.9615 70.5777 75.3566L48.0406 75.2921Z" fill="#EDEDED"/>
</g>
<path fill-rule="evenodd" clip-rule="evenodd" d="M63.3418 68.4921C62.8296 68.4921 62.4136 68.076 62.4136 67.5639V58.4739C62.4136 57.9606 62.8296 57.5457 63.3418 57.5457C63.854 57.5457 64.27 57.9606 64.27 58.4739V67.5639C64.27 68.076 63.854 68.4921 63.3418 68.4921Z" fill="#EDEDED"/>
<path fill-rule="evenodd" clip-rule="evenodd" d="M63.3418 72.4485C62.8296 72.4485 62.4136 72.0324 62.4136 71.5202V70.3081C62.4136 69.7959 62.8296 69.3799 63.3418 69.3799C63.854 69.3799 64.27 69.7959 64.27 70.3081V71.5202C64.27 72.0324 63.854 72.4485 63.3418 72.4485Z" fill="#EDEDED"/>
<defs>
<linearGradient id="paint0_linear_3638_9004" x1="74" y1="0.5" x2="74" y2="110.5" gradientUnits="userSpaceOnUse">
<stop stop-color="#0060B2"/>
<stop offset="1" stop-color="#1969AD" stop-opacity="0"/>
</linearGradient>
</defs>
</svg>
