<svg width="148" height="149" viewBox="0 0 148 149" fill="none" xmlns="http://www.w3.org/2000/svg">
<circle cx="74" cy="74.5" r="74" fill="url(#paint0_linear_5427_34260)"/>
<path d="M94.7725 82.9105C94.2299 77.1785 89.3006 72.7386 83.5288 72.783C83.5262 75.6967 83.5239 78.6104 83.5216 81.524C83.6999 81.5814 83.7375 81.4066 83.819 81.3269C84.4574 80.7013 85.0838 80.0636 85.7186 79.4347C86.4902 78.6703 87.5381 78.6397 88.2529 79.3542C88.9536 80.0549 88.921 81.1257 88.1671 81.8901C87.5299 82.536 86.892 83.1816 86.2389 83.8113C86.0471 83.9964 86.0469 84.1008 86.2386 84.2858C86.8917 84.9158 87.5289 85.562 88.1668 86.2074C88.9186 86.9682 88.9536 88.0456 88.2563 88.7463C87.5577 89.4485 86.4771 89.4192 85.7179 88.6699C85.063 88.0227 84.4173 87.3655 83.7593 86.7212C83.6894 86.6528 83.6272 86.4271 83.4581 86.6284C82.7446 87.3321 82.0336 88.0387 81.3163 88.7386C80.8038 89.2385 80.1925 89.3817 79.5186 89.1547C78.8385 88.9259 78.4576 88.4224 78.3617 87.7189C78.2856 87.1596 78.4797 86.678 78.8742 86.2801C79.5423 85.6062 80.2077 84.9292 80.8911 84.2709C81.0767 84.092 81.0618 84.0015 80.887 83.8316C80.2059 83.1711 79.5333 82.501 78.8724 81.8201C78.3676 81.3002 78.2039 80.6807 78.4589 79.988C78.7067 79.3151 79.2107 78.9381 79.9152 78.8545C80.4922 78.7862 80.9716 79.0134 81.3787 79.4169C82.0902 80.1217 82.8068 80.8218 83.5216 81.524C83.5239 78.6104 83.5262 75.6967 83.5288 72.783C82.6718 72.7383 81.8298 72.8511 80.9999 73.0478C75.2879 74.4015 71.3847 79.8701 72.4231 85.8596C73.2314 90.5223 76.0534 93.5553 80.5976 94.9407C81.1554 95.1108 81.7363 95.2057 82.3069 95.3354H83.5275H84.6669C84.6988 95.2563 84.771 95.2653 84.836 95.2573C91.0332 94.4867 95.3593 89.1113 94.7725 82.9105Z" fill="#00A9E5"/>
<path d="M53.1743 82.234C53.3671 81.7484 53.5087 81.2421 53.8619 80.8306C54.4471 80.1479 55.1799 79.7493 56.0746 79.721C56.7185 79.7007 57.3685 79.6616 58.0039 79.8739C59.2685 80.2967 60.0832 81.3819 60.0848 82.7082C60.0881 85.8632 60.0557 89.0187 60.1005 92.1732C60.1195 93.5095 59.2556 94.8394 57.9283 95.1959C57.8327 95.2213 57.7052 95.2157 57.6499 95.3352H55.7785C55.2133 95.1617 54.6651 94.9777 54.2053 94.5634C53.6475 94.0606 53.3625 93.4291 53.1743 92.7313V82.234Z" fill="white"/>
<path d="M70.5117 75.6695C70.5117 75.4811 70.4958 75.296 70.4516 75.1076C70.167 73.8949 68.9919 72.6036 67.0889 72.7967C64.9155 72.5507 63.5923 74.2262 63.5918 75.7707C63.5897 81.2971 63.5894 86.8235 63.5925 92.3498C63.5928 93.0376 63.8434 93.6398 64.2554 94.1858C64.7281 94.8119 65.4038 95.0977 66.1132 95.3354H67.0897H67.9849C68.173 95.2697 68.3619 95.2039 68.5501 95.1381C69.6946 94.7371 70.5097 93.6252 70.5107 92.4148C70.5161 86.8332 70.5133 81.2513 70.5117 75.6695Z" fill="white"/>
<path d="M91.3189 72.5508C90.4211 71.9648 89.5239 71.4666 88.5574 71.1086C87.3743 70.6704 86.1601 70.3514 84.8961 70.2735C84.5259 70.2506 84.4064 70.1306 84.408 69.7422C84.4234 65.4036 84.4167 61.0647 84.418 56.7261C84.4185 55.003 85.7561 53.6644 87.481 53.6692C87.9943 53.6705 88.5099 53.6325 89.0196 53.753C90.3091 54.0586 91.3357 55.2158 91.3403 56.503C91.359 61.8044 91.3503 67.1056 91.3511 72.4071C91.3511 72.4333 91.3398 72.4598 91.3189 72.5508Z" fill="white"/>
<path d="M80.9357 70.0608C80.937 68.4878 80.9373 66.9147 80.9334 65.3417C80.9329 65.1261 80.9257 64.9122 80.8676 64.6976C80.4456 63.1359 79.2484 62.3049 77.5067 62.3761C77.2541 62.2602 76.9986 62.3512 76.7457 62.3715C75.2271 62.4946 74.0099 63.8065 74.0078 65.3284C74.0042 68.0781 74.006 70.8277 74.0096 73.5774C74.0099 73.6885 73.9556 73.818 74.0849 73.9321C74.2985 73.746 74.5095 73.5607 74.7226 73.3775C75.5782 72.6408 76.5575 72.091 77.527 71.5271C78.56 71.0822 79.6087 70.6802 80.7142 70.4548C80.981 70.4006 80.9357 70.2291 80.9357 70.0608Z" fill="white"/>
<path d="M83.4583 86.6281C82.7448 87.3318 82.0339 88.0384 81.3165 88.7383C80.804 89.2382 80.1928 89.3814 79.5189 89.1547C78.8385 88.9257 78.4578 88.4222 78.362 87.7189C78.2859 87.1594 78.48 86.6777 78.8745 86.2801C79.5425 85.6059 80.208 84.9289 80.8914 84.2706C81.0767 84.0917 81.0621 84.0013 80.887 83.8316C80.2062 83.1708 79.5333 82.5007 78.8724 81.8199C78.3676 81.3002 78.2042 80.6805 78.4591 79.988C78.7069 79.3149 79.2109 78.9378 79.9155 78.8543C80.4925 78.7859 80.9716 79.0131 81.3787 79.4167C82.0904 80.1217 82.807 80.8216 83.5216 81.5238C83.6999 81.5811 83.7377 81.4063 83.8189 81.3266C84.4577 80.701 85.0838 80.0633 85.7189 79.4344C86.4905 78.6702 87.5381 78.6394 88.2529 79.3539C88.9538 80.0546 88.9212 81.1254 88.1671 81.8898C87.5302 82.536 86.892 83.1814 86.2389 83.8111C86.0471 83.9961 86.0469 84.1007 86.2386 84.2855C86.8917 84.9155 87.5291 85.5617 88.1668 86.2071C88.9186 86.9679 88.9538 88.0456 88.2565 88.746C87.5577 89.4482 86.4771 89.4189 85.7181 88.6697C85.063 88.0225 84.4173 87.3655 83.7596 86.7209C83.6894 86.6525 83.6272 86.4268 83.4583 86.6281Z" fill="#FEFEFE"/>
<defs>
<linearGradient id="paint0_linear_5427_34260" x1="74" y1="0.5" x2="74" y2="110.5" gradientUnits="userSpaceOnUse">
<stop stop-color="#0060B2"/>
<stop offset="1" stop-color="#1969AD" stop-opacity="0"/>
</linearGradient>
</defs>
</svg>
