<svg width="24" height="24" viewBox="0 0 24 24" fill="none" xmlns="http://www.w3.org/2000/svg">
<path fill-rule="evenodd" clip-rule="evenodd" d="M18.0813 5.73872C18.0486 5.73739 18.0158 5.73717 17.983 5.73809H16.747V4.67593C16.7471 4.25106 16.3415 4 15.9166 4H14.7773C14.3524 4 14.0434 4.25106 14.0434 4.67593V5.73806H9.40854V4.67593C9.40854 4.25106 9.09955 4 8.67468 4H7.53526C7.11043 4 6.70486 4.25106 6.70486 4.67593V5.73806H5.46893C4.67996 5.71606 4.02256 6.33784 4.00056 7.12676C3.99964 7.15952 3.99986 7.19234 4.00119 7.22509V18.3874C4.00119 19.2371 4.61916 20.0289 5.46889 20.0289H17.983C18.8328 20.0289 19.4507 19.2371 19.4507 18.3874V7.22509C19.4831 6.4365 18.8699 5.77103 18.0813 5.73872ZM14.7773 4.77248H15.9746V6.89677H14.7773V4.77248ZM8.63609 4.77248H7.5353V6.89677H8.63609V4.77248ZM18.6783 18.3874C18.6783 18.8122 18.4079 19.2564 17.983 19.2564H5.46893C5.04406 19.2564 4.7737 18.8122 4.7737 18.3874V10.1798H18.6783V18.3874ZM18.6783 9.40734V7.22509C18.6813 7.19167 18.6817 7.15804 18.6796 7.12455C18.6568 6.76263 18.345 6.48773 17.983 6.51053H16.7471V6.9354C16.7471 7.36027 16.3415 7.66925 15.9167 7.66925H14.7773C14.7642 7.66962 14.7512 7.66962 14.7381 7.66925C14.3436 7.65842 14.0326 7.32988 14.0434 6.9354V6.51053H9.40854V6.93544C9.4089 6.94849 9.4089 6.96153 9.40854 6.97458C9.3977 7.36907 9.06917 7.68012 8.67468 7.66929H7.53526C7.1104 7.66929 6.70486 7.3603 6.70486 6.93544V6.51057H5.46889C5.4354 6.50846 5.40176 6.50891 5.36835 6.51194C5.00721 6.54465 4.74095 6.86395 4.77367 7.22509V9.40734H18.6783Z" fill="#007AD1"/>
<path d="M17.983 5.73809V5.88815L17.9872 5.88803L17.983 5.73809ZM18.0813 5.73872L18.0875 5.58885L18.0874 5.58885L18.0813 5.73872ZM16.747 5.73809H16.597V5.88809H16.747V5.73809ZM16.747 4.67593L16.597 4.67591V4.67593H16.747ZM14.0434 5.73806V5.88806H14.1934V5.73806H14.0434ZM9.40854 5.73806H9.25853V5.88806H9.40854V5.73806ZM6.70486 5.73806V5.88806H6.85486V5.73806H6.70486ZM5.46893 5.73806L5.46475 5.88806H5.46893V5.73806ZM4.00056 7.12676L4.1505 7.131L4.1505 7.13094L4.00056 7.12676ZM4.00119 7.22509H4.15131L4.15107 7.219L4.00119 7.22509ZM19.4507 7.22509L19.3007 7.21894V7.22509H19.4507ZM15.9746 4.77248H16.1246V4.62248H15.9746V4.77248ZM14.7773 4.77248V4.62248H14.6273V4.77248H14.7773ZM15.9746 6.89677V7.04677H16.1246V6.89677H15.9746ZM14.7773 6.89677H14.6273V7.04677H14.7773V6.89677ZM7.5353 4.77248V4.62248H7.3853V4.77248H7.5353ZM8.63609 4.77248H8.78609V4.62248H8.63609V4.77248ZM7.5353 6.89677H7.3853V7.04677H7.5353V6.89677ZM8.63609 6.89677V7.04677H8.78609V6.89677H8.63609ZM4.7737 10.1798V10.0298H4.6237V10.1798H4.7737ZM18.6783 10.1798H18.8283V10.0298H18.6783V10.1798ZM18.6783 7.22509L18.5283 7.21148V7.22509H18.6783ZM18.6783 9.40734V9.55734H18.8283V9.40734H18.6783ZM18.6796 7.12455L18.8293 7.11513L18.8293 7.11511L18.6796 7.12455ZM17.983 6.51053V6.66083L17.9925 6.66024L17.983 6.51053ZM16.7471 6.51053V6.36053H16.5971V6.51053H16.7471ZM14.7773 7.66925V7.51919L14.773 7.51931L14.7773 7.66925ZM14.7381 7.66925L14.7424 7.51931L14.7422 7.51931L14.7381 7.66925ZM14.0434 6.9354L14.1934 6.93952V6.9354H14.0434ZM14.0434 6.51053H14.1934V6.36053H14.0434V6.51053ZM9.40854 6.51053V6.36053H9.25853V6.51053H9.40854ZM9.40854 6.93544H9.25847L9.25859 6.93968L9.40854 6.93544ZM9.40854 6.97458L9.25859 6.97034L9.25859 6.97047L9.40854 6.97458ZM8.67468 7.66929L8.6788 7.51929H8.67468V7.66929ZM6.70486 6.51057H6.85486V6.36057H6.70486V6.51057ZM5.46889 6.51057L5.45945 6.66057H5.46889V6.51057ZM5.36835 6.51194L5.38188 6.66133L5.3819 6.66133L5.36835 6.51194ZM4.77367 7.22509H4.92428L4.92306 7.21156L4.77367 7.22509ZM4.77367 9.40734H4.62367V9.55734H4.77367V9.40734ZM17.9872 5.88803C18.0165 5.88721 18.0459 5.88741 18.0752 5.8886L18.0874 5.58885C18.0513 5.58738 18.0151 5.58713 17.9788 5.58815L17.9872 5.88803ZM16.747 5.88809H17.983V5.58809H16.747V5.88809ZM16.597 4.67593V5.73809H16.897V4.67593H16.597ZM15.9166 4.15C16.1015 4.15 16.2763 4.20497 16.4012 4.29864C16.5232 4.39012 16.5971 4.51691 16.597 4.67591L16.897 4.67594C16.8971 4.41008 16.7682 4.1989 16.5812 4.05864C16.3971 3.92056 16.1566 3.85 15.9166 3.85V4.15ZM14.7773 4.15H15.9166V3.85H14.7773V4.15ZM14.1934 4.67593C14.1934 4.5023 14.2552 4.37558 14.3507 4.29075C14.4481 4.20409 14.5936 4.15 14.7773 4.15V3.85C14.536 3.85 14.3146 3.92144 14.1513 4.06653C13.9861 4.21345 13.8934 4.42469 13.8934 4.67593H14.1934ZM14.1934 5.73806V4.67593H13.8934V5.73806H14.1934ZM9.40854 5.88806H14.0434V5.58806H9.40854V5.88806ZM9.25853 4.67593V5.73806H9.55854V4.67593H9.25853ZM8.67468 4.15C8.85832 4.15 9.00379 4.20409 9.10128 4.29075C9.19671 4.37558 9.25853 4.5023 9.25853 4.67593H9.55854C9.55854 4.42469 9.46587 4.21345 9.30059 4.06653C9.13737 3.92144 8.91592 3.85 8.67468 3.85V4.15ZM7.53526 4.15H8.67468V3.85H7.53526V4.15ZM6.85486 4.67593C6.85486 4.51691 6.92877 4.39013 7.05075 4.29864C7.17564 4.20497 7.35043 4.15 7.53526 4.15V3.85C7.29527 3.85 7.05486 3.92056 6.87075 4.05864C6.68374 4.1989 6.55486 4.41007 6.55486 4.67593H6.85486ZM6.85486 5.73806V4.67593H6.55486V5.73806H6.85486ZM5.46893 5.88806H6.70486V5.58806H5.46893V5.88806ZM4.1505 7.13094C4.17019 6.42483 4.7586 5.86831 5.46475 5.888L5.47311 5.58811C4.60133 5.56381 3.87492 6.25085 3.85062 7.12258L4.1505 7.13094ZM4.15107 7.219C4.14987 7.18963 4.14968 7.16025 4.1505 7.131L3.85062 7.12253C3.8496 7.15878 3.84985 7.19505 3.85131 7.23118L4.15107 7.219ZM4.15119 18.3874V7.22509H3.85119V18.3874H4.15119ZM5.46889 19.8789C4.72286 19.8789 4.15119 19.1768 4.15119 18.3874H3.85119C3.85119 19.2974 4.51545 20.1789 5.46889 20.1789V19.8789ZM17.983 19.8789H5.46889V20.1789H17.983V19.8789ZM19.3007 18.3874C19.3007 19.1768 18.7291 19.8789 17.983 19.8789V20.1789C18.9365 20.1789 19.6007 19.2974 19.6007 18.3874H19.3007ZM19.3007 7.22509V18.3874H19.6007V7.22509H19.3007ZM18.0752 5.8886C18.781 5.91751 19.3298 6.51313 19.3009 7.21895L19.6006 7.23123C19.6363 6.35986 18.9588 5.62455 18.0875 5.58885L18.0752 5.8886ZM15.9746 4.62248H14.7773V4.92248H15.9746V4.62248ZM16.1246 6.89677V4.77248H15.8246V6.89677H16.1246ZM14.7773 7.04677H15.9746V6.74677H14.7773V7.04677ZM14.6273 4.77248V6.89677H14.9273V4.77248H14.6273ZM7.5353 4.92248H8.63609V4.62248H7.5353V4.92248ZM7.6853 6.89677V4.77248H7.3853V6.89677H7.6853ZM8.63609 6.74677H7.5353V7.04677H8.63609V6.74677ZM8.48609 4.77248V6.89677H8.78609V4.77248H8.48609ZM17.983 19.4064C18.2534 19.4064 18.4685 19.2636 18.6108 19.0701C18.7519 18.8782 18.8283 18.6293 18.8283 18.3874H18.5283C18.5283 18.5703 18.4695 18.7558 18.3691 18.8923C18.2701 19.0271 18.1376 19.1064 17.983 19.1064V19.4064ZM5.46893 19.4064H17.983V19.1064H5.46893V19.4064ZM4.6237 18.3874C4.6237 18.6293 4.70011 18.8782 4.84114 19.0701C4.98348 19.2636 5.1986 19.4064 5.46893 19.4064V19.1064C5.31439 19.1064 5.1819 19.0271 5.08284 18.8923C4.98248 18.7558 4.9237 18.5703 4.9237 18.3874H4.6237ZM4.6237 10.1798V18.3874H4.9237V10.1798H4.6237ZM18.6783 10.0298H4.7737V10.3298H18.6783V10.0298ZM18.8283 18.3874V10.1798H18.5283V18.3874H18.8283ZM18.5283 7.22509V9.40734H18.8283V7.22509H18.5283ZM18.5299 7.13397C18.5316 7.15987 18.5312 7.18582 18.5289 7.21154L18.8277 7.23864C18.8314 7.19752 18.8319 7.15621 18.8293 7.11513L18.5299 7.13397ZM17.9925 6.66024C18.2717 6.64264 18.5123 6.85474 18.5299 7.13398L18.8293 7.11511C18.8013 6.67052 18.4182 6.33281 17.9736 6.36083L17.9925 6.66024ZM16.7471 6.66053H17.983V6.36053H16.7471V6.66053ZM16.8971 6.9354V6.51053H16.5971V6.9354H16.8971ZM15.9167 7.81925C16.3995 7.81925 16.8971 7.46598 16.8971 6.9354H16.5971C16.5971 7.25455 16.2836 7.51925 15.9167 7.51925V7.81925ZM14.7773 7.81925H15.9167V7.51925H14.7773V7.81925ZM14.7339 7.81919C14.7497 7.81964 14.7656 7.81964 14.7815 7.81919L14.773 7.51931C14.7628 7.5196 14.7526 7.5196 14.7424 7.51931L14.7339 7.81919ZM13.8935 6.93128C13.8804 7.4086 14.2567 7.80609 14.734 7.8192L14.7422 7.51931C14.4305 7.51075 14.1848 7.25117 14.1933 6.93952L13.8935 6.93128ZM13.8934 6.51053V6.9354H14.1934V6.51053H13.8934ZM9.40854 6.66053H14.0434V6.36053H9.40854V6.66053ZM9.55854 6.93544V6.51053H9.25853V6.93544H9.55854ZM9.55848 6.97883C9.55892 6.96295 9.55892 6.94707 9.55848 6.93119L9.25859 6.93968C9.25888 6.9499 9.25888 6.96012 9.25859 6.97034L9.55848 6.97883ZM8.67057 7.81923C9.14788 7.83234 9.54537 7.45597 9.55848 6.9787L9.25859 6.97047C9.25003 7.28216 8.99045 7.5279 8.6788 7.51934L8.67057 7.81923ZM7.53526 7.81929H8.67468V7.51929H7.53526V7.81929ZM6.55486 6.93544C6.55486 7.46602 7.05245 7.81929 7.53526 7.81929V7.51929C7.16835 7.51929 6.85486 7.25459 6.85486 6.93544H6.55486ZM6.55486 6.51057V6.93544H6.85486V6.51057H6.55486ZM5.46889 6.66057H6.70486V6.36057H5.46889V6.66057ZM5.3819 6.66133C5.40761 6.65899 5.43357 6.65865 5.45947 6.66028L5.47831 6.36087C5.43723 6.35828 5.39591 6.35882 5.3548 6.36255L5.3819 6.66133ZM4.92306 7.21156C4.89782 6.93292 5.10325 6.68657 5.38188 6.66133L5.35482 6.36255C4.91117 6.40274 4.58409 6.79498 4.62428 7.23862L4.92306 7.21156ZM4.92367 9.40734V7.22509H4.62367V9.40734H4.92367ZM18.6783 9.25734H4.77367V9.55734H18.6783V9.25734Z" fill="#007AD1"/>
</svg>
