<svg width="25" height="24" viewBox="0 0 25 24" fill="none" xmlns="http://www.w3.org/2000/svg">
<path d="M12.6762 8.93348L12.675 8.93356C11.4109 9.01808 10.4015 10.0589 10.3243 11.3343C10.2261 12.8718 11.4691 14.1611 12.9989 14.0628C14.2624 13.9827 15.27 12.9394 15.3512 11.6629C15.45 10.1248 14.2064 8.83485 12.6762 8.93348ZM4.36364 11.3463C6.60134 8.29972 9.58988 6.48 12.8359 6.48C16.0817 6.48 19.0701 8.29944 21.3077 11.3493C21.372 11.4372 21.372 11.5666 21.3077 11.6545L21.6951 11.9379L21.3082 11.6537C19.0705 14.7003 16.082 16.52 12.8359 16.52C9.59006 16.52 6.60167 14.7005 4.36402 11.6505C4.29986 11.5626 4.29991 11.4334 4.36418 11.3455L3.97678 11.0621L4.36364 11.3463Z" stroke="#919394" stroke-width="0.96"/>
<path d="M4.24503 18.0125L21.3394 5.5" stroke="#919394" stroke-width="0.96" stroke-linecap="round"/>
</svg>
