<svg width="25" height="24" viewBox="0 0 25 24" fill="none" xmlns="http://www.w3.org/2000/svg">
<mask id="mask0_3639_15719" style="mask-type:luminance" maskUnits="userSpaceOnUse" x="4" y="4" width="17" height="16">
<mask id="path-1-inside-1_3639_15719" fill="white">
<path fill-rule="evenodd" clip-rule="evenodd" d="M4.79932 11.9998C4.79932 16.2451 8.25465 19.6998 12.5 19.6998C16.746 19.6998 20.2006 16.2451 20.2006 11.9998C20.2006 7.7538 16.746 4.2998 12.5 4.2998C8.25465 4.2998 4.79932 7.7538 4.79932 11.9998ZM6.20041 11.9999C6.20041 8.52655 9.02641 5.69988 12.5004 5.69988C15.9737 5.69988 18.8004 8.52655 18.8004 11.9999C18.8004 15.4739 15.9737 18.2999 12.5004 18.2999C9.02641 18.2999 6.20041 15.4739 6.20041 11.9999Z"/>
</mask>
<path fill-rule="evenodd" clip-rule="evenodd" d="M4.79932 11.9998C4.79932 16.2451 8.25465 19.6998 12.5 19.6998C16.746 19.6998 20.2006 16.2451 20.2006 11.9998C20.2006 7.7538 16.746 4.2998 12.5 4.2998C8.25465 4.2998 4.79932 7.7538 4.79932 11.9998ZM6.20041 11.9999C6.20041 8.52655 9.02641 5.69988 12.5004 5.69988C15.9737 5.69988 18.8004 8.52655 18.8004 11.9999C18.8004 15.4739 15.9737 18.2999 12.5004 18.2999C9.02641 18.2999 6.20041 15.4739 6.20041 11.9999Z" fill="white"/>
<path d="M3.79932 11.9998C3.79932 16.7975 7.70248 20.6998 12.5 20.6998V18.6998C8.80682 18.6998 5.79932 15.6927 5.79932 11.9998H3.79932ZM12.5 20.6998C17.2982 20.6998 21.2006 16.7975 21.2006 11.9998H19.2006C19.2006 15.6928 16.1938 18.6998 12.5 18.6998V20.6998ZM21.2006 11.9998C21.2006 7.20141 17.2982 3.2998 12.5 3.2998V5.2998C16.1938 5.2998 19.2006 8.3062 19.2006 11.9998H21.2006ZM12.5 3.2998C7.70253 3.2998 3.79932 7.20135 3.79932 11.9998H5.79932C5.79932 8.30626 8.80677 5.2998 12.5 5.2998V3.2998ZM7.20041 11.9999C7.20041 9.07876 9.57876 6.69988 12.5004 6.69988V4.69988C8.47405 4.69988 5.20041 7.97433 5.20041 11.9999H7.20041ZM12.5004 6.69988C15.4215 6.69988 17.8004 9.07883 17.8004 11.9999H19.8004C19.8004 7.97426 16.526 4.69988 12.5004 4.69988V6.69988ZM17.8004 11.9999C17.8004 14.9215 15.4215 17.2999 12.5004 17.2999V19.2999C16.526 19.2999 19.8004 16.0262 19.8004 11.9999H17.8004ZM12.5004 17.2999C9.57869 17.2999 7.20041 14.9216 7.20041 11.9999H5.20041C5.20041 16.0262 8.47412 19.2999 12.5004 19.2999V17.2999Z" fill="white" mask="url(#path-1-inside-1_3639_15719)"/>
</mask>
<g mask="url(#mask0_3639_15719)">
<path d="M23.0344 1.46631V22.533H1.96704V1.46631H23.0344Z" fill="white" stroke="white"/>
</g>
<mask id="mask1_3639_15719" style="mask-type:luminance" maskUnits="userSpaceOnUse" x="11" y="7" width="3" height="3">
<path d="M12.4993 8.93356C12.2613 8.93356 12.0667 8.73922 12.0667 8.50023C12.0667 8.26167 12.2615 8.06689 12.4993 8.06689C12.7381 8.06689 12.9333 8.2626 12.9333 8.50023C12.9333 8.73829 12.7383 8.93356 12.4993 8.93356Z" fill="white" stroke="white"/>
</mask>
<g mask="url(#mask1_3639_15719)">
<path d="M16.2662 4.7334V12.2667H8.73291V4.7334H16.2662Z" fill="white" stroke="white"/>
</g>
<mask id="mask2_3639_15719" style="mask-type:luminance" maskUnits="userSpaceOnUse" x="11" y="10" width="3" height="7">
<path d="M12.2991 15.7335V11.5335C12.2991 11.4233 12.3889 11.3335 12.4991 11.3335C12.6096 11.3335 12.6991 11.423 12.6991 11.5335V15.7335C12.6991 15.8437 12.6093 15.9335 12.4991 15.9335C12.3892 15.9335 12.2991 15.8434 12.2991 15.7335Z" fill="white" stroke="white"/>
</mask>
<g mask="url(#mask2_3639_15719)">
<path d="M16.0332 8V19.2667H8.96582V8H16.0332Z" fill="white" stroke="white"/>
</g>
</svg>
