<svg width="149" height="149" viewBox="0 0 149 149" fill="none" xmlns="http://www.w3.org/2000/svg">
<circle cx="74.5" cy="74.5049" r="74" fill="url(#paint0_linear_5441_18371)"/>
<path d="M75.5705 52.1729C76.677 52.4323 77.8285 52.5803 78.8695 53.0016C83.0837 54.707 85.6283 57.8373 86.4374 62.3266C86.5695 63.0596 86.6065 63.8065 86.615 64.5514C86.6317 66.0195 86.6317 68.1457 86.6291 69.5519C86.6279 70.3579 85.9745 71.0085 85.1682 71.0085H82.0301C81.2213 71.0085 80.5664 70.3561 80.5692 69.5472C80.5738 68.0524 80.5764 65.7358 80.5538 64.1895C80.5036 60.7484 77.6679 58.0871 74.2391 58.2144C71.1113 58.3305 68.5207 60.9042 68.4534 64.0471C68.4184 65.6697 68.4218 68.1372 68.4282 69.6616C68.4316 70.4137 67.8229 71.0249 67.0708 71.0249H63.7233C62.9761 71.0249 62.3693 70.4255 62.3659 69.6781C62.36 68.2567 62.3557 66.0198 62.3801 64.528C62.4657 59.261 64.884 55.4392 69.6501 53.1972C70.7132 52.697 71.9402 52.5451 73.0928 52.2361C73.2575 52.1917 73.4287 52.1698 73.5958 52.1346C74.2635 52.1475 74.9027 52.1601 75.5705 52.1729Z" fill="#004C97"/>
<path d="M86.4295 69.59C78.4732 69.5857 70.5169 69.5851 62.5608 69.5903C58.9478 69.5926 56.3161 72.2238 56.3117 75.8345C56.3055 80.76 56.3058 85.6851 56.3166 90.6106C56.3176 91.1115 56.3559 91.6248 56.4664 92.1119C57.1136 94.9608 59.4986 96.8589 62.4503 96.8684C66.4599 96.882 70.4696 96.8718 74.4795 96.8718C78.4734 96.872 82.4671 96.8779 86.4613 96.8702C90.0438 96.8635 92.6804 94.2303 92.686 90.6496C92.6938 85.7085 92.693 80.7674 92.6863 75.8263C92.6814 72.2192 90.0451 69.5918 86.4295 69.59Z" fill="#00A9E5"/>
<path d="M67.6797 81.6198V79.9972C67.6797 79.6677 67.8815 79.3605 68.2166 79.1791L76.0074 74.9628C76.807 74.5302 77.8714 75.006 77.8611 75.7915L77.8603 88.9875C77.8562 89.3147 77.6526 89.619 77.3182 89.7977L74.8348 91.0335C74.0398 91.4589 72.9865 90.9908 72.9865 90.2125V82.6752C72.9865 81.9599 72.0823 81.4854 71.2904 81.7853L69.3761 82.5097C68.5839 82.8093 67.6797 82.3351 67.6797 81.6198Z" fill="white"/>
<defs>
<linearGradient id="paint0_linear_5441_18371" x1="74.5" y1="0.504883" x2="74.5" y2="110.505" gradientUnits="userSpaceOnUse">
<stop stop-color="#DAE7ED" stop-opacity="0.44"/>
<stop offset="1" stop-color="white" stop-opacity="0"/>
</linearGradient>
</defs>
</svg>
