<svg width="149" height="149" viewBox="0 0 149 149" fill="none" xmlns="http://www.w3.org/2000/svg">
<circle cx="74.5" cy="74.5049" r="74" fill="url(#paint0_linear_3694_19450)"/>
<path fill-rule="evenodd" clip-rule="evenodd" d="M67.2784 62.5627C62.8069 58.0911 55.5313 58.0911 51.0597 62.5627C46.5882 67.0343 46.5882 74.3098 51.0597 78.7814C55.5313 83.253 62.8069 83.253 67.2784 78.7814C69.5352 76.5246 70.6491 73.5542 70.6281 70.59L88.8264 70.59L88.8264 76.8733C88.8264 77.6184 89.4303 78.2223 90.1754 78.2223C90.5484 78.2223 90.8852 78.0716 91.1295 77.8273C91.3737 77.5831 91.5244 77.2463 91.5244 76.8733V70.59L94.9456 70.59C95.3187 70.59 95.6554 70.4392 95.8997 70.195C96.1439 69.9508 96.2946 69.614 96.2946 69.241C96.2946 68.4959 95.6907 67.8919 94.9456 67.8919L70.2789 67.8919C69.7938 65.9385 68.8025 64.0868 67.2784 62.5627ZM65.3699 64.4708C68.7892 67.89 68.7892 73.454 65.3699 76.8733C61.9507 80.2926 56.3867 80.2926 52.9674 76.8733C49.5481 73.454 49.5481 67.89 52.9674 64.4708C56.3867 61.0515 61.9507 61.0515 65.3699 64.4708Z" fill="#004C97"/>
<defs>
<linearGradient id="paint0_linear_3694_19450" x1="74.5" y1="0.504883" x2="74.5" y2="110.505" gradientUnits="userSpaceOnUse">
<stop stop-color="#DAE7ED" stop-opacity="0.44"/>
<stop offset="1" stop-color="white" stop-opacity="0"/>
</linearGradient>
</defs>
</svg>
