<svg width="148" height="148" viewBox="0 0 148 148" fill="none" xmlns="http://www.w3.org/2000/svg">
<circle cx="74" cy="74" r="74" fill="url(#paint0_linear_766_1261)"/>
<path fill-rule="evenodd" clip-rule="evenodd" d="M82.0614 88.5872C78.8056 90.2132 75.1332 91.1279 71.2475 91.1279C57.8545 91.1279 46.9951 80.2613 46.9951 66.854C46.9951 53.4467 57.8545 42.5801 71.2475 42.5801C84.6405 42.5801 95.4999 53.4467 95.4999 66.854C95.4999 70.9053 94.5083 74.7246 92.755 78.0822C93.2752 78.1508 93.7821 78.2616 94.2722 78.4109C96.0174 74.9349 96.9999 71.0093 96.9999 66.854C96.9999 52.6195 85.4701 41.0801 71.2475 41.0801C57.0249 41.0801 45.4951 52.6195 45.4951 66.854C45.4951 81.0885 57.0249 92.6279 71.2475 92.6279C75.2282 92.6279 78.9979 91.724 82.3629 90.11C82.2225 89.6176 82.1208 89.1088 82.0614 88.5872Z" fill="#B9B9B9"/>
<path d="M91.4873 96C86.7952 96 83 92.1992 83 87.5C83 82.8008 86.7952 79 91.4873 79C96.1795 79 99.9747 82.8008 99.9747 87.5C99.9747 92.1992 96.1795 96 91.4873 96ZM91.4873 80.1057C87.4162 80.1057 84.104 83.4228 84.104 87.5C84.104 91.5772 87.4162 94.9634 91.4873 94.9634C95.5585 94.9634 98.8706 91.6463 98.8706 87.5691C98.8706 83.4919 95.5585 80.1057 91.4873 80.1057Z" fill="#28B4F5"/>
<path d="M87 89.9773L88.3211 91L95 85" stroke="#28B4F5" stroke-miterlimit="10" stroke-linecap="round" stroke-linejoin="round"/>
<path d="M70.0254 57.9583V65.1226C70.0254 66.7795 71.3685 68.1226 73.0254 68.1226H74.3779" stroke="#B9B9B9" stroke-width="1.5" stroke-linecap="round"/>
<ellipse cx="60.2119" cy="58.7671" rx="2.21186" ry="2.76714" fill="#B5B7B8"/>
<ellipse cx="82.0136" cy="58.7677" rx="2.21186" ry="2.76714" fill="#B5B7B8"/>
<path d="M61.3955 72.9969C62.3698 74.9207 65.677 78.7525 71.1119 78.6893C76.5468 78.626 79.9067 74.868 80.9073 72.9969" stroke="#B9B9B9" stroke-width="1.5" stroke-linecap="round"/>
<defs>
<linearGradient id="paint0_linear_766_1261" x1="74" y1="0" x2="74" y2="110" gradientUnits="userSpaceOnUse">
<stop stop-color="#DAE7ED" stop-opacity="0.44"/>
<stop offset="1" stop-color="white" stop-opacity="0"/>
</linearGradient>
</defs>
</svg>
