<svg width="148" height="148" viewBox="0 0 148 148" fill="none" xmlns="http://www.w3.org/2000/svg">
<circle cx="74" cy="74" r="74" fill="url(#paint0_linear_5441_10062)"/>
<path d="M80.7748 62.1248C78.2959 62.2234 76.3491 63.271 75.0173 65.4034C74.7423 65.8438 74.6077 66.3262 74.6788 66.8458C74.814 67.8324 75.4577 68.5388 76.4127 68.7703C77.3146 68.9887 78.2159 68.6055 78.7946 67.7578C79.8529 66.2076 81.654 66.2015 82.7004 67.7448C83.4425 68.8393 84.7409 69.1485 85.7974 68.4828C86.867 67.8086 87.158 66.464 86.4417 65.3298C85.1328 63.2588 83.215 62.244 80.7748 62.1248ZM64.1728 62.1254C61.7221 62.2145 59.7872 63.2289 58.4556 65.3097C57.7301 66.4443 58.0054 67.79 59.0654 68.4694C60.137 69.1561 61.436 68.8457 62.1978 67.721C63.2219 66.2096 65.0436 66.2171 66.0761 67.7375C66.835 68.855 68.1447 69.1555 69.2131 68.4578C70.2493 67.7808 70.5258 66.446 69.8244 65.3361C68.5155 63.2657 66.6003 62.2461 64.1728 62.1254ZM71.8872 85.5434C75.2984 85.5159 77.9841 84.7927 80.4557 83.3123C82.4553 82.1145 84.1062 80.5419 85.3997 78.6021C86.0777 77.5859 85.8981 76.3359 84.9919 75.5996C84.1106 74.8834 82.8576 74.9272 82.0436 75.722C81.8345 75.9263 81.6697 76.1781 81.4977 76.4174C78.8129 80.1547 74.1566 81.8694 69.7017 80.729C66.9446 80.0235 64.7837 78.4564 63.1612 76.1189C62.3922 75.0107 61.0473 74.7789 60.0036 75.5187C58.9868 76.2399 58.7599 77.5923 59.5119 78.661C62.6539 83.1264 66.9884 85.3638 71.8872 85.5434ZM72.4291 47.6451C86.0031 47.7185 96.9535 58.5506 96.9419 72.1861C96.9306 85.7923 86.0188 96.6743 72.4456 96.6722C58.822 96.6699 47.9232 85.7485 47.9316 72.1501C47.9398 58.5718 58.8368 47.7414 72.4291 47.6451Z" fill="#00A3E0"/>
<path d="M71.8874 85.5442C66.9883 85.3646 62.6538 83.1271 59.512 78.6617C58.7601 77.593 58.9867 76.2406 60.0038 75.5195C61.0472 74.7797 62.3924 75.0115 63.1614 76.1197C64.7839 78.4572 66.9445 80.0243 69.7018 80.7298C74.1568 81.8702 78.8131 80.1554 81.4976 76.4182C81.6699 76.1788 81.8347 75.927 82.0435 75.7228C82.8575 74.928 84.1105 74.8842 84.992 75.6004C85.898 76.3366 86.0779 77.5867 85.3999 78.6029C84.1064 80.5427 82.4555 82.1153 80.4559 83.3131C77.9843 84.7934 75.2983 85.5166 71.8874 85.5442Z" fill="white"/>
<path d="M64.1723 62.1251C66.6001 62.2458 68.515 63.2655 69.8239 65.3359C70.5256 66.4455 70.2491 67.7802 69.2126 68.4573C68.1442 69.1553 66.8345 68.8544 66.0756 67.737C65.0431 66.2169 63.2216 66.2094 62.1976 67.7207C61.4355 68.8454 60.1368 69.1555 59.0652 68.4689C58.0049 67.7898 57.7296 66.4438 58.4554 65.3092C59.7867 63.2284 61.7219 62.2142 64.1723 62.1251Z" fill="#004C97"/>
<path d="M80.7749 62.1246C83.2152 62.2438 85.133 63.2586 86.4419 65.3296C87.1581 66.4638 86.8672 67.8084 85.7976 68.4826C84.7411 69.1483 83.4426 68.8391 82.7006 67.7446C81.6542 66.2013 79.853 66.2074 78.7948 67.7576C78.216 68.6053 77.3147 68.9885 76.4128 68.7701C75.4578 68.5386 74.8141 67.8322 74.6789 66.8456C74.6079 66.326 74.7425 65.8436 75.0175 65.4032C76.3493 63.2708 78.2961 62.2232 80.7749 62.1246Z" fill="#004C97"/>
<path d="M100.068 91.1761C100.068 86.1071 95.9583 81.9976 90.8892 81.9976C85.8201 81.9976 81.7109 86.1071 81.7109 91.1761C81.7109 96.2452 85.8201 100.355 90.8892 100.355C95.9583 100.355 100.068 96.2452 100.068 91.1761Z" fill="white"/>
<path d="M89.7645 92.33C89.4356 92.0002 89.1321 91.6941 88.8264 91.3904C88.5644 91.1302 88.3141 90.8564 88.0327 90.6191C87.7072 90.3446 87.3243 90.3084 86.9422 90.4964C86.2736 90.8247 86.1517 91.6521 86.6898 92.196C87.4519 92.9659 88.2178 93.7323 88.9903 94.4921C89.1063 94.6064 89.2551 94.7056 89.4074 94.7607C89.8388 94.9162 90.215 94.7967 90.535 94.4764C92.0429 92.9674 93.5517 91.4592 95.0593 89.9501C95.1101 89.8993 95.1579 89.8451 95.2026 89.7888C95.5809 89.311 95.4384 88.5693 94.9108 88.2664C94.4666 88.0114 93.9781 88.0877 93.5885 88.4767C92.3507 89.7134 91.1137 90.9512 89.8771 92.1893C89.84 92.2265 89.8109 92.2714 89.7645 92.33ZM91.3177 98.5073H90.4544C90.2081 98.4765 89.96 98.4542 89.7155 98.4133C88.1768 98.156 86.836 97.494 85.7328 96.3913C84.0778 94.7372 83.3494 92.7269 83.5612 90.3989C83.703 88.8362 84.3146 87.455 85.3592 86.2816C86.747 84.7232 88.4931 83.8834 90.5768 83.7822C92.0299 83.7114 93.3959 84.0502 94.6395 84.8088C96.5515 85.975 97.725 87.6645 98.1378 89.8718C98.1894 90.1482 98.2149 90.4293 98.2526 90.7081V91.5714C98.2407 91.675 98.2289 91.7786 98.2172 91.8821C98.0409 93.4675 97.4354 94.866 96.367 96.0519C95.2328 97.3106 93.8273 98.0968 92.1549 98.3927C91.8779 98.4417 91.597 98.4698 91.3177 98.5073Z" fill="#004C97"/>
<path d="M89.7644 92.3292C89.8108 92.2706 89.8398 92.2257 89.877 92.1885C91.1136 90.9504 92.3506 89.7126 93.5884 88.4759C93.978 88.0869 94.4665 88.0106 94.9107 88.2656C95.4383 88.5685 95.5808 89.3102 95.2025 89.788C95.1578 89.8443 95.11 89.8985 95.0592 89.9493C93.5516 91.4584 92.0428 92.9666 90.5349 94.4756C90.2149 94.7959 89.8387 94.9154 89.4073 94.7599C89.255 94.7048 89.1062 94.6056 88.9902 94.4913C88.2176 93.7315 87.4518 92.9651 86.6897 92.1952C86.1516 91.6513 86.2734 90.8239 86.9421 90.4956C87.3242 90.3076 87.7071 90.3438 88.0326 90.6183C88.3139 90.8556 88.5643 91.1294 88.8263 91.3896C89.132 91.6933 89.4354 91.9994 89.7644 92.3292Z" fill="white"/>
<defs>
<linearGradient id="paint0_linear_5441_10062" x1="74" y1="0" x2="74" y2="110" gradientUnits="userSpaceOnUse">
<stop stop-color="#DAE7ED" stop-opacity="0.44"/>
<stop offset="1" stop-color="white" stop-opacity="0"/>
</linearGradient>
</defs>
</svg>
