<svg width="41" height="41" viewBox="0 0 41 41" fill="none" xmlns="http://www.w3.org/2000/svg">
<path d="M18.6336 28.453C18.6328 29.4896 19.4662 30.3282 20.4979 30.3292C21.5302 30.3301 22.3652 29.4935 22.3658 28.457C22.3666 27.4207 21.5335 26.5822 20.5019 26.5807C19.4704 26.5793 18.6344 27.417 18.6336 28.453ZM18.6356 18.3708H18.6319C18.6319 19.8185 18.6348 21.266 18.6301 22.7136C18.6288 23.0921 18.6894 23.4498 18.8831 23.7798C19.3045 24.4972 20.1372 24.8503 20.9515 24.6549C21.7509 24.4633 22.3297 23.7497 22.3636 22.9129C22.3663 22.8424 22.3674 22.7717 22.3674 22.7012C22.3676 19.8236 22.3633 16.9462 22.3708 14.0686C22.3726 13.351 22.1215 12.7704 21.5175 12.3785C20.9242 11.9931 20.2825 11.9586 19.6545 12.2798C19.0182 12.6055 18.6482 13.1446 18.6404 13.8692C18.6242 15.3696 18.6356 16.8702 18.6356 18.3708ZM6.93018 29.2744V28.3732C7.05612 27.8236 7.21612 27.2925 7.5064 26.7963C10.7376 21.2753 13.9575 15.748 17.1837 10.2241C18.2873 8.33463 20.7697 7.75856 22.6021 8.95262C23.2352 9.36515 23.6548 9.94828 24.0291 10.5913C27.1941 16.0283 30.3711 21.4583 33.543 26.8914C35.0256 29.4307 33.2063 32.6564 30.267 32.6625C23.7575 32.676 17.2479 32.6699 10.7385 32.6644C9.09885 32.6631 7.65018 31.5958 7.13339 30.0344C7.05114 29.7859 6.997 29.5279 6.93018 29.2744Z" fill="#B7B7B7"/>
<path d="M18.6354 18.3706C18.6354 16.87 18.6241 15.3693 18.6402 13.869C18.6481 13.1442 19.018 12.6051 19.6545 12.2795C20.2823 11.9584 20.924 11.9929 21.5173 12.3781C22.1213 12.7702 22.3726 13.3507 22.3706 14.0684C22.3631 16.9458 22.3674 19.8234 22.3673 22.701C22.3673 22.7715 22.3663 22.8422 22.3634 22.9127C22.3295 23.7494 21.7509 24.4631 20.9513 24.6547C20.1372 24.8501 19.3043 24.4968 18.8829 23.7796C18.6892 23.4496 18.6286 23.0919 18.6299 22.7134C18.6346 21.2657 18.6318 19.8181 18.6318 18.3706H18.6354Z" fill="white"/>
<path d="M18.6338 28.4528C18.6346 27.4169 19.4706 26.5791 20.5021 26.5805C21.5337 26.582 22.3668 27.4205 22.366 28.4569C22.3654 29.4933 21.5303 30.3299 20.498 30.329C19.4664 30.328 18.633 29.4895 18.6338 28.4528Z" fill="white"/>
</svg>
