<svg width="41" height="40" viewBox="0 0 41 40" fill="none" xmlns="http://www.w3.org/2000/svg">
<mask id="mask0_1999_525" style="mask-type:luminance" maskUnits="userSpaceOnUse" x="4" y="6" width="33" height="28">
<path fill-rule="evenodd" clip-rule="evenodd" d="M4.5 6.02881H36.5V33.9711H4.5V6.02881Z" fill="white"/>
</mask>
<g mask="url(#mask0_1999_525)">
<path fill-rule="evenodd" clip-rule="evenodd" d="M6.21131 32.3007L34.7906 32.4296L20.486 7.79488L6.21131 32.3007ZM35.1896 33.9715H35.1828L5.80798 33.8388C5.33416 33.8368 4.90976 33.5898 4.67431 33.178C4.43982 32.7662 4.44176 32.2759 4.68109 31.866L19.353 6.67995C19.5914 6.27202 20.0148 6.02881 20.4867 6.02881C20.9605 6.02881 21.3839 6.27299 21.6213 6.68092V6.68188L36.3233 32.0007C36.5587 32.4067 36.5587 32.9105 36.3243 33.3165C36.0907 33.7206 35.6566 33.9715 35.1896 33.9715Z" fill="#B5B7B8"/>
</g>
<path fill-rule="evenodd" clip-rule="evenodd" d="M20.5013 25.437C20.0759 25.437 19.731 25.0921 19.731 24.6667V14.9917C19.731 14.5663 20.0759 14.2214 20.5013 14.2214C20.9266 14.2214 21.2716 14.5663 21.2716 14.9917V24.6667C21.2716 25.0921 20.9266 25.437 20.5013 25.437Z" fill="#B5B7B8"/>
<path fill-rule="evenodd" clip-rule="evenodd" d="M20.5013 29.1326C20.0759 29.1326 19.731 28.7876 19.731 28.3622V27.2266C19.731 26.8012 20.0759 26.4563 20.5013 26.4563C20.9266 26.4563 21.2716 26.8012 21.2716 27.2266V28.3622C21.2716 28.7876 20.9266 29.1326 20.5013 29.1326Z" fill="#B5B7B8"/>
</svg>
