<svg width="163" height="208" viewBox="0 0 163 208" fill="none" xmlns="http://www.w3.org/2000/svg">
<g filter="url(#filter0_d_1244_2120)">
<g clip-path="url(#clip0_1244_2120)">
<rect x="14" y="12" width="131" height="176" rx="4" fill="white"/>
<path d="M59.4957 139.893V130.402C59.4957 128.476 60.6753 126.678 62.6357 125.618L108.203 100.958C112.879 98.4271 119.105 101.21 119.044 105.804L119.04 229.745C119.015 231.659 117.825 233.438 115.868 234.484L101.344 241.712C96.6943 244.199 90.5347 241.462 90.5347 236.91L90.5347 146.065C90.5347 141.882 85.2459 139.107 80.6132 140.861L69.4159 145.098C64.7838 146.852 59.4957 144.077 59.4957 139.893Z" fill="#EDEDED"/>
<path d="M41.2946 172.471L42.1869 173.296C43.7171 171.883 44.5602 170.003 44.5602 168.005C44.5602 166.006 43.7171 164.127 42.1869 162.714L41.2946 163.538C42.5869 164.731 43.2978 166.318 43.2978 168.005C43.2978 169.692 42.5869 171.279 41.2946 172.471ZM39.8912 171.175C40.8083 170.329 41.3131 169.203 41.3131 168.005C41.3131 166.807 40.8083 165.681 39.8912 164.834L38.9997 165.658C39.678 166.285 40.0515 167.119 40.0515 168.005C40.0515 168.892 39.678 169.725 38.9997 170.352L39.8912 171.175ZM43.5894 174.592L44.4827 175.416C48.9076 171.33 48.9076 164.68 44.4827 160.595L43.5894 161.418C47.5219 165.049 47.5219 170.96 43.5894 174.592ZM45.886 176.711L46.7784 177.536C49.5349 174.99 51.0527 171.605 51.0527 168.005C51.0527 164.405 49.5349 161.019 46.7784 158.473L45.886 159.298C48.4037 161.624 49.7903 164.716 49.7903 168.005C49.7903 171.294 48.4037 174.386 45.886 176.711Z" fill="#38B4EC"/>
<path d="M57.4244 176.824C57.4273 178.014 58.3936 178.976 59.5831 178.973L73.2237 178.94C74.4132 178.938 75.3741 177.971 75.3712 176.78L75.3285 159.154C75.3256 157.965 74.36 157.002 73.1705 157.005L59.53 157.038C58.3404 157.041 57.3788 158.008 57.3817 159.198L57.4244 176.824Z" fill="url(#paint0_linear_1244_2120)"/>
<path d="M57.4045 168.601L59.9466 168.595C60.0615 171.308 62.8142 172.278 64.189 172.275C65.6006 172.272 65.3078 171.187 66.5751 171.184C67.8409 171.181 67.4823 172.122 69.0376 172.118C70.5568 172.115 73.051 170.987 73.045 168.491L75.2526 168.485" stroke="#231F20" stroke-width="0.145046"/>
<path d="M60.2769 179.009L60.2548 169.915" stroke="#231F20" stroke-width="0.145046"/>
<path d="M64.4717 178.999L64.4554 172.266" stroke="#231F20" stroke-width="0.145046"/>
<path d="M68.6802 178.989L68.6634 172.084" stroke="#231F20" stroke-width="0.145046"/>
<path d="M72.8896 178.979L72.8668 169.576" stroke="#231F20" stroke-width="0.145046"/>
<path d="M72.8365 157.124L72.8599 166.754" stroke="#231F20" stroke-width="0.145046"/>
<path d="M68.6273 157.084L68.6445 164.182" stroke="#231F20" stroke-width="0.145046"/>
<path d="M64.4187 157.144L64.4354 164.034L64.4363 164.112C65.5484 164.238 65.3793 165.18 66.5612 165.178C67.827 165.175 67.4632 164.235 69.0191 164.231C70.5383 164.228 73.038 165.343 73.0441 167.839L75.251 167.834" stroke="#231F20" stroke-width="0.145046" stroke-linejoin="round"/>
<path d="M60.2242 157.154L60.2465 166.342L60.2468 166.469C60.0728 166.855 59.9629 167.298 59.9453 167.799L57.4025 167.805" stroke="#231F20" stroke-width="0.145046" stroke-linejoin="round"/>
</g>
</g>
<defs>
<filter id="filter0_d_1244_2120" x="0" y="0" width="163" height="208" filterUnits="userSpaceOnUse" color-interpolation-filters="sRGB">
<feFlood flood-opacity="0" result="BackgroundImageFix"/>
<feColorMatrix in="SourceAlpha" type="matrix" values="0 0 0 0 0 0 0 0 0 0 0 0 0 0 0 0 0 0 127 0" result="hardAlpha"/>
<feOffset dx="2" dy="4"/>
<feGaussianBlur stdDeviation="8"/>
<feComposite in2="hardAlpha" operator="out"/>
<feColorMatrix type="matrix" values="0 0 0 0 0 0 0 0 0 0 0 0 0 0 0 0 0 0 0.08 0"/>
<feBlend mode="normal" in2="BackgroundImageFix" result="effect1_dropShadow_1244_2120"/>
<feBlend mode="normal" in="SourceGraphic" in2="effect1_dropShadow_1244_2120" result="shape"/>
</filter>
<linearGradient id="paint0_linear_1244_2120" x1="56.8201" y1="177.592" x2="76.0004" y2="158.319" gradientUnits="userSpaceOnUse">
<stop stop-color="#A7A5A6"/>
<stop offset="0.0443919" stop-color="#A7A5A6"/>
<stop offset="0.264045" stop-color="#7B7979"/>
<stop offset="0.522472" stop-color="#D3D2D2"/>
<stop offset="0.571812" stop-color="#D3D2D2"/>
<stop offset="0.815951" stop-color="#7B7979"/>
<stop offset="1" stop-color="#D3D2D2"/>
</linearGradient>
<clipPath id="clip0_1244_2120">
<rect x="14" y="12" width="131" height="176" rx="4" fill="white"/>
</clipPath>
</defs>
</svg>
