<svg width="131" height="88" viewBox="0 0 131 88" fill="none" xmlns="http://www.w3.org/2000/svg">
<mask id="mask0_1262_2092" style="mask-type:luminance" maskUnits="userSpaceOnUse" x="0" y="0" width="131" height="88">
<path d="M127 0H4C1.79086 0 0 0.89543 0 2V86C0 87.1046 1.79086 88 4 88H127C129.209 88 131 87.1046 131 86V2C131 0.89543 129.209 0 127 0Z" fill="white"/>
</mask>
<g mask="url(#mask0_1262_2092)">
<path d="M45.4956 39.893V30.402C45.4956 28.476 46.6752 26.678 48.6356 25.618L94.2029 0.95803C98.8789 -1.57287 105.105 1.21003 105.044 5.80403L105.04 129.745C105.015 131.659 103.825 133.438 101.868 134.484L87.3439 141.712C82.6942 144.199 76.5346 141.462 76.5346 136.91V46.065C76.5346 41.882 71.2458 39.107 66.6131 40.861L55.4158 45.098C50.7837 46.852 45.4956 44.077 45.4956 39.893Z" fill="#EDEDED"/>
<path d="M27.2947 72.4709L28.187 73.2959C29.7172 71.8829 30.5603 70.0029 30.5603 68.0049C30.5603 66.0059 29.7172 64.1269 28.187 62.7139L27.2947 63.5379C28.587 64.7309 29.2979 66.3179 29.2979 68.0049C29.2979 69.6919 28.587 71.2789 27.2947 72.4709ZM25.8913 71.1749C26.8084 70.3289 27.3132 69.2029 27.3132 68.0049C27.3132 66.8069 26.8084 65.6809 25.8913 64.8339L24.9998 65.6579C25.6781 66.2849 26.0516 67.1189 26.0516 68.0049C26.0516 68.8919 25.6781 69.7249 24.9998 70.3519L25.8913 71.1749ZM29.5895 74.5919L30.4828 75.4159C34.9077 71.3299 34.9077 64.6799 30.4828 60.5949L29.5895 61.4179C33.522 65.0489 33.522 70.9599 29.5895 74.5919ZM31.8861 76.7109L32.7785 77.5359C35.535 74.9899 37.0528 71.6049 37.0528 68.0049C37.0528 64.4049 35.535 61.0189 32.7785 58.4729L31.8861 59.2979C34.4038 61.6239 35.7904 64.7159 35.7904 68.0049C35.7904 71.2939 34.4038 74.3859 31.8861 76.7109Z" fill="#38B4EC"/>
<path d="M43.4243 76.8239C43.4272 78.0139 44.3935 78.9759 45.583 78.9729L59.2236 78.9399C60.4131 78.9379 61.374 77.9709 61.3711 76.7799L61.3284 59.1539C61.3255 57.9649 60.3599 57.0019 59.1704 57.0049L45.5299 57.0379C44.3403 57.0409 43.3787 58.0079 43.3816 59.1979L43.4243 76.8239Z" fill="url(#paint0_linear_1262_2092)"/>
<path d="M43.4045 68.6011L45.9466 68.5951C46.0615 71.3081 48.8142 72.2781 50.189 72.2751C51.6006 72.2721 51.3078 71.1871 52.5751 71.1841C53.8409 71.1811 53.4823 72.1221 55.0376 72.1181C56.5568 72.1151 59.051 70.9871 59.045 68.4911L61.2526 68.4851" stroke="#231F20" stroke-width="0.145046"/>
<path d="M46.277 79.009L46.2549 69.915" stroke="#231F20" stroke-width="0.145046"/>
<path d="M50.4716 78.9991L50.4553 72.2661" stroke="#231F20" stroke-width="0.145046"/>
<path d="M54.6801 78.989L54.6633 72.084" stroke="#231F20" stroke-width="0.145046"/>
<path d="M58.8895 78.9789L58.8667 69.5759" stroke="#231F20" stroke-width="0.145046"/>
<path d="M58.8364 57.124L58.8598 66.754" stroke="#231F20" stroke-width="0.145046"/>
<path d="M54.6272 57.084L54.6444 64.182" stroke="#231F20" stroke-width="0.145046"/>
<path d="M50.4187 57.144L50.4354 64.034L50.4363 64.112C51.5484 64.238 51.3793 65.18 52.5612 65.178C53.827 65.175 53.4632 64.235 55.0191 64.231C56.5383 64.228 59.038 65.3431 59.0441 67.8391L61.251 67.834" stroke="#231F20" stroke-width="0.145046" stroke-linejoin="round"/>
<path d="M46.2243 57.1541L46.2466 66.342L46.2469 66.469C46.0729 66.855 45.963 67.298 45.9454 67.799L43.4026 67.805" stroke="#231F20" stroke-width="0.145046" stroke-linejoin="round"/>
</g>
<defs>
<linearGradient id="paint0_linear_1262_2092" x1="42.82" y1="77.5919" x2="62.0003" y2="58.3189" gradientUnits="userSpaceOnUse">
<stop stop-color="#A7A5A6"/>
<stop offset="0.0443919" stop-color="#A7A5A6"/>
<stop offset="0.264045" stop-color="#7B7979"/>
<stop offset="0.522472" stop-color="#D3D2D2"/>
<stop offset="0.571812" stop-color="#D3D2D2"/>
<stop offset="0.815951" stop-color="#7B7979"/>
<stop offset="1" stop-color="#D3D2D2"/>
</linearGradient>
</defs>
</svg>
