<svg width="134" height="160" viewBox="0 0 134 160" fill="none" xmlns="http://www.w3.org/2000/svg">
<g clip-path="url(#clip0_5059_47469)">
<rect width="134" height="160" rx="4" fill="#004C97"/>
<path d="M73.4255 96.6886C71.235 97.716 41.2922 114.066 41.2922 114.066L39.7437 114.927C38.4872 115.97 38.1602 116.623 38 117.844V125.45C38.516 127.847 40.0807 128.568 42.1978 129.106C42.9484 129.197 43.852 129.153 44.7043 128.922L54.3827 125.393C55.4078 125.28 56.4436 125.308 57.0951 125.544C59.3108 126.347 60.3262 127.3 60.5292 129.378V195.663C60.7731 197.413 61.8731 198.473 62.6475 198.853C64.7096 199.866 65.8324 199.92 68.064 199.127L79.2562 193.542C80.5759 192.541 81.0436 191.927 81.2598 190.305C81.2598 190.305 81.2759 101 81.2309 100.034C81.1858 99.067 80.865 98.397 80.467 97.9137C80.2125 97.6047 79.8084 97.1965 79.2836 96.8853C77.9798 96.1119 76.4647 95.7611 74.7365 96.1764C74.2916 96.2937 73.8865 96.4724 73.4255 96.6886Z" fill="#00428D"/>
</g>
<defs>
<clipPath id="clip0_5059_47469">
<rect width="134" height="160" rx="4" fill="white"/>
</clipPath>
</defs>
</svg>
