<?xml version="1.0" encoding="UTF-8"?>
<svg id="Capa_2" data-name="Capa 2" xmlns="http://www.w3.org/2000/svg" viewBox="0 0 132.12 158.51">
  <defs>
    <style>
      .cls-1 {
        fill: #004c97;
      }

      .cls-2 {
        fill: #00a3e0;
      }
    </style>
  </defs>
  <g id="Capa_1-2" data-name="Capa 1">
    <g>
      <path class="cls-1" d="M68.7,0c2.06,.41,4.13,.77,6.18,1.25,14.04,3.29,26.04,16.69,27.93,31.02,1.24,9.43-.13,18.35-5.46,26.33-7.08,10.6-16.87,16.77-29.82,17.64-17.01,1.15-31-8.86-37.34-22.43-5.96-12.75-3.55-29.74,5.8-40.31C41.71,7,48.63,2.53,57.19,.79,58.64,.49,60.11,.26,61.58,0c2.37,0,4.75,0,7.12,0Z"/>
      <path class="cls-2" d="M66.07,158.5c-12.59,0-25.17,0-37.76,0-6.38,0-12.39-1.28-17.68-5.05-6.06-4.32-9.64-10.25-10.27-17.6-1.13-13.11,.4-25.97,5.31-38.24,2.95-7.36,7.38-13.7,14.66-17.56,4.52-2.4,9.36-3.54,14.43-3.43,1.55,.03,3.19,.81,4.6,1.59,2.39,1.31,4.61,2.93,6.93,4.36,13.21,8.13,26.44,8.13,39.64-.02,1.58-.97,3.23-1.88,4.66-3.04,4.05-3.28,8.57-3.3,13.33-2.3,9.26,1.95,15.78,7.42,20.27,15.57,4.44,8.05,6.43,16.81,7.32,25.84,.46,4.71,.67,9.47,.61,14.21-.18,13.63-9.94,24.09-23.5,25.38-1.95,.19-3.91,.29-5.86,.29-12.23,.03-24.45,.01-36.68,.01Z"/>
    </g>
  </g>
</svg>