<svg width="24" height="24" viewBox="0 0 24 24" fill="none" xmlns="http://www.w3.org/2000/svg">
<path d="M11.886 11.7073C12.9448 11.7073 13.8616 11.3275 14.6108 10.5782C15.3599 9.82909 15.7397 8.91247 15.7397 7.85351C15.7397 6.79492 15.36 5.87817 14.6107 5.12878C13.8614 4.37976 12.9447 4 11.886 4C10.827 4 9.91039 4.37976 9.16125 5.1289C8.4121 5.87805 8.03222 6.79479 8.03222 7.85351C8.03222 8.91247 8.4121 9.82921 9.16125 10.5784C9.91064 11.3274 10.8274 11.7073 11.886 11.7073ZM9.82433 5.79187C10.3992 5.21704 11.0735 4.93762 11.886 4.93762C12.6984 4.93762 13.3728 5.21704 13.9477 5.79187C14.5226 6.36682 14.8021 7.04125 14.8021 7.85351C14.8021 8.66601 14.5226 9.34032 13.9477 9.91527C13.3728 10.4902 12.6984 10.7696 11.886 10.7696C11.0737 10.7696 10.3994 10.4901 9.82433 9.91527C9.24938 9.34044 8.96984 8.66601 8.96984 7.85351C8.96984 7.04125 9.24938 6.36682 9.82433 5.79187Z" fill="#004C97"/>
<path d="M18.629 16.3032C18.6074 15.9914 18.5637 15.6514 18.4994 15.2922C18.4345 14.9304 18.3508 14.5884 18.2507 14.2758C18.1472 13.9526 18.0067 13.6335 17.8328 13.3278C17.6525 13.0104 17.4406 12.734 17.2028 12.5066C16.9541 12.2687 16.6497 12.0774 16.2976 11.9379C15.9468 11.7991 15.558 11.7288 15.1421 11.7288C14.9788 11.7288 14.8208 11.7958 14.5157 11.9944C14.328 12.1168 14.1084 12.2584 13.8633 12.415C13.6537 12.5486 13.3698 12.6737 13.019 12.787C12.6769 12.8977 12.3295 12.9539 11.9865 12.9539C11.6437 12.9539 11.2963 12.8977 10.9539 12.787C10.6035 12.6738 10.3195 12.5487 10.1102 12.4152C9.86743 12.26 9.64771 12.1184 9.45715 11.9943C9.15234 11.7957 8.99439 11.7286 8.83106 11.7286C8.41504 11.7286 8.02637 11.7991 7.67566 11.938C7.32385 12.0773 7.01929 12.2686 6.77039 12.5067C6.53259 12.7343 6.32068 13.0105 6.1405 13.3278C5.9668 13.6335 5.82617 13.9525 5.72266 14.2759C5.62268 14.5885 5.53906 14.9304 5.47412 15.2922C5.40967 15.6509 5.36609 15.9911 5.34448 16.3036C5.32324 16.6091 5.3125 16.9271 5.3125 17.2484C5.3125 18.0836 5.578 18.7598 6.10156 19.2584C6.61865 19.7505 7.30273 20 8.13489 20H15.839C16.6709 20 17.355 19.7505 17.8722 19.2584C18.3959 18.7601 18.6614 18.0837 18.6614 17.2483C18.6613 16.9259 18.6504 16.6079 18.629 16.3032ZM17.2257 18.5791C16.884 18.9043 16.4304 19.0624 15.8389 19.0624H8.13489C7.54321 19.0624 7.0896 18.9043 6.74805 18.5792C6.41296 18.2602 6.25012 17.8248 6.25012 17.2484C6.25012 16.9486 6.26001 16.6526 6.27979 16.3684C6.29907 16.0896 6.3385 15.7833 6.39697 15.4579C6.45471 15.1365 6.5282 14.8348 6.6156 14.5618C6.69946 14.2999 6.81384 14.0406 6.95569 13.7909C7.09106 13.5529 7.24683 13.3486 7.4187 13.1841C7.57947 13.0301 7.7821 12.9042 8.02087 12.8097C8.2417 12.7223 8.48987 12.6744 8.75928 12.6672C8.79211 12.6847 8.85059 12.718 8.94531 12.7798C9.13806 12.9054 9.36023 13.0487 9.60584 13.2056C9.88269 13.3821 10.2394 13.5415 10.6655 13.6791C11.1012 13.8199 11.5455 13.8915 11.9866 13.8915C12.4276 13.8915 12.8721 13.8199 13.3075 13.6792C13.734 13.5414 14.0906 13.3821 14.3678 13.2053C14.6191 13.0447 14.8351 12.9055 15.0278 12.7798C15.1226 12.7181 15.181 12.6847 15.2139 12.6672C15.4834 12.6744 15.7316 12.7223 15.9525 12.8097C16.1912 12.9042 16.3938 13.0303 16.5546 13.1841C16.7264 13.3485 16.8822 13.5527 17.0176 13.791C17.1595 14.0406 17.274 14.3 17.3578 14.5616C17.4453 14.8351 17.5189 15.1366 17.5765 15.4578C17.6349 15.7838 17.6744 16.0902 17.6937 16.3685V16.3688C17.7136 16.6518 17.7236 16.9477 17.7238 17.2484C17.7236 17.8249 17.5608 18.2602 17.2257 18.5791Z" fill="#004C97"/>
</svg>
