<svg width="149" height="149" viewBox="0 0 149 149" fill="none" xmlns="http://www.w3.org/2000/svg">
<circle cx="74.5" cy="74.5" r="74" fill="url(#paint0_linear_5427_32790)"/>
<path d="M74.4923 49.9819C88.0689 50.0551 99.0214 60.8895 99.0098 74.5273C98.9985 88.1364 88.0846 99.0204 74.5089 99.0181C60.8827 99.0163 49.9818 88.0926 49.9902 74.4916C49.9984 60.9106 60.8978 50.0783 74.4923 49.9819Z" fill="#00A3E0"/>
<path d="M75.0533 75.7828C79.9533 75.9624 84.2887 78.2003 87.431 82.6665C88.1833 83.7357 87.9567 85.0881 86.9391 85.8094C85.8955 86.5493 84.5501 86.3174 83.7812 85.2091C82.1584 82.8711 79.9971 81.304 77.2392 80.598C72.7837 79.4575 68.1266 81.1728 65.4412 84.9105C65.2692 85.1502 65.1044 85.402 64.8952 85.606C64.0813 86.4013 62.8279 86.4448 61.9464 85.7284C61.04 84.9923 60.8604 83.7418 61.5382 82.7254C62.8322 80.7855 64.4832 79.2123 66.4835 78.0143C68.9552 76.5339 71.6417 75.8103 75.0533 75.7828Z" fill="#EDEDED"/>
<path d="M67.2689 70.9962C64.9387 71.6897 62.7933 71.3647 60.87 69.8469C59.8394 69.0334 59.6563 67.6824 60.4086 66.6991C61.1845 65.6853 62.52 65.5336 63.6075 66.3356C65.0867 67.4259 66.8075 66.8274 67.2709 65.0612C67.6156 63.7469 68.7376 63.0224 69.9771 63.3137C71.203 63.6021 71.9104 64.7801 71.6028 66.0916C71.0388 68.4972 69.5509 70.0973 67.2689 70.9962Z" fill="#004C97"/>
<path d="M81.3373 70.8309C79.1882 69.6686 77.897 67.9239 77.6121 65.4901C77.4563 64.1575 78.3 63.0706 79.5561 62.9249C80.797 62.781 81.8343 63.6216 82.0304 64.9296C82.307 66.774 83.9338 67.5473 85.5589 66.6063C86.4471 66.0919 87.4257 66.1363 88.1447 66.7233C88.9061 67.3445 89.1814 68.2602 88.8765 69.2084C88.7163 69.7077 88.3861 70.0849 87.9477 70.3632C85.8244 71.7103 83.6158 71.8136 81.3373 70.8309Z" fill="#004C97"/>
<defs>
<linearGradient id="paint0_linear_5427_32790" x1="74.5" y1="0.5" x2="74.5" y2="110.5" gradientUnits="userSpaceOnUse">
<stop stop-color="#DAE7ED" stop-opacity="0.44"/>
<stop offset="1" stop-color="white" stop-opacity="0"/>
</linearGradient>
</defs>
</svg>
