<svg width="24" height="24" viewBox="0 0 24 24" fill="none" xmlns="http://www.w3.org/2000/svg">
<path d="M18.9617 20C17.1996 20 15.4297 19.5477 13.6519 18.6431C11.8741 17.7384 10.2694 16.5703 8.83776 15.1386C7.4061 13.707 6.24189 12.1062 5.34513 10.3363C4.44838 8.56637 4 6.80039 4 5.03835C4 4.73943 4.09833 4.49164 4.29499 4.29499C4.49164 4.09833 4.73943 4 5.03835 4H7.72861C7.98033 4 8.19272 4.07866 8.36578 4.23599C8.53884 4.39331 8.65683 4.6057 8.71976 4.87316L9.28614 7.39823C9.3176 7.63422 9.30973 7.84661 9.26254 8.0354C9.21534 8.22419 9.12094 8.38151 8.97935 8.50737L6.76106 10.6785C7.65782 12.1888 8.66077 13.4907 9.76991 14.5841C10.8791 15.6775 12.1495 16.6175 13.5811 17.4041L15.705 15.1858C15.8623 15.0128 16.0393 14.8909 16.236 14.8201C16.4326 14.7493 16.6411 14.7375 16.8614 14.7847L19.1504 15.3038C19.4022 15.351 19.6067 15.469 19.764 15.6578C19.9213 15.8466 20 16.0747 20 16.3422V18.9381C20 19.237 19.9017 19.4887 19.705 19.6932C19.5084 19.8977 19.2606 20 18.9617 20ZM6.21829 9.71091L8.15339 7.82301C8.18486 7.79154 8.20452 7.75615 8.21239 7.71681C8.22026 7.67748 8.22419 7.64208 8.22419 7.61062L7.70501 5.22714C7.68928 5.16421 7.66568 5.12094 7.63422 5.09734C7.60275 5.07375 7.56342 5.06195 7.51622 5.06195H5.20354C5.15634 5.06195 5.12094 5.07375 5.09734 5.09734C5.07375 5.12094 5.06195 5.15634 5.06195 5.20354C5.04621 5.81711 5.14061 6.49754 5.34513 7.24484C5.54966 7.99213 5.84071 8.81416 6.21829 9.71091ZM18.7965 18.9381C18.8437 18.9381 18.8791 18.9263 18.9027 18.9027C18.9263 18.8791 18.9381 18.8437 18.9381 18.7965V16.4838C18.9381 16.4366 18.9263 16.3972 18.9027 16.3658C18.8791 16.3343 18.8437 16.3107 18.7965 16.295L16.649 15.8702C16.6175 15.8545 16.586 15.8545 16.5546 15.8702L16.4602 15.9174L14.5959 17.8997C15.2409 18.2144 15.9449 18.4582 16.708 18.6313C17.471 18.8043 18.1672 18.9066 18.7965 18.9381Z" fill="#919394"/>
</svg>
