<svg width="148" height="148" viewBox="0 0 148 148" fill="none" xmlns="http://www.w3.org/2000/svg">
<circle cx="74" cy="74" r="74" fill="url(#paint0_linear_5427_34745)"/>
<path d="M73.9923 49.4819C87.5689 49.5551 98.5214 60.3895 98.5098 74.0273C98.4985 87.6364 87.5846 98.5204 74.0089 98.5181C60.3827 98.5163 49.4818 87.5926 49.4902 73.9916C49.4984 60.4106 60.3978 49.5783 73.9923 49.4819Z" fill="white"/>
<path d="M74.5532 75.2828C79.4532 75.4624 83.7886 77.7003 86.9309 82.1665C87.6832 83.2357 87.4566 84.5881 86.4391 85.3094C85.3954 86.0493 84.05 85.8174 83.2811 84.7091C81.6583 82.3711 79.497 80.804 76.7392 80.098C72.2837 78.9575 67.6265 80.6728 64.9412 84.4105C64.7691 84.6502 64.6043 84.902 64.3951 85.106C63.5813 85.9013 62.3278 85.9448 61.4464 85.2284C60.5399 84.4923 60.3603 83.2418 61.0381 82.2254C62.3322 80.2855 63.9831 78.7123 65.9834 77.5143C68.4552 76.0339 71.1416 75.3103 74.5532 75.2828Z" fill="#00A3E0"/>
<path d="M66.7688 70.4962C64.4386 71.1897 62.2933 70.8647 60.3699 69.3469C59.3393 68.5334 59.1562 67.1824 59.9086 66.1991C60.6844 65.1853 62.02 65.0336 63.1074 65.8356C64.5866 66.9259 66.3075 66.3274 66.7708 64.5612C67.1155 63.2469 68.2375 62.5224 69.4771 62.8137C70.7029 63.1021 71.4103 64.2801 71.1028 65.5916C70.5387 67.9972 69.0508 69.5973 66.7688 70.4962Z" fill="#00A3E0"/>
<path d="M80.8372 70.3309C78.6881 69.1686 77.3969 67.4239 77.112 64.9901C76.9562 63.6575 77.7999 62.5706 79.056 62.4249C80.297 62.281 81.3342 63.1216 81.5304 64.4296C81.8069 66.274 83.4337 67.0473 85.0589 66.1063C85.947 65.5919 86.9257 65.6363 87.6447 66.2233C88.406 66.8445 88.6814 67.7602 88.3764 68.7084C88.2163 69.2077 87.8861 69.5849 87.4476 69.8632C85.3243 71.2103 83.1157 71.3136 80.8372 70.3309Z" fill="#00A3E0"/>
<defs>
<linearGradient id="paint0_linear_5427_34745" x1="74" y1="0" x2="74" y2="110" gradientUnits="userSpaceOnUse">
<stop stop-color="#0060B2"/>
<stop offset="1" stop-color="#1969AD" stop-opacity="0"/>
</linearGradient>
</defs>
</svg>
