<svg width="137" height="56" viewBox="0 0 137 56" fill="none" xmlns="http://www.w3.org/2000/svg">
<path d="M95.7467 22.0687V21.9202C95.7467 10.1277 104.18 0.797363 116.123 0.797363C130.081 0.797363 136.5 11.0223 136.5 22.8901V22.9171C136.5 24.5097 135.208 25.8016 133.616 25.8016H109.406C110.526 30.2055 113.734 32.4441 118.138 32.4441C120.707 32.4441 122.881 31.7017 125.064 30.0859C126.352 29.1315 128.134 29.199 129.368 30.2209L134.932 34.8311C131.051 39.7575 125.454 43.0412 117.392 43.0412C104.703 43.0431 95.7467 34.6075 95.7467 22.0687ZM123.213 18.5614C122.691 14.0823 120.078 11.246 116.197 11.246C112.464 11.246 109.926 14.1575 109.18 18.5614H123.213Z" fill="#004C97"/>
<path d="M0.5 22.0688V21.9203C0.5 10.4844 9.8573 0.905396 22.7778 0.905396C35.6251 0.905396 44.9072 10.336 44.9072 21.7718V21.9203C44.9072 33.3561 35.5499 42.9352 22.6294 42.9352C9.78211 42.9352 0.5 33.5046 0.5 22.0688ZM31.1691 22.0688V21.9203C31.1691 17.0189 27.604 12.8599 22.6294 12.8599C17.5063 12.8599 14.2381 16.9437 14.2381 21.7718V21.9203C14.2381 26.8216 17.8032 30.9787 22.7778 30.9787C27.9009 30.9787 31.1691 26.8949 31.1691 22.0688Z" fill="#004C97"/>
<path d="M101.55 51.9917C101.55 51.2841 101.72 50.6536 102.061 50.1041C102.401 49.5526 102.863 49.1304 103.446 48.8373C104.028 48.5442 104.682 48.3958 105.403 48.3958C106.116 48.3958 106.724 48.5249 107.225 48.7852C107.726 49.0436 108.091 49.3483 108.318 49.6934L106.666 51.2417C106.55 51.0662 106.394 50.9255 106.197 50.8175C106.001 50.7115 105.773 50.6575 105.513 50.6575C105.129 50.6575 104.809 50.7751 104.551 51.0084C104.294 51.2417 104.165 51.5695 104.165 51.9917C104.165 52.414 104.294 52.7437 104.554 52.9847C104.813 53.2258 105.133 53.3453 105.513 53.3453C105.767 53.3453 105.993 53.2894 106.19 53.1756C106.386 53.0619 106.544 52.9192 106.666 52.7495L108.318 54.3113C108.087 54.6545 107.72 54.9553 107.217 55.2175C106.716 55.4798 106.11 55.609 105.403 55.609C104.682 55.609 104.028 55.4605 103.446 55.1636C102.863 54.8666 102.401 54.4424 102.061 53.889C101.72 53.3376 101.55 52.7052 101.55 51.9917Z" fill="#00A3E0"/>
<path d="M108.97 51.986C108.97 50.8812 109.255 50.0077 109.828 49.3637C110.399 48.7197 111.122 48.3977 111.997 48.3977C112.784 48.3977 113.426 48.6946 113.919 49.2885V48.5712H116.495V55.4374H113.933V54.7163C113.401 55.314 112.755 55.6128 111.997 55.6128C111.577 55.6128 111.183 55.5338 110.821 55.3757C110.457 55.2176 110.136 54.99 109.859 54.6912C109.581 54.3923 109.363 54.0106 109.207 53.5478C109.049 53.0793 108.97 52.5606 108.97 51.986ZM111.953 51.0123C111.71 51.2475 111.588 51.5714 111.588 51.986C111.588 52.4005 111.712 52.7303 111.957 52.9771C112.201 53.2239 112.504 53.3473 112.867 53.3473C113.046 53.3473 113.241 53.3048 113.449 53.2181C113.657 53.1313 113.819 53.0156 113.935 52.8729V51.1145C113.819 50.9756 113.657 50.8638 113.453 50.7828C113.248 50.7018 113.052 50.6594 112.867 50.6594C112.5 50.6594 112.196 50.777 111.953 51.0123Z" fill="#00A3E0"/>
<path d="M118.19 55.4354V48.5693H120.751V49.3232C120.969 49.0629 121.279 48.8392 121.68 48.6503C122.081 48.4613 122.475 48.3688 122.853 48.3688V50.8252C122.714 50.779 122.519 50.7558 122.27 50.7558C121.969 50.7558 121.674 50.7982 121.385 50.8812C121.096 50.9641 120.884 51.0836 120.751 51.2417V55.4354H118.19Z" fill="#00A3E0"/>
<path d="M123.549 51.9917C123.549 50.885 123.834 50.0096 124.407 49.3637C124.977 48.7177 125.7 48.3957 126.576 48.3957C127.372 48.3957 128.018 48.6946 128.514 49.2923V45.9528H131.074V55.4354H128.514V54.7143C127.981 55.312 127.336 55.6109 126.576 55.6109C126.155 55.6109 125.762 55.5318 125.4 55.3737C125.037 55.2156 124.715 54.9881 124.438 54.6892C124.16 54.3903 123.942 54.0105 123.786 53.5477C123.628 53.085 123.549 52.5663 123.549 51.9917ZM126.533 51.018C126.289 51.2571 126.165 51.581 126.165 51.9937C126.165 52.4063 126.289 52.7341 126.533 52.9789C126.778 53.2238 127.081 53.3472 127.443 53.3472C127.625 53.3472 127.818 53.3048 128.026 53.22C128.234 53.1351 128.396 53.0194 128.512 52.8767V51.1144C128.396 50.9756 128.234 50.8657 128.03 50.7847C127.823 50.7037 127.629 50.6632 127.443 50.6632C127.081 50.6594 126.778 50.7789 126.533 51.018Z" fill="#00A3E0"/>
<path d="M64.9561 25.5028V29.7255C64.9561 30.5816 65.4805 31.3818 66.354 31.8542L86.6265 42.8253C88.707 43.9514 91.4758 42.7135 91.4508 40.6696V6.4238C91.4392 5.57156 90.9109 4.78101 90.0393 4.3144L83.5762 1.00763C81.5073 -0.0991288 78.7674 1.11946 78.7674 3.14402V22.7571C78.7674 24.6178 76.415 25.8518 74.3539 25.0729L69.3715 23.1871C67.3103 22.4062 64.9561 23.6422 64.9561 25.5028Z" fill="#004C97"/>
<path d="M75.692 18.3378V14.1151C75.692 13.259 75.1675 12.4588 74.2941 11.9865L54.0215 1.01528C51.9411 -0.110756 49.1722 1.12712 49.1973 3.17095L49.1992 37.5074C49.2108 38.3597 49.7391 39.1502 50.6106 39.6168L57.0719 42.833C59.1408 43.9397 61.8807 42.7211 61.8807 40.6966V21.0835C61.8807 19.2228 64.233 17.9888 66.2942 18.7677L71.2765 20.6535C73.3397 21.4324 75.692 20.1984 75.692 18.3378Z" fill="#00A3E0"/>
</svg>
