<svg width="125" height="88" viewBox="0 0 125 88" fill="none" xmlns="http://www.w3.org/2000/svg">
<g clip-path="url(#clip0_482_2025)">
<path d="M5.58146 68.5845C5.58146 70.6647 7.00675 70.8538 8.3081 70.8538C13.9473 70.8538 15.8063 66.5043 15.8063 62.5329C15.8063 57.553 12.6459 53.9599 7.62644 53.9599C6.57296 53.9599 6.07721 54.0229 5.58146 54.0859V68.5845ZM2.97876 56.1031C2.97876 53.7077 1.73938 53.8338 0.56197 53.8338V53.1404C1.55347 53.2034 2.60695 53.2034 3.66042 53.2034C4.77586 53.2034 6.26312 53.1404 8.18416 53.1404C15.0007 53.1404 18.6569 57.7421 18.6569 62.4699C18.6569 65.1175 17.1077 71.7364 7.87431 71.7364C6.51099 71.7364 5.33358 71.6733 4.0942 71.6733C2.91679 71.6733 1.73938 71.6733 0.56197 71.7364V71.043C2.1112 70.8538 2.91679 70.8538 2.97876 69.0258V56.1031Z" fill="black"/>
<path d="M22.437 55.4728C21.7554 55.4728 21.1357 54.8425 21.1357 54.1491C21.1357 53.4556 21.7554 52.8883 22.437 52.8883C23.1187 52.8883 23.7384 53.4556 23.7384 54.1491C23.7384 54.8425 23.1187 55.4728 22.437 55.4728ZM19.6484 71.043H20.1442C20.8878 71.043 21.3836 71.043 21.3836 70.1605V62.9743C21.3836 61.7766 21.0117 61.6505 20.0202 61.0832V60.6419C21.2596 60.2637 22.7469 59.7594 22.8088 59.6963C22.9948 59.5703 23.1187 59.5703 23.3046 59.5703C23.4285 59.5703 23.4905 59.7594 23.4905 59.9485V70.1605C23.4905 71.043 24.0482 71.043 24.7919 71.043H25.2256V71.7365C24.3581 71.7365 23.4285 71.6734 22.499 71.6734C21.5695 71.6734 20.6399 71.6734 19.6484 71.7365V71.043Z" fill="black"/>
<path d="M27.7664 63.1003C27.7664 62.0917 27.4565 61.8395 26.2171 61.3352V60.8309C27.3326 60.4527 28.3861 60.1375 29.6874 59.5702C29.7494 59.5702 29.8733 59.6332 29.8733 59.8223V61.5874C31.3606 60.5157 32.6619 59.5702 34.3971 59.5702C36.6279 59.5702 37.4335 61.2092 37.4335 63.2894V70.1604C37.4335 71.043 37.9913 71.043 38.7349 71.043H39.2306V71.7364C38.3011 71.7364 37.3716 71.6733 36.442 71.6733C35.5125 71.6733 34.583 71.6733 33.5915 71.7364V71.043H34.0872C34.8308 71.043 35.3266 71.043 35.3266 70.1604V63.2264C35.3266 61.7135 34.3971 60.957 32.9098 60.957C32.0422 60.957 30.7409 61.6504 29.8733 62.2178V70.0974C29.8733 70.9799 30.431 70.9799 31.1747 70.9799H31.6704V71.6733C30.7409 71.6733 29.8113 71.6103 28.8818 71.6103C27.9523 71.6103 27.0227 71.6103 26.0312 71.6733V70.9799H26.527C27.2706 70.9799 27.7664 70.9799 27.7664 70.0974V63.1003Z" fill="black"/>
<path d="M45.7993 63.5415C46.481 63.5415 46.543 63.1633 46.543 62.8481C46.543 61.4613 45.7374 60.3897 44.2501 60.3897C42.6389 60.3897 41.5235 61.5874 41.2136 63.5415H45.7993ZM41.1517 64.361C41.0897 64.6132 41.0897 64.9914 41.1517 65.937C41.2756 68.4584 42.8868 70.5387 44.9938 70.5387C46.419 70.5387 47.5964 69.7192 48.526 68.7736L48.8978 69.1519C47.7204 70.7908 46.1712 72.1776 44.0642 72.1776C39.9123 72.1776 39.0447 68.0802 39.0447 66.3782C39.0447 61.1461 42.515 59.5702 44.3121 59.5702C46.419 59.5702 48.7119 60.957 48.7739 63.7306C48.7739 63.9198 48.7739 64.0458 48.7739 64.235L48.526 64.4241H41.1517V64.361Z" fill="black"/>
<path d="M49.3936 71.043H50.0752C50.8188 71.043 51.3146 71.043 51.3146 70.1604V62.659C51.3146 61.8395 50.3231 61.6504 49.9513 61.4613V61.0831C51.8723 60.2636 52.9258 59.5702 53.1737 59.5702C53.2976 59.5702 53.4215 59.6332 53.4215 59.9484V62.3438H53.4835C54.1652 61.2722 55.2186 59.5702 56.8298 59.5702C57.5115 59.5702 58.3171 60.0114 58.3171 60.957C58.3171 61.6504 57.8213 62.3438 57.0777 62.3438C56.2721 62.3438 56.2721 61.7135 55.3426 61.7135C54.9088 61.7135 53.4215 62.3438 53.4215 63.9198V70.1604C53.4215 71.043 53.9173 71.043 54.6609 71.043H56.1482V71.7364C54.7229 71.7364 53.6074 71.6733 52.492 71.6733C51.4385 71.6733 50.3231 71.6733 49.3936 71.7364V71.043Z" fill="black"/>
<path d="M59.4945 68.0172C59.8663 69.7822 60.8578 71.2951 62.7789 71.2951C64.3281 71.2951 64.8858 70.3496 64.8858 69.404C64.8858 66.2521 59.1847 67.2607 59.1847 62.9742C59.1847 61.4613 60.3621 59.5702 63.2746 59.5702C64.1422 59.5702 65.2576 59.8223 66.2491 60.3266L66.435 63.0372H65.8153C65.5675 61.3352 64.6379 60.3897 62.9648 60.3897C61.9113 60.3897 60.9198 61.02 60.9198 62.1547C60.9198 65.3066 66.9928 64.298 66.9928 68.5215C66.9928 70.2865 65.6294 72.1776 62.469 72.1776C61.4155 72.1776 60.1762 71.7994 59.2466 71.2951L58.9368 68.2063L59.4945 68.0172Z" fill="black"/>
<path d="M90.7269 57.9313H90.0452C89.5495 54.8424 87.3806 53.5817 84.406 53.5817C81.3696 53.5817 77.0317 55.6619 77.0317 62.0287C77.0317 67.4499 80.8119 71.2952 84.8398 71.2952C87.4425 71.2952 89.6114 69.4671 90.1072 66.6934L90.7269 66.8826L90.1072 70.7909C88.9918 71.4843 86.0172 72.1777 84.2821 72.1777C78.1472 72.1777 74.2431 68.1433 74.2431 62.1548C74.2431 56.6705 79.0148 52.7622 84.1582 52.7622C86.2651 52.7622 88.3101 53.4556 90.3551 54.149L90.7269 57.9313Z" fill="black"/>
<path d="M91.6564 71.043H92.1522C92.8958 71.043 93.3916 71.043 93.3916 70.1605V55.3467C93.3916 53.5817 93.0197 53.5817 92.0282 53.2665V52.8252C93.0817 52.51 94.1972 52.0057 94.7549 51.6906C95.0647 51.5645 95.2506 51.3754 95.3126 51.3754C95.4985 51.3754 95.4985 51.5645 95.4985 51.7536V70.1605C95.4985 71.043 96.0562 71.043 96.7999 71.043H97.2336V71.7364C96.3661 71.7364 95.4365 71.6733 94.507 71.6733C93.5775 71.6733 92.6479 71.6733 91.6564 71.7364V71.043Z" fill="black"/>
<path d="M108.512 70.2866C108.512 70.7909 108.822 70.7909 109.256 70.7909C109.565 70.7909 109.937 70.7909 110.309 70.7909V71.3582C109.194 71.4843 107.025 72.0516 106.529 72.1777L106.405 72.1147V69.9714C104.856 71.2952 103.616 72.2408 101.757 72.2408C100.332 72.2408 98.8448 71.2952 98.8448 69.0889V62.1548C98.8448 61.4614 98.7209 60.768 97.2956 60.6419V60.1376C98.2251 60.1376 100.332 59.9485 100.704 59.9485C101.014 59.9485 101.014 60.1376 101.014 60.7049V67.576C101.014 68.3955 101.014 70.6648 103.307 70.6648C104.174 70.6648 105.352 69.9714 106.467 69.0259V61.9026C106.467 61.3983 105.228 61.0832 104.236 60.831V60.3267C106.591 60.1376 108.078 59.9485 108.326 59.9485C108.512 59.9485 108.512 60.1376 108.512 60.4528V70.2866Z" fill="black"/>
<path d="M113.717 68.7106C113.717 69.7192 114.647 71.4212 116.444 71.4212C119.233 71.4212 120.41 68.6476 120.41 66.2522C120.41 63.3524 118.241 60.957 116.196 60.957C115.205 60.957 114.399 61.5874 113.717 62.2178V68.7106ZM113.717 61.4613C114.771 60.5788 116.196 59.5702 117.621 59.5702C120.658 59.5702 122.517 62.2808 122.517 65.1805C122.517 68.6476 119.976 72.1777 116.258 72.1777C114.337 72.1777 113.284 71.5473 112.602 71.2321L111.796 71.8625L111.239 71.5473C111.487 69.9714 111.61 68.3954 111.61 66.8195V55.3467C111.61 53.5817 111.239 53.5817 110.247 53.2665V52.8252C111.301 52.51 112.416 52.0057 112.974 51.6906C113.284 51.5645 113.47 51.3754 113.531 51.3754C113.717 51.3754 113.717 51.5645 113.717 51.7536V61.4613Z" fill="black"/>
<path d="M0.56197 87.2435H0.747877C1.24363 87.2435 1.80135 87.1805 1.80135 86.424V78.7965C1.80135 78.0401 1.24363 77.977 0.747877 77.977H0.56197V77.5358C1.11969 77.5358 1.98726 77.5988 2.66892 77.5988C3.41254 77.5988 4.21814 77.5358 4.8998 77.5358V77.977H4.71389C4.21814 77.977 3.66042 78.0401 3.66042 78.7965V86.424C3.66042 87.1805 4.21814 87.2435 4.71389 87.2435H4.8998V87.6848C4.21814 87.6848 3.35058 87.6217 2.66892 87.6217C1.98726 87.6217 1.11969 87.6848 0.56197 87.6848V87.2435Z" fill="black"/>
<path d="M4.83783 87.6218V87.3066H4.71389C4.21814 87.3066 3.59845 87.2435 3.59845 86.4241V78.7966C3.59845 77.9771 4.21814 77.914 4.71389 77.914H4.83783V77.5989C4.15617 77.5989 3.35057 77.6619 2.66892 77.6619C1.98726 77.6619 1.18166 77.5989 0.623938 77.5989V77.914H0.747876C1.24363 77.914 1.86332 77.9771 1.86332 78.7966V86.4241C1.86332 87.2435 1.24363 87.3066 0.747876 87.3066H0.623938V87.6218C1.18166 87.6218 1.98726 87.5587 2.66892 87.5587C3.35057 87.5587 4.15617 87.6218 4.83783 87.6218ZM4.8998 87.7478C4.21814 87.7478 3.35057 87.6848 2.66892 87.6848C1.98726 87.6848 1.11969 87.7478 0.561969 87.7478H0.5V87.6848V87.2435V87.1805H0.561969H0.747876C1.24363 87.1805 1.73938 87.1175 1.73938 86.4241V78.7966C1.73938 78.1031 1.24363 78.0401 0.747876 78.0401H0.5V77.9771V77.4728H0.561969C1.11969 77.4728 1.98726 77.5358 2.66892 77.5358C3.35057 77.5358 4.21814 77.4728 4.8998 77.4728H4.96177V77.5358V78.0401H4.8998H4.71389C4.21814 78.0401 3.72239 78.1031 3.72239 78.7966V86.4241C3.72239 87.1175 4.21814 87.1805 4.71389 87.1805H4.96177V87.2435V87.7478H4.8998Z" fill="black"/>
<path d="M14.6909 84.8481V79.3638C14.6909 78.1661 13.8853 77.977 13.4515 77.977H13.1417V77.5358C13.8233 77.5358 14.443 77.5988 15.1247 77.5988C15.6824 77.5988 16.3021 77.5358 16.8598 77.5358V77.977H16.6739C16.0542 77.977 15.3726 78.1031 15.3726 79.8051V86.424C15.3726 86.9283 15.3726 87.4326 15.4345 87.8739H14.8768L7.5025 79.553V85.5415C7.5025 86.8022 7.75037 87.2435 8.86582 87.2435H9.11369V87.6848C8.494 87.6848 7.87431 87.6217 7.25462 87.6217C6.63493 87.6217 5.95327 87.6848 5.33358 87.6848V87.2435H5.51949C6.51099 87.2435 6.82084 86.5501 6.82084 85.4154V79.3008C6.82084 78.4813 6.13918 77.977 5.51949 77.977H5.45752V77.5358C6.01524 77.5358 6.57296 77.5988 7.06872 77.5988C7.5025 77.5988 7.93628 77.5358 8.37006 77.5358L14.6909 84.8481Z" fill="black"/>
<path d="M15.0007 87.8739H15.4965C15.4345 87.4326 15.4345 86.9284 15.4345 86.4871V79.8682C15.4345 78.1031 16.1782 77.9771 16.7979 77.9771H16.9218V77.6619C16.3641 77.6619 15.8063 77.7249 15.2486 77.7249C14.567 77.7249 13.9473 77.6619 13.3276 77.6619V77.9771H13.5135C13.9473 77.9771 14.8148 78.1662 14.8148 79.4269V84.9112L14.7529 84.9742L8.43203 77.6619C7.99825 77.6619 7.56447 77.7249 7.13069 77.7249C6.63493 77.7249 6.07721 77.6619 5.58146 77.6619V77.9771H5.7054C6.38706 77.9771 7.06872 78.4814 7.06872 79.3639V85.4785C7.06872 86.6132 6.75887 87.3696 5.7054 87.3696H5.58146V87.6848C6.20115 87.6848 6.82084 87.6218 7.44053 87.6218C8.06022 87.6218 8.61794 87.6848 9.23763 87.6848V87.3696H9.05172C7.93628 87.3696 7.62644 86.8653 7.62644 85.6046V79.4269L15.0007 87.8739ZM15.5585 88H15.0007L7.75038 79.8052V85.6046C7.75038 86.8653 7.93628 87.2435 9.05172 87.2435H9.36157V87.3066V87.8109H9.2996C8.67991 87.8109 8.06022 87.7478 7.44053 87.7478C6.82084 87.7478 6.13918 87.8109 5.51949 87.8109H5.39555V87.7478V87.2435H5.45752H5.64343C6.57296 87.2435 6.88281 86.6132 6.88281 85.4785V79.3639C6.88281 78.6074 6.26312 78.1032 5.64343 78.1032H5.39555V78.0401V77.5358H5.45752C6.01524 77.5358 6.57296 77.5989 7.06872 77.5989C7.5025 77.5989 7.93628 77.5358 8.37007 77.5358L14.6289 84.7221V79.3639C14.6289 78.2292 13.8853 78.0401 13.4515 78.0401H13.0797V77.9771V77.4728H13.1417C13.8233 77.4728 14.443 77.5358 15.1247 77.5358C15.6824 77.5358 16.3021 77.4728 16.8598 77.4728H16.9218V77.5358V78.0401H16.8598H16.6739C16.0542 78.0401 15.4965 78.1031 15.4345 79.8052V86.4241C15.4345 86.9284 15.4345 87.4326 15.4965 87.8739V87.937H15.5585V88Z" fill="black"/>
<path d="M19.0907 78.2923C18.0372 78.2923 17.9753 78.5445 17.7894 79.6161H17.3556C17.4175 79.2379 17.4795 78.7966 17.5415 78.3554C17.6034 77.9771 17.6034 77.5359 17.6034 77.0946H17.9753C18.0992 77.5359 18.471 77.5359 18.8428 77.5359H26.2171C26.589 77.5359 26.9608 77.5359 26.9608 77.0946L27.2706 77.1576C27.2086 77.5359 27.1467 77.9141 27.0847 78.3554C27.0847 78.7336 27.0847 79.1118 27.0847 79.5531L26.6509 79.7422C26.6509 79.1748 26.527 78.3554 25.5974 78.3554H23.2426V86.1089C23.2426 87.2436 23.7384 87.3697 24.42 87.3697H24.6679V87.8109C24.1102 87.8109 23.1187 87.7479 22.3131 87.7479C21.4455 87.7479 20.454 87.8109 19.8963 87.8109V87.3697H20.1442C20.9498 87.3697 21.3216 87.3066 21.3216 86.172V78.4184H19.0907V78.2923Z" fill="black"/>
<path d="M24.7299 87.7478C24.1722 87.7478 23.1807 87.6848 22.3751 87.6848C21.5075 87.6848 20.516 87.7478 19.9583 87.7478H19.8963V87.6848V87.1805H19.9583H20.2061C21.0117 87.1805 21.3216 87.1805 21.3216 86.0458V78.3553H19.0907V78.2922V78.2292H21.5075V86.0458C21.5075 87.1805 21.0737 87.3066 20.2681 87.3066H20.0822V87.6217C20.6399 87.6217 21.6314 87.5587 22.437 87.5587C23.1807 87.5587 24.1102 87.6217 24.6679 87.6217V87.3066H24.482C23.8004 87.3066 23.2426 87.1174 23.2426 85.9828V78.1662H25.6594C26.589 78.1662 26.7749 78.9856 26.7749 79.553L27.0847 79.4269C27.0847 79.0487 27.0847 78.6705 27.0847 78.2922C27.1467 77.914 27.2086 77.5358 27.2086 77.1576L26.9608 77.0945C26.8988 77.5358 26.465 77.5358 26.1552 77.5358H18.7809H18.7189C18.409 77.5358 18.0372 77.5358 17.9133 77.0945H17.6654C17.6654 77.4728 17.6654 77.914 17.6035 78.2922C17.5415 78.6705 17.4795 79.0487 17.4175 79.4899H17.7274C17.9133 78.4814 18.0372 78.1662 19.0907 78.1662V78.2292V78.2922C18.0372 78.2922 18.0372 78.4813 17.8513 79.553V79.616H17.7894H17.2316V79.553C17.2936 79.1748 17.3556 78.7335 17.4175 78.2922C17.4795 77.914 17.4795 77.4728 17.4795 77.0945V77.0315H17.5415H17.9133V77.0945C18.0372 77.4728 18.2851 77.4728 18.6569 77.4728H18.7189H26.0932C26.465 77.4728 26.7749 77.4728 26.7749 77.0945V77.0315H26.8368L27.2706 77.0945V77.1576C27.2086 77.5358 27.1467 77.914 27.0847 78.3553C27.0847 78.7335 27.0847 79.1117 27.0847 79.553V79.616H27.0227L26.527 79.8051V79.7421C26.465 79.1748 26.4031 78.4183 25.5355 78.4183H23.2426V86.1089C23.2426 87.1805 23.6764 87.3066 24.3581 87.3066H24.6679V87.3696L24.7299 87.7478Z" fill="black"/>
<path d="M27.7044 87.2435H27.8903C28.3861 87.2435 28.9438 87.1805 28.9438 86.424V78.7965C28.9438 78.0401 28.3861 77.977 27.8903 77.977H27.7044V77.5358C28.572 77.5358 30.0592 77.5988 31.2366 77.5988C32.414 77.5988 33.9013 77.5358 34.8928 77.5358C34.8928 78.1661 34.8928 79.1117 34.8928 79.7421L34.459 79.8681C34.397 78.9226 34.2111 78.1661 32.7239 78.1661H30.7409V81.9484H32.414C33.2816 81.9484 33.4675 81.4441 33.5295 80.6876H33.9633C33.9633 81.255 33.9013 81.8223 33.9013 82.3896C33.9013 82.957 33.9013 83.5243 33.9633 84.0286L33.5295 84.0916C33.4675 83.2091 33.4055 82.6418 32.414 82.6418H30.6789V86.0458C30.6789 86.9914 31.4845 86.9914 32.414 86.9914C34.1492 86.9914 34.8928 86.8653 35.3266 85.2263L35.6984 85.3524C35.5125 86.1088 35.3266 86.8653 35.2026 87.6848C34.2731 87.6848 32.6619 87.6217 31.3606 87.6217C30.0592 87.6217 28.3861 87.6848 27.5805 87.6848V87.2435H27.7044Z" fill="black"/>
<path d="M35.3266 87.6218C35.4505 86.8653 35.6364 86.1719 35.7604 85.4155L35.4505 85.3524C35.0167 86.9914 34.2112 87.1175 32.538 87.1175C31.6085 87.1175 30.7409 87.1175 30.7409 86.1089V82.6418H32.538C33.5295 82.6418 33.6534 83.2722 33.7154 84.0917L34.0252 84.0286C34.0252 83.5243 33.9633 82.957 33.9633 82.4527C33.9633 81.8854 33.9633 81.3811 34.0252 80.8137H33.7154C33.6534 81.5702 33.4056 82.0745 32.538 82.0745H30.8029V78.1662H32.8478C34.3351 78.1662 34.583 78.9226 34.6449 79.8682L34.9548 79.8052C34.9548 79.3639 34.8928 78.8596 34.8928 78.3553C34.8928 78.1032 34.8928 77.851 34.8928 77.6619C33.9013 77.6619 32.476 77.7249 31.2986 77.7249C30.1212 77.7249 28.6959 77.6619 27.8283 77.6619V77.9771H27.9523C28.448 77.9771 29.0677 78.0401 29.0677 78.8596V86.4871C29.0677 87.3066 28.448 87.3696 27.9523 87.3696H27.7664V87.6848C28.572 87.6848 30.2451 87.6218 31.4845 87.6218C32.7859 87.5587 34.3971 87.6218 35.3266 87.6218ZM35.3266 87.7478C34.3971 87.7478 32.7859 87.6848 31.4845 87.6848C30.1832 87.6848 28.51 87.7478 27.7044 87.7478H27.6424V87.6848V87.2435V87.1805H27.7044H27.8903C28.3861 87.1805 28.8818 87.1175 28.8818 86.4241V78.7966C28.8818 78.1031 28.3861 78.0401 27.8903 78.0401H27.6424V77.9771V77.4728H27.7044C28.572 77.4728 30.0592 77.5358 31.2366 77.5358C32.414 77.5358 33.9013 77.4728 34.8928 77.4728H34.9548V77.5358C34.9548 77.7249 34.9548 78.0401 34.9548 78.2923C34.9548 78.7966 34.9548 79.3639 35.0167 79.7421V79.8052H34.9548L34.459 79.9312V79.8682C34.3971 78.9226 34.2731 78.2292 32.7859 78.2292H30.8648V81.8854H32.476C33.2816 81.8854 33.4675 81.4441 33.5295 80.6877V80.6246H33.5915H34.0872V80.6877C34.0872 81.255 34.0252 81.8223 34.0252 82.3897C34.0252 82.957 34.0252 83.4613 34.0872 84.0286V84.0917H34.0252L33.5295 84.2178V84.1547C33.4056 83.2722 33.4056 82.7679 32.476 82.7679H30.8648V86.1089C30.8648 86.9914 31.6085 86.9914 32.538 86.9914C34.2731 86.9914 34.9548 86.8653 35.3886 85.2894V85.2263H35.4505L35.8843 85.3524V85.4155C35.6984 86.1719 35.5125 86.9283 35.3266 87.7478Z" fill="black"/>
<path d="M39.6024 82.4527H40.2841C41.7094 82.4527 42.453 81.8853 42.453 80.1833C42.453 78.9226 41.6474 78.0401 40.3461 78.0401C39.9123 78.0401 39.7264 78.1031 39.5405 78.1031V82.4527H39.6024ZM37.7434 79.1117C37.7434 78.0401 37.1857 78.0401 36.7519 78.0401H36.504V77.5358C36.9378 77.5358 37.8673 77.5988 38.7349 77.5988C39.6025 77.5988 40.2841 77.5358 41.0277 77.5358C42.8248 77.5358 44.436 78.0401 44.436 80.1203C44.436 81.4441 43.5685 82.2005 42.453 82.7048L44.8698 86.424C45.2416 87.0544 45.5515 87.1805 46.2331 87.3066V87.7478C45.7374 87.7478 45.3036 87.6848 44.8078 87.6848C44.3741 87.6848 43.8783 87.7478 43.4445 87.7478C42.3291 86.298 41.3996 84.722 40.47 83.02H39.5405V86.1088C39.5405 87.2435 40.0362 87.2435 40.7179 87.2435H40.9658V87.6848C40.1602 87.6848 39.3546 87.6217 38.487 87.6217C37.8053 87.6217 37.1237 87.6848 36.442 87.6848V87.2435H36.6899C37.2476 87.2435 37.6814 86.9914 37.6814 86.4871V79.1117H37.7434Z" fill="black"/>
<path d="M40.2841 82.3896C41.7094 82.3896 42.3911 81.8853 42.453 80.1833C42.453 78.9226 41.6474 78.1031 40.408 78.1031C40.0362 78.1031 39.8503 78.1661 39.6644 78.1661V82.3896H40.2841ZM39.6025 82.5157H39.5405V78.0401H39.6025C39.7884 78.0401 39.9743 77.977 40.408 77.977C41.7094 77.977 42.577 78.8595 42.577 80.1833C42.577 81.8853 41.7714 82.5157 40.3461 82.5157H39.6025ZM39.6025 82.957H40.594V83.02C41.5235 84.659 42.453 86.2349 43.5065 87.6848C43.9403 87.6848 44.3741 87.6217 44.8698 87.6217C45.3036 87.6217 45.7374 87.6848 46.2331 87.6848V87.3696C45.5515 87.3066 45.2416 87.0544 44.8698 86.4871L42.3911 82.7048H42.453C43.5685 82.2636 44.3741 81.5071 44.3741 80.1833C44.3741 78.1661 42.8248 77.7249 41.0277 77.6618C40.2841 77.6618 39.6025 77.7249 38.7349 77.7249C37.8673 77.7249 37.0617 77.6618 36.566 77.6618V77.977H36.7519C37.1857 77.977 37.8054 78.0401 37.8054 79.1117V86.4871C37.8054 87.0544 37.2476 87.3066 36.7519 87.3066H36.566V87.6217C37.2476 87.6217 37.9293 87.5587 38.549 87.5587C39.3546 87.5587 40.1602 87.6217 40.9658 87.6217V87.3066H40.7799C40.1602 87.3066 39.5405 87.2435 39.5405 86.1088V82.957H39.6025ZM46.2331 87.7478C45.7374 87.7478 45.3036 87.6848 44.8078 87.6848C44.3741 87.6848 43.9403 87.7478 43.4445 87.7478C42.3291 86.298 41.3996 84.722 40.47 83.0831H39.6025V86.1088C39.6025 87.1805 40.0362 87.1805 40.7179 87.1805H41.0277V87.2435V87.7478H40.9658C40.1602 87.7478 39.2926 87.6848 38.487 87.6848C37.8053 87.6848 37.1237 87.7478 36.442 87.7478V87.6848V87.1805H36.504H36.7519C37.2476 87.1805 37.6814 86.9283 37.6814 86.4871V79.1117C37.6814 78.1031 37.1857 78.1031 36.7519 78.1031H36.442V78.0401V77.5358H36.504C36.9378 77.5358 37.8673 77.5988 38.7349 77.5988C39.6025 77.5988 40.2841 77.5358 41.0277 77.5358C42.8248 77.5358 44.498 78.0401 44.498 80.1833C44.498 81.5071 43.6304 82.3266 42.577 82.7679L44.9938 86.424C45.3656 87.0544 45.6134 87.1805 46.3571 87.2435H46.419V87.3066L46.2331 87.7478Z" fill="black"/>
<path d="M55.9003 84.8481V79.3638C55.9003 78.1661 55.0947 77.977 54.6609 77.977H54.413V77.5358C55.0947 77.5358 55.7144 77.5988 56.396 77.5988C56.9538 77.5988 57.5735 77.5358 58.1312 77.5358V77.977H57.9453C57.3256 77.977 56.7059 78.1031 56.7059 79.8051V86.424C56.7059 86.9283 56.7059 87.4326 56.7679 87.8739H56.2101L48.8358 79.553V85.5415C48.8358 86.8022 49.0837 87.2435 50.1992 87.2435H50.447V87.6848C49.8273 87.6848 49.2076 87.6217 48.588 87.6217C47.9683 87.6217 47.2866 87.6848 46.6669 87.6848V87.2435H46.8528C47.8443 87.2435 48.1542 86.5501 48.1542 85.4154V79.3008C48.1542 78.4813 47.4725 77.977 46.8528 77.977H46.6669V77.5358C47.2246 77.5358 47.7824 77.5988 48.3401 77.5988C48.7739 77.5988 49.2076 77.5358 49.5795 77.5358L55.9003 84.8481Z" fill="black"/>
<path d="M56.2101 87.8739H56.7059C56.6439 87.4326 56.6439 86.9284 56.6439 86.4871V79.8682C56.6439 78.1031 57.3876 77.9771 58.0072 77.9771H58.1312V77.6619C57.5735 77.6619 57.0157 77.7249 56.458 77.7249C55.7764 77.7249 55.1567 77.6619 54.537 77.6619V77.9771H54.7849C55.2186 77.9771 56.0862 78.1662 56.0862 79.4269V84.9112L56.0242 84.9742L49.7034 77.6619C49.2696 77.6619 48.8358 77.7249 48.464 77.7249C47.9063 77.7249 47.4105 77.6619 46.8528 77.6619V77.9771H46.9768C47.6584 77.9771 48.3401 78.4814 48.3401 79.3639V85.4785C48.3401 86.6132 48.0302 87.3696 46.9768 87.3696H46.8528V87.6848C47.4725 87.6848 48.0922 87.6218 48.7119 87.6218C49.3316 87.6218 49.8893 87.6848 50.509 87.6848V87.3696H50.3231C49.2076 87.3696 48.8978 86.8653 48.8978 85.6046V79.4269L56.2101 87.8739ZM56.7679 88H56.2101L48.9598 79.8052V85.6046C48.9598 86.8653 49.1457 87.2435 50.2611 87.2435H50.571V87.3066V87.8109H50.509C49.8893 87.8109 49.2696 87.7478 48.6499 87.7478C48.0302 87.7478 47.3486 87.8109 46.7289 87.8109H46.6669V87.7478V87.2435H46.7289H46.9148C47.8443 87.2435 48.1542 86.6132 48.1542 85.4785V79.3639C48.1542 78.6074 47.5345 78.1032 46.9148 78.1032H46.6669V78.0401V77.5358H46.7289C47.2866 77.5358 47.8443 77.5989 48.3401 77.5989C48.7739 77.5989 49.1457 77.5358 49.6414 77.5358L55.9003 84.7221V79.3639C55.9003 78.2292 55.1567 78.0401 54.7229 78.0401H54.3511V77.9771V77.4728H54.413C55.0947 77.4728 55.7144 77.5358 56.396 77.5358C56.9538 77.5358 57.5735 77.4728 58.1312 77.4728H58.1931V77.5358V78.0401H58.1312H57.9453C57.3876 78.0401 56.7679 78.1031 56.7059 79.8052V86.4241C56.7059 86.9284 56.7059 87.4326 56.7679 87.8739V87.937V88Z" fill="black"/>
<path d="M62.531 79.1748L61.1677 83.2722H63.8323L62.531 79.1748ZM60.424 85.6046C60.3001 86.1089 60.1142 86.4871 60.1142 86.7393C60.1142 87.1805 60.7339 87.2436 61.1677 87.2436H61.3536V87.6848C60.7959 87.6218 60.1762 87.6218 59.6184 87.6218C59.1227 87.6218 58.565 87.6218 58.0692 87.6848V87.2436H58.1312C58.6889 87.2436 59.1847 86.9284 59.3706 86.298L61.6634 79.616C61.8493 79.0487 62.0972 78.3553 62.2211 77.788C62.6549 77.5989 63.2746 77.3467 63.5225 77.1576C63.5845 77.1576 63.5845 77.1576 63.6464 77.1576C63.7084 77.1576 63.7084 77.1576 63.7704 77.2206C63.8323 77.3467 63.8323 77.4728 63.8943 77.5989L66.497 85.1633C66.6829 85.6676 66.8069 86.235 66.9928 86.6762C67.1787 87.0544 67.4885 87.2436 67.9223 87.2436H67.9843V87.6848C67.3646 87.6218 66.6829 87.6218 66.0012 87.6218C65.3196 87.6218 64.576 87.6218 63.8323 87.6848V87.2436H64.0182C64.3281 87.2436 64.8858 87.1805 64.8858 86.8023C64.8858 86.6132 64.7619 86.235 64.576 85.7307L64.0182 84.0287H60.7959L60.424 85.6046Z" fill="black"/>
<path d="M61.2296 83.2092H63.7084L62.469 79.3009L61.2296 83.2092ZM61.1057 83.3353L62.469 79.1118H62.531V79.1748V79.1118H62.593L63.9563 83.3353H61.1057ZM64.0182 87.6218C64.6999 87.6218 65.4435 87.5588 66.1252 87.5588C66.8068 87.5588 67.4265 87.5588 68.0462 87.6218V87.3066C67.5505 87.3066 67.2406 87.1175 67.0547 86.6763C66.8688 86.235 66.6829 85.7307 66.497 85.1634L63.8943 77.5989C63.8323 77.4728 63.8323 77.3468 63.7704 77.2207H63.7084C63.4605 77.4098 62.8408 77.6619 62.407 77.788C62.3451 78.3553 62.0352 79.0488 61.8493 79.6161L59.4945 86.3611C59.2466 86.9914 58.7509 87.3697 58.1932 87.3697V87.6849C58.6889 87.6849 59.1847 87.6218 59.6804 87.6218C60.2381 87.6218 60.7958 87.6218 61.3536 87.6849V87.3697H61.2296C60.7339 87.3697 60.1142 87.3066 60.1142 86.8023C60.1142 86.4871 60.3001 86.172 60.424 85.6677H60.486H60.424L60.9198 84.0917H64.2661L64.8238 85.7937C65.0097 86.235 65.1337 86.6763 65.1337 86.8654C65.1337 87.3066 64.514 87.3697 64.2041 87.3697H64.0802V87.6218H64.0182ZM68.0462 87.7479C67.4265 87.7479 66.7449 87.6849 66.0632 87.6849C65.3816 87.6849 64.6379 87.7479 63.8943 87.7479H63.8323V87.6849V87.1806H63.8943H64.0802C64.3901 87.1806 64.8858 87.1175 64.8858 86.8023C64.8858 86.6132 64.7619 86.235 64.576 85.7937L64.0182 84.1548H60.8578L60.424 85.6046C60.3001 86.1089 60.1142 86.4872 60.1142 86.7393C60.1142 87.1175 60.6719 87.1806 61.1057 87.1806H61.3536V87.2436V87.7479H61.2916C60.7339 87.7479 60.1142 87.6849 59.5565 87.6849C59.0607 87.6849 58.503 87.7479 58.0072 87.7479H57.9453V87.6849V87.1806H58.0072H58.0692C58.6269 87.1806 59.0607 86.8654 59.2466 86.298L61.5395 79.6161C61.7254 79.0488 61.9733 78.3553 62.0972 77.788C62.531 77.6619 63.0887 77.3468 63.3986 77.1576C63.4605 77.1576 63.4605 77.0946 63.5225 77.0946C63.5845 77.0946 63.6464 77.0946 63.7084 77.1576C63.7704 77.2837 63.7704 77.4098 63.8323 77.5359L66.435 85.1003C66.6209 85.6046 66.7449 86.172 66.9308 86.5502C67.1167 86.9284 67.3646 87.1175 67.7983 87.1175H67.9223V87.1806V87.6849L68.0462 87.7479Z" fill="black"/>
<path d="M68.6659 78.2923C67.6124 78.2923 67.5505 78.5445 67.3646 79.6161H66.9308C66.9927 79.2379 67.0547 78.7966 67.1167 78.3554C67.1787 77.9771 67.1787 77.5359 67.1787 77.0946H67.5505C67.6744 77.5359 68.0462 77.5359 68.418 77.5359H75.7924C76.1642 77.5359 76.536 77.5359 76.536 77.0946L76.9078 77.1576C76.8458 77.5359 76.7839 77.9141 76.7839 78.3554C76.7219 78.7336 76.7219 79.1118 76.7219 79.5531L76.2881 79.7422C76.2881 79.1748 76.1642 78.3554 75.2346 78.3554H72.8798V86.1089C72.8798 87.2436 73.3756 87.3697 74.0572 87.3697H74.3051V87.8109C73.7474 87.8109 72.7559 87.7479 71.9503 87.7479C71.0827 87.7479 70.0912 87.8109 69.5335 87.8109V87.3697H69.7814C70.587 87.3697 70.9588 87.3066 70.9588 86.172V78.4184H68.6659V78.2923Z" fill="black"/>
<path d="M74.3051 87.7478C73.7474 87.7478 72.7559 87.6848 71.9503 87.6848C71.0827 87.6848 70.0912 87.7478 69.5335 87.7478H69.4715V87.6848V87.1805H69.5335H69.7814C70.587 87.1805 70.8968 87.1805 70.8968 86.0458V78.3553H68.6659V78.2922V78.2292H71.0827V86.0458C71.0827 87.1805 70.6489 87.3066 69.8433 87.3066H69.6574V87.6217C70.2151 87.6217 71.2066 87.5587 72.0122 87.5587C72.7559 87.5587 73.6854 87.6217 74.3051 87.6217V87.3066H74.1192C73.4375 87.3066 72.8798 87.1174 72.8798 85.9828V78.1662H75.2966C76.2261 78.1662 76.3501 78.9856 76.412 79.553L76.7219 79.4269C76.7219 79.0487 76.7219 78.6705 76.7839 78.2922C76.8458 77.914 76.8458 77.5358 76.9078 77.1576L76.7219 77.0945C76.6599 77.5358 76.2261 77.5358 75.9163 77.5358H68.542H68.48C68.1702 77.5358 67.7984 77.5358 67.6744 77.0945H67.4265C67.4265 77.4728 67.3646 77.914 67.3646 78.2922C67.3026 78.6705 67.2406 79.0487 67.1787 79.4899H67.4885C67.6744 78.4814 67.7984 78.1662 68.8518 78.1662V78.2292V78.2922C67.7984 78.2922 67.7984 78.4813 67.6124 79.553V79.616H67.5505H67.0547V79.553C67.1167 79.1748 67.1787 78.7335 67.2406 78.2922C67.3026 77.914 67.3026 77.4728 67.3026 77.0945V77.0315H67.3646H67.7364V77.0945C67.8603 77.4728 68.1082 77.4728 68.48 77.4728H68.542H75.9163C76.2881 77.4728 76.598 77.4728 76.598 77.0945V77.0315H76.6599L77.0937 77.0945V77.1576C77.0317 77.5358 76.9698 77.914 76.9078 78.3553C76.9078 78.7335 76.9078 79.1117 76.9078 79.553V79.616H76.8458L76.3501 79.8051V79.7421C76.2881 79.1748 76.2261 78.4183 75.3586 78.4183H73.0657V86.1089C73.0657 87.1805 73.4995 87.3066 74.1812 87.3066H74.491V87.3696L74.3051 87.7478Z" fill="black"/>
<path d="M77.4035 87.2435H77.5895C78.0852 87.2435 78.6429 87.1805 78.6429 86.424V78.7965C78.6429 78.0401 78.0852 77.977 77.5895 77.977H77.4035V77.5358C77.9613 77.5358 78.8288 77.5988 79.5105 77.5988C80.2541 77.5988 81.0597 77.5358 81.7414 77.5358V77.977H81.5555C81.0597 77.977 80.502 78.0401 80.502 78.7965V86.424C80.502 87.1805 81.0597 87.2435 81.5555 87.2435H81.7414V87.6848C81.0597 87.6848 80.1921 87.6217 79.5105 87.6217C78.8288 87.6217 77.9613 87.6848 77.4035 87.6848V87.2435Z" fill="black"/>
<path d="M81.6794 87.6218V87.3066H81.5555C81.0597 87.3066 80.44 87.2435 80.44 86.4241V78.7966C80.44 77.9771 81.0597 77.914 81.5555 77.914H81.6794V77.5989C80.9977 77.5989 80.1922 77.6619 79.5105 77.6619C78.8288 77.6619 78.0232 77.5989 77.4655 77.5989V77.914H77.5895C78.0852 77.914 78.7049 77.9771 78.7049 78.7966V86.4241C78.7049 87.2435 78.0852 87.3066 77.5895 87.3066H77.4655V87.6218C78.0232 87.6218 78.8288 87.5587 79.5105 87.5587C80.1922 87.5587 80.9977 87.6218 81.6794 87.6218ZM81.7414 87.7478C81.0597 87.7478 80.1922 87.6848 79.5105 87.6848C78.8288 87.6848 77.9613 87.7478 77.4035 87.7478H77.3416V87.6848V87.2435V87.1805H77.4035H77.5895C78.0852 87.1805 78.581 87.1175 78.581 86.4241V78.7966C78.581 78.1031 78.0852 78.0401 77.5895 78.0401H77.3416V77.9771V77.4728H77.4035C77.9613 77.4728 78.8288 77.5358 79.5105 77.5358C80.1922 77.5358 81.0597 77.4728 81.7414 77.4728H81.8033V77.5358V78.0401H81.7414H81.5555C81.0597 78.0401 80.564 78.1031 80.564 78.7966V86.4241C80.564 87.1175 81.0597 87.1805 81.5555 87.1805H81.8033V87.2435L81.7414 87.7478Z" fill="black"/>
<path d="M87.6284 87.3066C90.4171 87.3066 90.8508 84.8481 90.8508 82.7048C90.8508 80.5616 89.7354 78.0401 87.3806 78.0401C84.9018 78.0401 84.1582 80.3094 84.1582 82.2636C84.1582 84.7851 85.3356 87.3066 87.6284 87.3066ZM87.4425 77.3467C90.479 77.3467 92.8958 79.2378 92.8958 82.3266C92.8958 85.6676 90.541 87.8739 87.5045 87.8739C84.468 87.8739 82.1752 85.7937 82.1752 82.6418C82.1752 79.6791 84.468 77.3467 87.4425 77.3467Z" fill="black"/>
<path d="M84.0962 82.2006C84.0962 80.2464 84.8398 77.9141 87.3806 77.9141C89.7974 77.9141 90.9128 80.5616 90.9128 82.6419C90.9128 84.7851 90.417 87.3066 87.6284 87.3066V87.2436V87.1806C90.3551 87.1806 90.7889 84.7851 90.7889 82.6419C90.7889 80.5616 89.6734 78.0401 87.3806 78.0401C84.9018 78.0401 84.2201 80.2464 84.2201 82.2006C84.2201 84.7851 85.3976 87.2436 87.6284 87.2436V87.3066V87.3697C85.2736 87.3066 84.0962 84.7851 84.0962 82.2006ZM82.1132 82.7049C82.1132 79.6791 84.468 77.2837 87.4425 77.2837V77.3467V77.4098C84.53 77.4098 82.2371 79.7421 82.2371 82.7049C82.2371 85.7937 84.53 87.874 87.5045 87.874C90.541 87.874 92.8338 85.6677 92.8338 82.3897C92.8338 79.3639 90.417 77.4728 87.4425 77.4728V77.4098V77.3467C90.479 77.3467 92.9578 79.3009 92.9578 82.3897C92.9578 85.7937 90.541 88 87.5045 88C84.468 88 82.1132 85.8568 82.1132 82.7049Z" fill="black"/>
<path d="M102.501 84.8481V79.3638C102.501 78.1661 101.695 77.977 101.262 77.977H100.952V77.5358C101.633 77.5358 102.253 77.5988 102.935 77.5988C103.493 77.5988 104.112 77.5358 104.67 77.5358V77.977H104.484C103.864 77.977 103.183 78.1031 103.183 79.8051V86.424C103.183 86.9283 103.183 87.4326 103.245 87.8739H102.687L95.3126 79.553V85.5415C95.3126 86.8022 95.5605 87.2435 96.6759 87.2435H96.9238V87.6848C96.3041 87.6848 95.6844 87.6217 95.0647 87.6217C94.445 87.6217 93.7634 87.6848 93.1437 87.6848V87.2435H93.3296C94.3211 87.2435 94.6309 86.5501 94.6309 85.4154V79.3008C94.6309 78.4813 93.9493 77.977 93.3296 77.977H93.1437V77.5358C93.7014 77.5358 94.2591 77.5988 94.7549 77.5988C95.1887 77.5988 95.6224 77.5358 95.9943 77.5358L102.501 84.8481Z" fill="black"/>
<path d="M102.811 87.8739H103.307C103.245 87.4326 103.245 86.9284 103.245 86.4871V79.8682C103.245 78.1031 103.988 77.9771 104.608 77.9771H104.732V77.6619C104.174 77.6619 103.616 77.7249 103.059 77.7249C102.439 77.7249 101.757 77.6619 101.138 77.6619V77.9771H101.386C101.819 77.9771 102.687 78.1662 102.687 79.4269V84.9112L102.625 84.9742L96.3041 77.6619C95.8703 77.6619 95.4365 77.7249 95.0647 77.7249C94.569 77.7249 94.0112 77.6619 93.4535 77.6619V77.9771H93.5775C94.2591 77.9771 94.9408 78.4814 94.9408 79.3639V85.4785C94.9408 86.6132 94.6309 87.3696 93.5775 87.3696H93.4535V87.6848C94.0732 87.6848 94.6929 87.6218 95.3126 87.6218C95.9323 87.6218 96.49 87.6848 97.1097 87.6848V87.3696H96.9238C95.8083 87.3696 95.4985 86.8653 95.4985 85.6046V79.4269L102.811 87.8739ZM103.369 88H102.749L95.4985 79.8052V85.6046C95.4985 86.8653 95.6844 87.2435 96.7998 87.2435H97.1097V87.3066V87.8109H97.0477C96.428 87.8109 95.8083 87.7478 95.1887 87.7478C94.569 87.7478 93.8873 87.8109 93.2676 87.8109H93.2057V87.7478V87.2435H93.2676H93.4535C94.3831 87.2435 94.6929 86.6132 94.6929 85.4785V79.3639C94.6929 78.6074 94.0732 78.1032 93.4535 78.1032H93.2057V78.0401V77.5358H93.2676C93.8253 77.5358 94.3831 77.5989 94.9408 77.5989C95.3746 77.5989 95.7464 77.5358 96.2421 77.5358L102.501 84.7221V79.3639C102.501 78.2292 101.757 78.0401 101.324 78.0401H100.89V77.9771V77.4728H100.952C101.633 77.4728 102.253 77.5358 102.935 77.5358C103.493 77.5358 104.112 77.4728 104.67 77.4728H104.732V77.5358V78.0401H104.67H104.484C103.926 78.0401 103.307 78.1031 103.307 79.8052V86.4241C103.307 86.9284 103.307 87.4326 103.369 87.8739V87.937V88Z" fill="black"/>
<path d="M109.132 79.1748L107.768 83.2722H110.433L109.132 79.1748ZM107.025 85.6046C106.901 86.1089 106.715 86.4871 106.715 86.7393C106.715 87.1805 107.335 87.2436 107.768 87.2436H107.954V87.6848C107.397 87.6218 106.777 87.6218 106.219 87.6218C105.723 87.6218 105.166 87.6218 104.67 87.6848V87.2436H104.732C105.29 87.2436 105.785 86.9284 105.971 86.298L108.264 79.616C108.45 79.0487 108.698 78.3553 108.76 77.788C109.194 77.5989 109.813 77.3467 110.061 77.1576C110.123 77.1576 110.123 77.1576 110.185 77.1576C110.247 77.1576 110.247 77.1576 110.309 77.2206C110.371 77.3467 110.371 77.4728 110.433 77.5989L113.036 85.1633C113.222 85.6676 113.408 86.235 113.593 86.6762C113.779 87.0544 114.089 87.2436 114.523 87.2436H114.585V87.6848C113.965 87.6218 113.284 87.6218 112.602 87.6218C111.92 87.6218 111.177 87.6218 110.433 87.6848V87.2436H110.619C110.929 87.2436 111.487 87.1805 111.487 86.8023C111.487 86.6132 111.363 86.235 111.177 85.7307L110.619 84.0287H107.397L107.025 85.6046Z" fill="black"/>
<path d="M107.83 83.2092H110.309L109.07 79.3009L107.83 83.2092ZM107.644 83.3353L109.008 79.1118H109.07H109.132V79.1748V79.1118H109.194L110.557 83.3353H107.644ZM110.557 87.6218C111.239 87.6218 111.982 87.5588 112.664 87.5588C113.346 87.5588 113.965 87.5588 114.585 87.6218V87.3066C114.089 87.3066 113.779 87.1175 113.593 86.6763C113.408 86.235 113.222 85.7307 113.036 85.1634L110.433 77.5989C110.371 77.4728 110.371 77.3468 110.309 77.2837H110.247C109.937 77.4728 109.38 77.725 108.946 77.851C108.884 78.4184 108.574 79.1118 108.388 79.6791L106.095 86.3611C105.909 86.9914 105.352 87.3697 104.794 87.3697V87.6849C105.29 87.6849 105.785 87.6218 106.281 87.6218C106.839 87.6218 107.397 87.6218 107.954 87.6849V87.3697H107.83C107.397 87.3697 106.715 87.3066 106.715 86.8023C106.715 86.4871 106.901 86.172 107.025 85.6677H107.087H107.025L107.52 84.0917H110.867L111.425 85.7937C111.61 86.235 111.734 86.6763 111.734 86.8654C111.734 87.3066 111.115 87.3697 110.805 87.3697H110.681V87.6218H110.557ZM114.647 87.7479C114.027 87.7479 113.346 87.6849 112.664 87.6849C111.982 87.6849 111.239 87.7479 110.495 87.7479H110.433V87.6849V87.1806H110.495H110.681C110.991 87.1806 111.487 87.1175 111.487 86.8023C111.487 86.6132 111.363 86.235 111.177 85.7937L110.619 84.1548H107.459L107.025 85.6046C106.901 86.1089 106.715 86.4872 106.715 86.7393C106.715 87.1175 107.273 87.1806 107.706 87.1806H107.954V87.2436V87.7479H107.892C107.335 87.7479 106.715 87.6849 106.157 87.6849C105.661 87.6849 105.104 87.7479 104.608 87.7479H104.546V87.6849V87.1806H104.608H104.67C105.228 87.1806 105.661 86.8654 105.847 86.298L108.14 79.6161C108.326 79.0488 108.574 78.3553 108.698 77.788C109.132 77.5989 109.689 77.3468 109.999 77.1576C110.061 77.1576 110.061 77.0946 110.123 77.0946C110.185 77.0946 110.247 77.0946 110.247 77.1576C110.309 77.2837 110.309 77.4098 110.371 77.5359L112.974 85.1003C113.16 85.6046 113.346 86.172 113.531 86.5502C113.717 86.9284 113.965 87.1175 114.399 87.1175H114.523V87.1806V87.6849L114.647 87.7479Z" fill="black"/>
<path d="M118.241 86.2979C118.241 86.8653 118.613 87.0544 119.109 87.1174C119.666 87.1805 120.348 87.1805 120.968 87.1174C121.587 87.0544 122.083 86.6762 122.331 86.361C122.579 86.0458 122.703 85.6676 122.765 85.2894H123.199C123.013 86.1088 122.827 86.9283 122.641 87.7478C121.402 87.7478 120.1 87.6848 118.861 87.6848C117.621 87.6848 116.32 87.7478 115.081 87.7478V87.3066H115.267C115.762 87.3066 116.32 87.2435 116.32 86.361V78.9226C116.32 78.1661 115.762 78.1031 115.267 78.1031H115.143V77.5358C115.886 77.5358 116.63 77.5988 117.374 77.5988C118.117 77.5988 118.799 77.5358 119.542 77.5358V77.977H119.171C118.613 77.977 118.179 77.977 118.179 78.7335V86.2979H118.241Z" fill="black"/>
<path d="M122.641 87.6218C122.827 86.8023 123.013 86.0458 123.137 85.2894H122.827C122.765 85.6046 122.641 85.9828 122.393 86.298C122.145 86.6762 121.587 87.0544 120.968 87.1175C120.596 87.1805 120.224 87.1805 119.852 87.1805C119.604 87.1805 119.295 87.1805 119.047 87.1805C118.613 87.1175 118.117 86.9283 118.117 86.298V78.7966C118.117 77.9771 118.613 77.9771 119.171 77.9771H119.481V77.6619C118.799 77.6619 118.055 77.7249 117.374 77.7249C116.63 77.7249 115.886 77.6619 115.205 77.6619V77.9771H115.329C115.824 77.9771 116.444 78.0401 116.444 78.8596V86.298C116.444 87.2435 115.824 87.3066 115.329 87.3066H115.205V87.6218C116.444 87.6218 117.683 87.5587 118.923 87.5587C120.162 87.5587 121.402 87.6218 122.641 87.6218ZM122.641 87.7478C121.402 87.7478 120.1 87.6848 118.861 87.6848C117.621 87.6848 116.32 87.7478 115.081 87.7478H115.019V87.6848V87.1805H115.081H115.267C115.762 87.1805 116.258 87.1175 116.258 86.298V78.7966C116.258 78.1031 115.762 78.0401 115.267 78.0401H115.019V77.9771V77.4728H115.081C115.824 77.4728 116.568 77.5358 117.312 77.5358C118.055 77.5358 118.737 77.4728 119.481 77.4728H119.542V77.5358V78.0401H119.481H119.109C118.551 78.0401 118.241 78.0401 118.179 78.7335V86.2349C118.179 86.8023 118.551 86.9284 118.985 86.9914C119.233 86.9914 119.481 86.9914 119.79 86.9914C120.162 86.9914 120.472 86.9914 120.844 86.9283C121.402 86.8653 121.897 86.4871 122.145 86.1719C122.393 85.8567 122.517 85.4785 122.579 85.1633V85.1003H122.641H123.137V85.1633C123.075 86.0458 122.889 86.8653 122.641 87.7478Z" fill="black"/>
<path d="M122.765 78.6705H122.951C123.137 78.6705 123.261 78.5444 123.261 78.2923C123.261 78.0401 123.137 77.9771 122.951 77.9771H122.765V78.6705ZM122.269 79.49V79.4269C122.455 79.4269 122.517 79.4269 122.517 79.3009V78.1662C122.517 77.9771 122.517 77.9771 122.331 77.9771V77.914H123.075C123.323 77.914 123.57 78.0401 123.57 78.2923C123.57 78.5444 123.447 78.6705 123.199 78.7335L123.447 79.1117C123.57 79.3009 123.694 79.4269 123.756 79.49V79.553H123.447C123.323 79.553 123.199 79.2378 122.889 78.8596H122.703V79.3639C122.703 79.49 122.765 79.49 122.951 79.49V79.553H122.269V79.49ZM123.013 79.9312C123.694 79.9312 124.19 79.3639 124.19 78.6705C124.19 78.0401 123.694 77.4097 123.013 77.4097C122.331 77.4097 121.835 77.9771 121.835 78.6705C121.835 79.3639 122.331 79.9312 123.013 79.9312ZM123.013 77.1576C123.88 77.1576 124.5 77.851 124.5 78.6705C124.5 79.49 123.88 80.1834 123.013 80.1834C122.145 80.1834 121.525 79.49 121.525 78.6705C121.525 77.851 122.145 77.1576 123.013 77.1576Z" fill="black"/>
<path d="M59.9903 0.441199H61.7874C61.1677 0.378162 60.548 0.378162 59.9903 0.441199Z" fill="#E6007E"/>
<path d="M61.7874 51.3123H58.9368C59.8663 51.3753 60.7959 51.3753 61.7874 51.3123Z" fill="#E6007E"/>
<path d="M58.1312 2.52148C45.4895 2.52148 35.2026 12.9857 35.2026 25.8453C35.2026 38.7049 45.4895 49.169 58.1312 49.169C70.7729 49.169 81.0597 38.7049 81.0597 25.8453C81.0597 12.9857 70.8348 2.52148 58.1312 2.52148ZM52.9258 39.6504C47.4725 37.5072 43.6304 32.149 43.6304 25.8453C43.6304 19.5415 47.5345 14.1834 52.9258 12.0401V39.6504ZM63.3366 39.6504V12.0401C68.7899 14.1834 72.6319 19.5415 72.6939 25.8453C72.6939 32.149 68.7899 37.5072 63.3366 39.6504Z" fill="white"/>
<path d="M90.479 29.8796C90.479 29.8166 90.479 29.6905 90.541 29.6275C90.7269 28.4297 90.7889 27.232 90.7889 25.9713C90.7889 22.7564 90.2311 19.7306 89.1777 17.02C85.4595 7.43835 75.6064 0.69336 61.8493 0.378174H59.9903C50.7569 0.567286 43.8783 3.71915 39.3546 8.50998C35.5745 12.6704 33.1577 18.2177 32.8478 24.6475C32.8478 24.7106 32.8478 24.7106 32.8478 24.7736C32.8478 24.9627 32.8478 25.1518 32.8478 25.3409C32.8478 25.404 32.8478 25.467 32.8478 25.53C32.8478 25.7191 32.8478 25.9083 32.8478 26.0974C32.8478 26.1604 32.8478 26.1604 32.8478 26.2234C32.8478 26.4126 32.8478 26.6017 32.8478 26.7908C33.0337 34.7335 36.9997 41.8567 43.0107 46.3323C47.1627 49.232 52.492 51.1232 58.9368 51.3753H61.7874C72.0122 50.9971 80.0063 47.3409 84.9638 41.6045C87.7524 38.2636 89.7354 34.2922 90.479 29.8796C90.417 29.9426 90.417 29.9426 90.479 29.8796ZM58.1312 49.169C45.4895 49.169 35.2026 38.7048 35.2026 25.8452C35.2026 12.9856 45.4895 2.52144 58.1312 2.52144C70.7729 2.52144 81.0597 12.9856 81.0597 25.8452C81.0597 38.7048 70.8348 49.169 58.1312 49.169Z" fill="#1A418C"/>
<path d="M63.3366 12.04V39.6504C68.7899 37.5071 72.6319 32.1489 72.6939 25.8452C72.6939 19.5415 68.7899 14.1833 63.3366 12.04Z" fill="#1A418C"/>
<path d="M43.6304 25.8452C43.6304 32.1489 47.5345 37.5071 52.9258 39.6504V12.04C47.4725 14.1833 43.6304 19.5415 43.6304 25.8452Z" fill="#1A418C"/>
</g>
<defs>
<clipPath id="clip0_482_2025">
<rect width="124" height="88" fill="white" transform="translate(0.5)"/>
</clipPath>
</defs>
</svg>
