<svg width="33" height="32" viewBox="0 0 33 32" fill="none" xmlns="http://www.w3.org/2000/svg">
<path d="M22.3443 12.5569L15.4582 19.443M15.4582 12.5569L22.3443 19.443M5.95542 17.1017L10.9134 23.7124C11.3174 24.251 11.5194 24.5203 11.7754 24.7146C12.0021 24.8866 12.2588 25.015 12.5325 25.0932C12.8415 25.1814 13.1782 25.1814 13.8515 25.1814H22.5738C24.5021 25.1814 25.4662 25.1814 26.2028 24.8061C26.8506 24.476 27.3773 23.9493 27.7074 23.3015C28.0827 22.565 28.0827 21.6008 28.0827 19.6726V12.3274C28.0827 10.3991 28.0827 9.43498 27.7074 8.69847C27.3773 8.05062 26.8506 7.52391 26.2028 7.19381C25.4662 6.81854 24.5021 6.81854 22.5738 6.81854H13.8515C13.1782 6.81854 12.8415 6.81854 12.5325 6.90679C12.2588 6.98495 12.0021 7.11332 11.7754 7.28536C11.5194 7.47961 11.3174 7.74893 10.9134 8.28757L5.95542 14.8982C5.6591 15.2933 5.51094 15.4909 5.45383 15.7078C5.40341 15.8993 5.40341 16.1006 5.45383 16.2921C5.51094 16.5091 5.6591 16.7067 5.95542 17.1017Z" stroke="#474B4D" stroke-width="1.14768" stroke-linecap="round" stroke-linejoin="round"/>
</svg>
